<svg width="12" height="12" viewBox="0 0 12 12" fill="none" xmlns="http://www.w3.org/2000/svg">
<g clip-path="url(#clip0_2_238)">
<path d="M11.6484 5.67189C11.0669 5.67189 10.5937 6.14502 10.5937 6.72657V7.34361C10.0639 8.33839 9.04369 8.95313 7.9115 8.95313H6.35155V8.25001H6.62457L6.92035 7.72571C7.35681 6.952 7.5781 6.14272 7.5781 5.32033C7.5781 4.49791 7.35681 3.68863 6.92035 2.91494L6.62457 2.39065H6.35155V2.00147L7.99843 1.38389C8.13563 1.33242 8.22655 1.20126 8.22655 1.05471C8.22655 0.908156 8.13563 0.776976 7.99843 0.725531L6.12343 0.0224076C6.0155 -0.0181157 5.8945 -0.00306888 5.79974 0.0626263C5.70496 0.128298 5.64843 0.236274 5.64843 0.351587V2.39065H4.79125L4.89212 2.56947C5.38876 3.44985 5.64062 4.3754 5.64062 5.32033C5.64062 6.26521 5.38881 7.19075 4.89212 8.07118L4.79125 8.25001H5.64843V8.95313H3.31799C2.60451 8.95313 1.93106 8.69265 1.40625 8.21668V8.13282C1.40625 7.55127 0.933115 7.07814 0.351562 7.07814C0.157406 7.07814 0 7.23554 0 7.4297C0 7.62385 0.157406 7.78126 0.351562 7.78126C0.545413 7.78126 0.703124 7.93897 0.703124 8.13282V9.77344C0.703124 11.0012 1.70196 12 2.92968 12H9.07029C10.298 12 11.2969 11.0012 11.2969 9.77344V6.72657C11.2969 6.53272 11.4546 6.37501 11.6484 6.37501C11.8426 6.37501 12 6.21761 12 6.02345C12 5.82929 11.8426 5.67189 11.6484 5.67189Z" fill="#F75D37"/>
<path d="M2.18078 8.07572C2.2438 8.18362 2.35939 8.25 2.48436 8.25H3.98396L4.27974 7.7257C4.7162 6.95198 4.93749 6.14271 4.93749 5.32031C4.93749 4.49789 4.7162 3.68862 4.27974 2.91492L3.98396 2.39062H2.48436C2.35939 2.39062 2.2438 2.45698 2.18078 2.56491C2.11778 2.67281 2.11677 2.80608 2.17817 2.91495C2.61463 3.68864 2.83592 4.49791 2.83592 5.32031C2.83592 6.14273 2.61463 6.95201 2.17817 7.7257C2.11677 7.83455 2.11778 7.96781 2.18078 8.07572Z" fill="#F75D37"/>
<path d="M7.53252 2.56945C8.02916 3.44984 8.28102 4.37538 8.28102 5.32031C8.28102 6.2652 8.0292 7.19074 7.53252 8.07117L7.43164 8.25H8.81225C8.93909 8.25 9.05612 8.18166 9.11844 8.07117C9.61512 7.19072 9.86694 6.26522 9.86694 5.32031C9.86694 4.37538 9.61512 3.44984 9.11844 2.56945C9.05612 2.45897 8.93909 2.39062 8.81225 2.39062H7.43164L7.53252 2.56945Z" fill="#F75D37"/>
</g>
<defs>
<clipPath id="clip0_2_238">
<rect width="12" height="12" fill="white"/>
</clipPath>
</defs>
</svg>
