<svg width="12" height="12" viewBox="0 0 12 12" fill="none" xmlns="http://www.w3.org/2000/svg">
<g clip-path="url(#clip0_2_216)">
<path d="M10.8751 8.66245C10.8188 8.6062 10.7438 8.58745 10.6876 8.58745C10.6313 8.58745 10.5376 8.6062 10.5001 8.66245L10.3688 8.7937L10.4438 9.52495L10.8751 9.07495C10.9876 8.96245 10.9876 8.77495 10.8751 8.66245ZM10.2188 10.9875L9.78755 7.3687V7.34995L9.6563 6.14995L9.48755 5.0062C9.4688 4.83745 9.2813 4.7812 9.15005 4.8937L7.12505 6.74995C7.05005 6.82495 7.0313 6.9187 7.08755 7.01245C7.87505 8.2312 8.96255 10.2375 9.63755 11.8687C9.6563 11.8875 9.6563 11.9062 9.67505 11.925C9.7313 11.9812 9.82505 12 9.90005 11.925C10.1438 11.6812 10.2563 11.3437 10.2188 10.9875ZM5.02505 11.1187L4.5188 9.37495C4.4813 9.26245 4.35005 9.2062 4.23755 9.2437C4.05005 9.33745 3.82505 9.41245 3.60005 9.44995C3.4688 9.4687 3.3938 9.63745 3.4688 9.74995L4.5563 11.3812C4.6313 11.4937 4.7813 11.4937 4.8563 11.4187L4.95005 11.325C5.02505 11.25 5.0438 11.175 5.02505 11.1187ZM3.56255 8.3062C3.5438 8.28745 3.5063 8.2687 3.4688 8.2687C3.4313 8.2687 3.3938 8.28745 3.37505 8.3062L2.25005 9.44995C2.1938 9.5062 2.1938 9.5812 2.25005 9.6187C2.28755 9.67495 2.3813 9.67495 2.4188 9.6187L3.56255 8.47495C3.6188 8.43745 3.6188 8.3437 3.56255 8.3062ZM2.51255 7.4062L0.881303 7.01245C0.806303 6.9937 0.750053 7.01245 0.693803 7.0687L0.581303 7.1812C0.487553 7.27495 0.506303 7.42495 0.600053 7.4812L2.10005 8.4937C2.2313 8.5687 2.3813 8.51245 2.4188 8.36245C2.4563 8.13745 2.55005 7.8937 2.6438 7.68745C2.70005 7.57495 2.6438 7.4437 2.51255 7.4062ZM6.8813 2.58745L5.7938 2.4187L4.5938 2.28745L0.975053 1.8562C0.637553 1.8187 0.300053 1.9312 0.0563033 2.17495C-0.0186967 2.24995 5.32959e-05 2.3437 0.0563033 2.39995C0.0750533 2.4187 0.0750533 2.4187 0.112553 2.43745C1.6313 3.0562 3.5813 4.1437 4.8563 4.9687C4.9313 5.02495 5.0438 5.0062 5.10005 4.9312L6.9938 2.92495C7.1063 2.81245 7.0313 2.62495 6.8813 2.58745ZM3.30005 1.1812C3.18755 1.0687 3.00005 1.0687 2.88755 1.1812L2.43755 1.61245L3.15005 1.68745L3.2813 1.5562C3.33755 1.49995 3.3563 1.42495 3.3563 1.3687C3.37505 1.31245 3.3563 1.23745 3.30005 1.1812ZM5.81255 1.5562C5.70005 1.4437 5.51255 1.4437 5.40005 1.5562L5.02505 1.91245L5.73755 1.98745L5.7938 1.9312C5.92505 1.83745 5.92505 1.6687 5.81255 1.5562ZM11.8501 0.187453C11.4376 -0.225047 10.0876 0.281203 9.41255 0.937453L3.2438 7.4812C3.11255 7.61245 2.9438 7.9312 2.8688 8.2687L3.11255 8.02495C3.3188 7.8187 3.6563 7.8187 3.86255 8.02495C4.0688 8.2312 4.0688 8.5687 3.86255 8.77495L3.56255 9.03745C3.9188 8.96245 4.27505 8.77495 4.42505 8.6437L11.0813 2.5687C11.5876 2.0812 12.0001 1.2187 12.0001 0.637453C12.0001 0.431203 11.9438 0.281203 11.8501 0.187453ZM10.9876 1.79995C10.9688 1.79995 10.9688 1.79995 10.9876 1.79995C10.8751 1.79995 10.7813 1.72495 10.7626 1.6312C10.7438 1.5562 10.6876 1.3312 10.4063 1.31245H10.3501C10.2376 1.31245 10.1438 1.2187 10.1626 1.1062C10.1813 0.993703 10.2563 0.899953 10.3688 0.899953H10.4251C10.8188 0.918703 11.1001 1.1812 11.1563 1.57495C11.1751 1.68745 11.0813 1.7812 10.9876 1.79995ZM10.5188 6.14995C10.4626 6.0937 10.3876 6.07495 10.3313 6.07495C10.2751 6.07495 10.1813 6.11245 10.1438 6.14995L10.0876 6.2062L10.1626 6.9187L10.5188 6.5437C10.6126 6.44995 10.6126 6.26245 10.5188 6.14995Z" fill="#F75D37"/>
</g>
<defs>
<clipPath id="clip0_2_216">
<rect width="12" height="12" fill="white"/>
</clipPath>
</defs>
</svg>
