<svg width="12" height="12" viewBox="0 0 12 12" fill="none" xmlns="http://www.w3.org/2000/svg">
<g clip-path="url(#clip0_2_207)">
<path d="M7.36837 1.23859L6.82911 1.7661L6.95661 2.51111C6.97721 2.63261 6.88416 2.74486 6.75936 2.74486C6.69163 2.74486 6.72681 2.75389 6.0001 2.37036L5.33409 2.72186C5.18784 2.79906 5.01588 2.67466 5.04358 2.51111L5.17109 1.7661L4.63183 1.23859C4.51313 1.12259 4.57963 0.921435 4.74283 0.897585L5.48734 0.789083L5.8206 0.111574C5.89385 -0.0370786 6.10625 -0.0373036 6.1796 0.111574L6.51286 0.789083L7.25737 0.897585C7.42087 0.921485 7.48682 1.12284 7.36837 1.23859ZM3.91319 2.26213L3.88957 2.12438C3.98204 2.03423 4.08567 1.96158 4.04024 1.8218C3.99484 1.6821 3.86737 1.68402 3.74049 1.66557L3.67864 1.54024C3.60544 1.39189 3.39321 1.39179 3.31993 1.54024L3.25808 1.66557C3.13028 1.68415 3.00373 1.682 2.95833 1.8218C2.91293 1.9615 3.0172 2.03488 3.10901 2.12438L3.08538 2.26213C3.05743 2.42516 3.22903 2.54998 3.37558 2.47296L3.49926 2.40791C3.62589 2.47451 3.65351 2.49593 3.71599 2.49593C3.83939 2.49593 3.93424 2.38478 3.91319 2.26213ZM2.16317 3.26214L2.13954 3.12439C2.23202 3.03424 2.33564 2.96159 2.29022 2.82181C2.24482 2.68211 2.11734 2.68404 1.99046 2.66559L1.92861 2.54026C1.85541 2.39191 1.64318 2.39181 1.56991 2.54026L1.50806 2.66559C1.38026 2.68416 1.2537 2.68201 1.2083 2.82181C1.1629 2.96151 1.26718 3.03489 1.35898 3.12439L1.33535 3.26214C1.3074 3.42517 1.47901 3.55 1.62556 3.47297L1.74924 3.40792C1.87586 3.47452 1.90349 3.49595 1.96596 3.49595C2.08937 3.49595 2.18422 3.3848 2.16317 3.26214ZM8.91474 2.26213L8.89112 2.12438C8.98359 2.03423 9.08722 1.96158 9.04179 1.8218C8.99639 1.6821 8.86892 1.68402 8.74204 1.66557C8.68486 1.54969 8.64784 1.42877 8.50086 1.42877C8.35398 1.42877 8.31641 1.55059 8.25966 1.66557L8.12135 1.68567C7.95765 1.70947 7.89198 1.91127 8.0105 2.02683L8.11058 2.12438C8.08873 2.25173 8.0476 2.37136 8.16653 2.45773C8.28536 2.54408 8.38736 2.46758 8.50086 2.40791C8.62749 2.47451 8.65511 2.49593 8.71759 2.49593C8.84094 2.49593 8.93577 2.38478 8.91474 2.26213ZM10.6648 3.26214L10.6411 3.12439C10.7336 3.03424 10.8372 2.96159 10.7918 2.82181C10.7464 2.68211 10.6189 2.68404 10.4921 2.66559C10.4349 2.54971 10.3979 2.42878 10.2509 2.42878C10.104 2.42878 10.0664 2.55061 10.0097 2.66559L9.87138 2.68569C9.70768 2.70949 9.642 2.91129 9.76053 3.02684L9.8606 3.12439C9.83875 3.25174 9.79763 3.37137 9.91656 3.45775C10.0354 3.5441 10.1374 3.4676 10.2509 3.40792C10.3775 3.47452 10.4051 3.49595 10.4676 3.49595C10.591 3.49595 10.6858 3.3848 10.6648 3.26214ZM3.05403 11.7943C3.05746 11.9069 2.96683 12 2.8541 12H1.80001C1.35818 12 1 11.6418 1 11.2V7.19993C1 6.7581 1.35818 6.39991 1.80001 6.39991H2.85003C2.96048 6.39991 3.05003 6.48967 3.05003 6.60012C3.0498 10.3667 3.0435 11.4492 3.05403 11.7943ZM2.37502 8.39994C2.37502 8.28949 2.28547 8.19994 2.17502 8.19994C2.06457 8.19994 1.97501 8.28949 1.97501 8.39994V9.24996C1.97501 9.36041 2.06457 9.44996 2.17502 9.44996C2.28547 9.44996 2.37502 9.36041 2.37502 9.24996V8.39994ZM11.0001 7.19993V11.2C11.0001 11.6418 10.642 12 10.2001 12H9.14622C9.03352 12 8.94284 11.9069 8.94629 11.7943C8.95687 11.4498 8.95034 10.3688 8.95012 6.60012C8.95012 6.48967 9.03967 6.39991 9.15012 6.39991H10.2001C10.642 6.39991 11.0001 6.7581 11.0001 7.19993ZM10.0251 8.39994C10.0251 8.28949 9.93558 8.19994 9.82513 8.19994C9.71468 8.19994 9.62513 8.28949 9.62513 8.39994V9.24996C9.62513 9.36041 9.71468 9.44996 9.82513 9.44996C9.93558 9.44996 10.0251 9.36041 10.0251 9.24996V8.39994ZM5.50007 12H6.50008C6.61053 12 6.70008 11.9104 6.70008 11.8V9.92497C6.70008 9.81452 6.61053 9.72496 6.50008 9.72496H5.50007C5.38961 9.72496 5.30006 9.81452 5.30006 9.92497V11.8C5.30006 11.9104 5.38961 12 5.50007 12ZM8.55011 4.34988V11.8C8.55011 11.9104 8.46056 12 8.35011 12H7.30009C7.18964 12 7.10009 11.9104 7.10009 11.8V9.52496C7.10009 9.41451 7.01054 9.32496 6.90009 9.32496H5.10006C4.98961 9.32496 4.90006 9.41451 4.90006 9.52496V11.8C4.90006 11.9104 4.81051 12 4.70005 12H3.65004C3.53959 12 3.45004 11.9104 3.45004 11.8V4.34988C3.45004 3.90805 3.80822 3.54987 4.25005 3.54987H7.7501C8.19196 3.54987 8.55011 3.90805 8.55011 4.34988ZM7.00009 7.69993C7.00009 7.58948 6.91054 7.49993 6.80008 7.49993H5.20006C5.08961 7.49993 5.00006 7.58948 5.00006 7.69993C5.00006 7.81039 5.08961 7.89994 5.20006 7.89994H6.80008C6.91056 7.89994 7.00009 7.81039 7.00009 7.69993ZM7.35009 5.77491C7.35009 5.66445 7.26054 5.5749 7.15009 5.5749H4.85006C4.7396 5.5749 4.65005 5.66445 4.65005 5.77491C4.65005 5.88536 4.7396 5.97491 4.85006 5.97491H7.15009C7.26057 5.97491 7.35009 5.88536 7.35009 5.77491Z" fill="#F75D37"/>
</g>
<defs>
<clipPath id="clip0_2_207">
<rect width="12" height="12" fill="white"/>
</clipPath>
</defs>
</svg>
