<svg width="15" height="30" viewBox="0 0 15 30" fill="none" xmlns="http://www.w3.org/2000/svg">
<path fill-rule="evenodd" clip-rule="evenodd" d="M7.38938 22.5698C7.38938 22.5698 14.7788 11.8032 14.7788 7.72263C14.7788 3.64137 11.4706 0.333252 7.38938 0.333252C3.30812 0.333252 0 3.64274 0 7.72263C0 11.8025 7.38938 22.5698 7.38938 22.5698ZM9.84479 4.9405C11.2011 6.29679 11.2011 8.49578 9.84479 9.85207C8.4885 11.2084 6.28951 11.2084 4.93322 9.85207C3.57692 8.49578 3.57692 6.29679 4.93322 4.9405C6.28951 3.5842 8.4885 3.5842 9.84479 4.9405Z" fill="#F75D37"/>
<path fill-rule="evenodd" clip-rule="evenodd" d="M7.17496 24.9039C9.17707 24.9039 10.8001 24.1825 10.8001 23.2927C10.8001 22.8491 10.3967 22.4474 9.7441 22.156C10.9855 22.5004 11.8076 23.1008 11.8076 23.7839C11.8076 24.8527 9.79529 25.7191 7.31298 25.7191C4.83067 25.7191 2.81836 24.8527 2.81836 23.7839C2.81836 23.2503 3.3201 22.7671 4.13155 22.417C3.76354 22.6691 3.5498 22.9698 3.5498 23.2927C3.5498 24.1825 5.17284 24.9039 7.17496 24.9039Z" fill="#F75D37"/>
<path fill-rule="evenodd" clip-rule="evenodd" d="M7.24786 28.1261C10.5847 28.1261 13.2898 27.0441 13.2898 25.7093C13.2898 25.3745 13.1196 25.0556 12.8118 24.7656C13.7862 25.2826 14.3701 25.9416 14.3701 26.6593C14.3701 28.3202 11.2429 29.6666 7.38524 29.6666C3.52761 29.6666 0.400391 28.3202 0.400391 26.6593C0.400391 26.0948 0.761512 25.5667 1.3897 25.1155C1.2697 25.3055 1.20595 25.5044 1.20595 25.7093C1.20595 27.0441 3.911 28.1261 7.24786 28.1261Z" fill="#F75D37"/>
</svg>
