<svg width="24" height="24" viewBox="0 0 24 24" fill="none" xmlns="http://www.w3.org/2000/svg">
<path d="M12 3C10.22 3 8.47991 3.52784 6.99987 4.51677C5.51983 5.50571 4.36628 6.91131 3.68509 8.55585C3.0039 10.2004 2.82567 12.01 3.17294 13.7558C3.5202 15.5016 4.37737 17.1053 5.63604 18.364C6.89471 19.6226 8.49836 20.4798 10.2442 20.8271C11.99 21.1743 13.7996 20.9961 15.4442 20.3149C17.0887 19.6337 18.4943 18.4802 19.4832 17.0001C20.4722 15.5201 21 13.78 21 12C20.9974 9.61386 20.0483 7.32622 18.361 5.63896C16.6738 3.95171 14.3861 3.00265 12 3ZM15.535 14.12C15.6279 14.2129 15.7016 14.3232 15.7519 14.4446C15.8022 14.566 15.8281 14.6961 15.8281 14.8275C15.8281 14.9589 15.8022 15.089 15.7519 15.2104C15.7016 15.3318 15.6279 15.4421 15.535 15.535C15.4421 15.6279 15.3318 15.7016 15.2104 15.7519C15.089 15.8022 14.9589 15.8281 14.8275 15.8281C14.6961 15.8281 14.566 15.8022 14.4446 15.7519C14.3232 15.7016 14.2129 15.6279 14.12 15.535L12 13.415L9.88 15.535C9.69161 15.7233 9.43635 15.8293 9.17 15.83C8.97234 15.829 8.77939 15.7695 8.61542 15.6591C8.45144 15.5488 8.32376 15.3924 8.24841 15.2096C8.17307 15.0269 8.15344 14.8259 8.19197 14.6321C8.23051 14.4382 8.3255 14.26 8.465 14.12L10.585 12L8.465 9.88C8.37209 9.78709 8.29839 9.67679 8.24811 9.55539C8.19783 9.434 8.17195 9.30389 8.17195 9.1725C8.17195 9.0411 8.19783 8.911 8.24811 8.7896C8.29839 8.66821 8.37209 8.55791 8.465 8.465C8.55791 8.37209 8.66821 8.29839 8.78961 8.24811C8.911 8.19782 9.04111 8.17194 9.1725 8.17194C9.3039 8.17194 9.43401 8.19782 9.5554 8.24811C9.67679 8.29839 9.78709 8.37209 9.88 8.465L12 10.585L14.12 8.465C14.2129 8.37209 14.3232 8.29839 14.4446 8.24811C14.566 8.19782 14.6961 8.17194 14.8275 8.17194C14.9589 8.17194 15.089 8.19782 15.2104 8.24811C15.3318 8.29839 15.4421 8.37209 15.535 8.465C15.6279 8.55791 15.7016 8.66821 15.7519 8.7896C15.8022 8.911 15.8281 9.0411 15.8281 9.1725C15.8281 9.30389 15.8022 9.434 15.7519 9.55539C15.7016 9.67679 15.6279 9.78709 15.535 9.88L13.415 12L15.535 14.12Z" fill="#F75D37"/>
</svg>
