<svg width="24" height="24" viewBox="0 0 24 24" fill="none" xmlns="http://www.w3.org/2000/svg">
<g clip-path="url(#clip0_2_1307)">
<path d="M12 3C7.03759 3 3 7.03759 3 12C3 16.9624 7.03759 21 12 21C16.9624 21 21 16.9624 21 12C21 7.03759 16.9624 3 12 3ZM17.0301 9.63158L11.2782 15.3383C10.9398 15.6767 10.3985 15.6992 10.0376 15.3609L6.99248 12.5865C6.63158 12.2481 6.60902 11.6842 6.92481 11.3233C7.26316 10.9624 7.82707 10.9398 8.18797 11.2782L10.6015 13.4887L15.7444 8.34586C16.1053 7.98496 16.6692 7.98496 17.0301 8.34586C17.391 8.70677 17.391 9.27068 17.0301 9.63158Z" fill="#F75D37"/>
</g>
<defs>
<clipPath id="clip0_2_1307">
<rect width="18" height="18" fill="white" transform="translate(3 3)"/>
</clipPath>
</defs>
</svg>
