<svg width="234" height="123" viewBox="0 0 234 123" fill="none" xmlns="http://www.w3.org/2000/svg">
<path d="M105.306 57.1767C104.979 53.9495 104.557 50.7415 104.067 47.572C103.577 44.4024 103.03 41.1272 102.367 37.9673C102.04 36.3825 100.6 30.0914 100.216 28.5259C99.4567 25.3851 98.6595 22.2636 97.8623 19.1325C97.8238 18.9972 97.8399 18.8523 97.9069 18.7287C97.974 18.6051 98.0868 18.5127 98.2212 18.4713C98.3555 18.4298 98.5008 18.4427 98.6258 18.507C98.7508 18.5714 98.8457 18.6821 98.89 18.8155C99.9576 21.892 100.868 25.0208 101.618 28.1897C102.002 29.7649 102.338 31.3593 102.655 32.9921C102.972 34.6248 103.241 36.1904 103.5 37.7944C104.019 41.0024 104.461 44.2295 104.778 47.4567C105.095 50.6839 105.316 53.9303 105.45 57.1767C105.45 57.1945 105.443 57.2116 105.43 57.2242C105.418 57.2368 105.401 57.2439 105.383 57.2439L105.306 57.1767Z" fill="#F7CD37"/>
<path d="M114.977 50.3573C115.093 48.2443 115.285 46.1216 115.554 44.0182C115.822 41.9148 116.197 39.8017 116.629 37.7175C117.048 35.6269 117.574 33.5592 118.204 31.5225C118.847 29.486 119.613 27.4909 120.5 25.5484C120.562 25.4196 120.673 25.3203 120.807 25.2719C120.942 25.2234 121.09 25.2296 121.22 25.2891C121.341 25.3422 121.438 25.4387 121.491 25.5596C121.545 25.6805 121.551 25.817 121.508 25.9422C120.875 27.9496 120.193 29.9377 119.588 31.9547C118.982 33.9717 118.329 35.9599 117.763 37.9865C117.196 40.013 116.716 42.0684 116.274 44.1335C115.832 46.1985 115.438 48.2827 115.131 50.3765C115.132 50.386 115.13 50.3955 115.126 50.4041C115.122 50.4127 115.116 50.4202 115.108 50.4259C115.1 50.4316 115.091 50.4354 115.082 50.4368C115.073 50.4382 115.063 50.4373 115.054 50.4341C115.034 50.4341 115.014 50.426 115 50.4116C114.985 50.3972 114.977 50.3777 114.977 50.3573Z" fill="#F7CD37"/>
<path d="M93.0022 50.7415C91.6787 47.3798 90.1387 44.1073 88.392 40.9447C87.5276 39.3696 86.5671 37.8424 85.6642 36.2961C84.7614 34.7497 83.7433 33.2418 82.8597 31.6954C82.8181 31.638 82.7881 31.573 82.7716 31.5041C82.7552 31.4351 82.7524 31.3636 82.7636 31.2936C82.7747 31.2236 82.7995 31.1564 82.8366 31.096C82.8737 31.0356 82.9223 30.9831 82.9797 30.9415C83.0371 30.8998 83.1022 30.8699 83.1711 30.8534C83.2401 30.8369 83.3116 30.8342 83.3816 30.8453C83.4516 30.8565 83.5187 30.8813 83.5791 30.9184C83.6396 30.9555 83.6921 31.0041 83.7337 31.0615C84.8904 32.4845 85.9463 33.9864 86.8936 35.5565C87.8359 37.1257 88.6796 38.752 89.4197 40.4261C90.9588 43.7357 92.2026 47.1747 93.1367 50.7031C93.1469 50.7152 93.1524 50.7305 93.1524 50.7463C93.1524 50.7621 93.1469 50.7774 93.1367 50.7895C93.1265 50.8011 93.1131 50.8093 93.0982 50.8132C93.0834 50.817 93.0677 50.8163 93.0532 50.8111C93.0387 50.806 93.0261 50.7966 93.017 50.7842C93.0079 50.7717 93.0028 50.7569 93.0022 50.7415Z" fill="#F7CD37"/>
<path d="M121.749 55.7937C122.618 53.0687 123.677 50.408 124.919 47.8314C126.17 45.2485 127.598 42.755 129.193 40.3686C129.999 39.1776 130.825 37.9962 131.709 36.8629C132.593 35.7295 133.524 34.625 134.504 33.5685C136.452 31.4555 138.59 29.5265 140.891 27.8056C140.947 27.7625 141.011 27.731 141.079 27.7129C141.147 27.6949 141.218 27.6906 141.288 27.7005C141.358 27.7103 141.425 27.7341 141.485 27.7703C141.546 27.8065 141.599 27.8544 141.64 27.9113C141.721 28.0197 141.759 28.1544 141.747 28.2892C141.734 28.424 141.673 28.5494 141.573 28.6412C139.489 30.5622 137.472 32.4831 135.561 34.5769C133.641 36.6403 131.833 38.8044 130.144 41.0601C128.46 43.3315 126.93 45.7123 125.562 48.1868C124.172 50.6647 122.946 53.2315 121.893 55.8705C121.887 55.8769 121.879 55.882 121.871 55.8855C121.863 55.8889 121.854 55.8907 121.845 55.8907C121.836 55.8907 121.827 55.8889 121.819 55.8855C121.811 55.882 121.803 55.8769 121.797 55.8705C121.781 55.866 121.767 55.8556 121.758 55.8414C121.749 55.8272 121.746 55.8102 121.749 55.7937Z" fill="#F7CD37"/>
<path d="M90.9272 62.8337C89.3797 60.5741 87.6823 58.4211 85.8463 56.389C84.0344 54.3362 82.0832 52.4107 80.0066 50.6262C77.9247 48.8786 75.7509 47.2435 73.4946 45.7278C71.2472 44.191 68.9132 42.8464 66.5313 41.4921C66.419 41.4213 66.3369 41.3115 66.3007 41.1839C66.2645 41.0562 66.2767 40.9196 66.3351 40.8005C66.3935 40.6813 66.4939 40.5879 66.617 40.5383C66.7401 40.4887 66.8772 40.4863 67.0019 40.5316C69.5482 41.6469 71.9881 42.9906 74.2918 44.5464C76.5986 46.0991 78.7676 47.8472 80.775 49.7713C82.7933 51.6688 84.6712 53.7104 86.3937 55.8799C88.1063 58.0464 89.6629 60.3316 91.052 62.7185C91.0655 62.7327 91.0731 62.7516 91.0731 62.7713C91.0731 62.7909 91.0655 62.8098 91.052 62.8241C91.052 62.8241 90.956 62.8625 90.9272 62.8337Z" fill="#F7CD37"/>
<path d="M150.668 16.0592L149.554 20.5062L152.589 23.935L148.018 24.252L145.693 28.1899L143.984 23.9446L139.508 22.9554L143.023 20.0067L142.591 15.4541L146.462 17.8841L150.668 16.0592Z" fill="#F7CD37"/>
<path d="M102.904 15.6748L96.9495 13.8404L92.0607 17.711L91.9551 11.4776L86.7686 8.02952L92.6658 6.00293L94.3467 0L98.0829 4.98483L104.316 4.72551L100.734 9.8256L102.904 15.6748Z" fill="#F7CD37"/>
<path d="M54.2093 31.4842L58.8196 32.7328L62.4693 29.6401L62.6998 34.4137L66.7626 36.9205L62.3061 38.6205L61.1727 43.2596L58.176 39.5426L53.4121 39.8979L56.0246 35.9024L54.2093 31.4842Z" fill="#F7CD37"/>
<path d="M143.071 43.8935C143.071 43.3046 143.246 42.7289 143.573 42.2393C143.9 41.7496 144.365 41.368 144.909 41.1427C145.453 40.9173 146.052 40.8583 146.63 40.9732C147.207 41.0881 147.738 41.3717 148.154 41.7881C148.571 42.2045 148.854 42.735 148.969 43.3126C149.084 43.8902 149.025 44.4888 148.8 45.0329C148.574 45.5769 148.193 46.042 147.703 46.3691C147.213 46.6963 146.638 46.8709 146.049 46.8709C145.259 46.8709 144.502 46.5572 143.943 45.9988C143.385 45.4405 143.071 44.6831 143.071 43.8935Z" fill="#F7CD37"/>
<path d="M68.4521 55.8128C68.4521 55.4025 68.5738 55.0013 68.8018 54.6602C69.0297 54.319 69.3538 54.0531 69.7328 53.8961C70.1119 53.7391 70.5291 53.698 70.9315 53.778C71.3339 53.8581 71.7036 54.0557 71.9937 54.3458C72.2839 54.6359 72.4815 55.0056 72.5615 55.408C72.6416 55.8105 72.6005 56.2276 72.4435 56.6067C72.2864 56.9858 72.0205 57.3098 71.6794 57.5378C71.3382 57.7657 70.9371 57.8874 70.5268 57.8874C69.9765 57.8874 69.4489 57.6688 69.0598 57.2797C68.6707 56.8907 68.4521 56.363 68.4521 55.8128Z" fill="#F7CD37"/>
<path d="M0 90.793C0 90.2041 0.174626 89.6285 0.501793 89.1388C0.82896 88.6492 1.29397 88.2676 1.83803 88.0422C2.38209 87.8168 2.98076 87.7579 3.55833 87.8728C4.1359 87.9876 4.66643 88.2712 5.08283 88.6876C5.49923 89.104 5.78281 89.6346 5.8977 90.2121C6.01258 90.7897 5.95362 91.3884 5.72826 91.9324C5.50291 92.4765 5.12128 92.9415 4.63164 93.2687C4.142 93.5958 3.56634 93.7705 2.97746 93.7705C2.58645 93.7705 2.19927 93.6934 1.83803 93.5438C1.47679 93.3942 1.14856 93.1749 0.872077 92.8984C0.595595 92.6219 0.376276 92.2937 0.226645 91.9324C0.077014 91.5712 0 91.184 0 90.793Z" fill="#F7CD37"/>
<path d="M171.348 42.616C171.348 42.2052 171.47 41.8038 171.698 41.4624C171.926 41.121 172.251 40.8551 172.631 40.6984C173.01 40.5416 173.428 40.5011 173.831 40.582C174.233 40.6628 174.603 40.8613 174.893 41.1524C175.182 41.4435 175.379 41.8141 175.458 42.2172C175.537 42.6202 175.495 43.0377 175.336 43.4166C175.178 43.7955 174.91 44.1188 174.568 44.3456C174.225 44.5724 173.823 44.6925 173.413 44.6906C173.141 44.6906 172.871 44.6369 172.62 44.5325C172.369 44.4281 172.141 44.2751 171.949 44.0824C171.757 43.8896 171.605 43.6608 171.502 43.4092C171.399 43.1575 171.346 42.888 171.348 42.616Z" fill="#F7CD37"/>
<path d="M126.445 93.5496C126.445 93.1388 126.567 92.7374 126.796 92.396C127.024 92.0546 127.349 91.7887 127.728 91.632C128.108 91.4752 128.526 91.4347 128.928 91.5155C129.331 91.5964 129.701 91.7949 129.99 92.086C130.28 92.3771 130.477 92.7477 130.556 93.1507C130.635 93.5538 130.592 93.9713 130.434 94.3502C130.275 94.7291 130.008 95.0524 129.666 95.2792C129.323 95.506 128.921 95.6261 128.51 95.6242C128.238 95.6242 127.969 95.5704 127.718 95.4661C127.467 95.3617 127.239 95.2087 127.047 95.016C126.855 94.8232 126.703 94.5944 126.6 94.3428C126.497 94.0911 126.444 93.8216 126.445 93.5496Z" fill="#F7CD37"/>
<path d="M8.07754 51.347C9.22332 51.347 10.1522 50.4181 10.1522 49.2724C10.1522 48.1266 9.22332 47.1978 8.07754 47.1978C6.93177 47.1978 6.00293 48.1266 6.00293 49.2724C6.00293 50.4181 6.93177 51.347 8.07754 51.347Z" fill="#F7CD37"/>
<path d="M229.619 95.7876C229.619 95.3769 229.741 94.9754 229.97 94.634C230.198 94.2926 230.523 94.0267 230.902 93.87C231.282 93.7133 231.699 93.6728 232.102 93.7536C232.505 93.8344 232.874 94.033 233.164 94.3241C233.454 94.6152 233.651 94.9857 233.73 95.3888C233.809 95.7919 233.766 96.2093 233.608 96.5882C233.449 96.9671 233.182 97.2904 232.839 97.5173C232.497 97.7441 232.095 97.8641 231.684 97.8622C231.136 97.8597 230.611 97.64 230.224 97.2512C229.837 96.8624 229.619 96.3362 229.619 95.7876Z" fill="#F7CD37"/>
<path d="M151.226 108.552C152.372 108.552 153.3 107.623 153.3 106.478C153.3 105.332 152.372 104.403 151.226 104.403C150.08 104.403 149.151 105.332 149.151 106.478C149.151 107.623 150.08 108.552 151.226 108.552Z" fill="#F7CD37"/>
<path d="M203.976 104.547C203.976 104.137 204.097 103.736 204.325 103.394C204.553 103.053 204.877 102.787 205.256 102.63C205.635 102.473 206.052 102.432 206.455 102.512C206.857 102.592 207.227 102.79 207.517 103.08C207.807 103.37 208.005 103.74 208.085 104.142C208.165 104.545 208.124 104.962 207.967 105.341C207.81 105.72 207.544 106.044 207.203 106.272C206.862 106.5 206.461 106.622 206.05 106.622C205.5 106.622 204.972 106.403 204.583 106.014C204.194 105.625 203.976 105.097 203.976 104.547Z" fill="#F7CD37"/>
<path d="M22.3988 105.508C23.5446 105.508 24.4734 104.579 24.4734 103.433C24.4734 102.287 23.5446 101.358 22.3988 101.358C21.2531 101.358 20.3242 102.287 20.3242 103.433C20.3242 104.579 21.2531 105.508 22.3988 105.508Z" fill="#F7CD37"/>
<path d="M222.474 51.6924C223.62 51.6924 224.549 50.7636 224.549 49.6178C224.549 48.472 223.62 47.5432 222.474 47.5432C221.328 47.5432 220.399 48.472 220.399 49.6178C220.399 50.7636 221.328 51.6924 222.474 51.6924Z" fill="#F7CD37"/>
<path d="M44.5945 53.3349C44.5945 52.746 44.7691 52.1703 45.0963 51.6807C45.4235 51.1911 45.8885 50.8094 46.4325 50.5841C46.9766 50.3587 47.5752 50.2997 48.1528 50.4146C48.7304 50.5295 49.2609 50.8131 49.6773 51.2295C50.0937 51.6459 50.3773 52.1764 50.4922 52.754C50.6071 53.3316 50.5481 53.9302 50.3228 54.4743C50.0974 55.0184 49.7158 55.4834 49.2261 55.8105C48.7365 56.1377 48.1608 56.3123 47.5719 56.3123C47.1806 56.3136 46.7928 56.2374 46.431 56.0883C46.0692 55.9391 45.7405 55.7198 45.4637 55.4431C45.187 55.1663 44.9677 54.8376 44.8186 54.4758C44.6694 54.114 44.5932 53.7262 44.5945 53.3349Z" fill="#F7CD37"/>
<path d="M94.1648 100.83C94.1648 100.241 94.3394 99.6656 94.6666 99.1759C94.9938 98.6863 95.4588 98.3047 96.0028 98.0793C96.5469 97.854 97.1455 97.795 97.7231 97.9099C98.3007 98.0248 98.8312 98.3083 99.2476 98.7247C99.664 99.1411 99.9476 99.6717 100.062 100.249C100.177 100.827 100.118 101.425 99.893 101.97C99.6677 102.514 99.2861 102.979 98.7964 103.306C98.3068 103.633 97.7311 103.808 97.1422 103.808C96.3526 103.808 95.5952 103.494 95.0369 102.935C94.4785 102.377 94.1648 101.62 94.1648 100.83Z" fill="#F7CD37"/>
<path d="M199.836 48.4077L200.047 52.0287L203.15 53.9112L199.769 55.227L198.933 58.752L196.638 55.9474L193.026 56.2451L194.986 53.2005L193.583 49.858L197.089 50.7801L199.836 48.4077Z" fill="#F7CD37"/>
<path d="M48.5802 94.5388L48.7915 98.1598L51.8938 100.042L48.513 101.358L47.6774 104.883L45.3819 102.078L41.7705 102.376L43.7299 99.322L42.3372 95.9795L45.8333 96.9016L48.5802 94.5388Z" fill="#F7CD37"/>
<path d="M176.649 92.4451L179.069 95.144L182.671 94.683L180.846 97.8237L182.402 101.099L178.858 100.34L176.226 102.828L175.852 99.2164L172.663 97.4779L175.986 96.018L176.649 92.4451Z" fill="#F7CD37"/>
<path d="M72.4961 116.928C72.4961 116.517 72.6178 116.116 72.8457 115.775C73.0737 115.434 73.3977 115.168 73.7768 115.011C74.1559 114.854 74.573 114.813 74.9754 114.893C75.3779 114.973 75.7475 115.171 76.0377 115.461C76.3278 115.751 76.5254 116.12 76.6055 116.523C76.6855 116.925 76.6444 117.342 76.4874 117.722C76.3304 118.101 76.0645 118.425 75.7233 118.653C75.3821 118.881 74.981 119.002 74.5707 119.002C74.0205 119.002 73.4928 118.784 73.1037 118.395C72.7147 118.006 72.4961 117.478 72.4961 116.928Z" fill="#F7CD37"/>
<path d="M112.567 112.461L114.987 115.16L118.58 114.69L116.764 117.83L118.311 121.106L114.766 120.347L112.135 122.834L111.76 119.223L108.581 117.485L111.895 116.025L112.567 112.461Z" fill="#F7CD37"/>
<path d="M229.11 80.6891C228.717 80.8716 227.804 81.2846 227.708 82.197C227.678 82.5323 227.747 82.869 227.905 83.1659C228.064 83.4628 228.306 83.7069 228.601 83.8682C229.065 84.0856 229.595 84.1165 230.08 83.9547C230.607 83.9081 231.096 83.6605 231.444 83.2631C231.716 82.8756 231.844 82.405 231.806 81.9331C231.767 81.4611 231.564 81.0176 231.233 80.6795C230.503 80.0552 229.495 80.5162 229.11 80.6891Z" fill="#F75D37"/>
<path d="M231.732 55.8032C231.38 55.5781 230.984 55.4294 230.571 55.3665C230.157 55.3037 229.735 55.3281 229.331 55.4382C229.074 55.4796 228.828 55.5745 228.61 55.7167C228.391 55.859 228.205 56.0455 228.063 56.2642C227.937 56.7203 227.895 57.1954 227.939 57.6665C227.939 58.1948 227.939 58.4637 227.939 58.9535C228.015 59.9908 228.621 73.2261 228.669 76.8951C228.669 77.2505 228.669 78.2013 229.312 78.6047C229.532 78.739 229.785 78.8089 230.042 78.8064C230.424 78.8116 230.793 78.6746 231.079 78.4222C231.228 78.2595 231.342 78.0683 231.414 77.8603C231.487 77.6524 231.517 77.4318 231.502 77.2121C231.502 73.6007 231.781 69.9413 232.069 66.3972C232.261 64.1305 232.453 61.7965 232.558 59.4914V59.3761C232.693 58.0507 232.693 56.5428 231.732 55.8032Z" fill="#F75D37"/>
<path d="M222.435 79.7095C220.783 78.2592 219.073 76.7609 218.458 74.1868C218.185 73.237 218.235 72.2232 218.602 71.3054C219.332 69.6822 221.349 68.424 222.444 68.9042C223.216 69.2062 223.852 69.7801 224.231 70.5178C224.289 70.638 224.391 70.7311 224.517 70.7776C224.642 70.8241 224.78 70.8205 224.903 70.7675C225.04 70.7193 225.154 70.6218 225.224 70.494C225.293 70.3662 225.312 70.2172 225.278 70.076C225.157 69.4449 224.912 68.8443 224.556 68.3098C224.199 67.7753 223.739 67.3177 223.203 66.9641C221.282 65.9076 218.324 66.5607 216.48 68.4432C215.238 69.8919 214.602 71.7629 214.703 73.6682C214.688 73.8888 214.688 74.1102 214.703 74.3309C214.909 75.7646 215.541 77.1031 216.518 78.1728C216.633 78.3072 216.768 78.4417 216.893 78.5762C215.876 80.0521 214.501 81.2452 212.897 82.0434C212.436 82.2451 212.196 82.2836 211.994 82.1971C211.255 81.8802 211.399 79.9592 211.629 76.7801C211.629 76.2806 211.706 75.7332 211.754 75.1665C212.158 69.202 212.004 67.4827 210.986 66.8873C210.647 66.7422 210.283 66.6674 209.915 66.6674C209.547 66.6674 209.182 66.7422 208.844 66.8873C207.432 67.2907 206.126 68.5393 203.36 73.8026C203.36 73.649 203.36 73.5145 203.36 73.3512C203.36 73.1879 203.36 72.9382 203.36 72.7077C203.504 69.7398 203.571 67.0601 202.687 66.8488C202.391 66.8129 202.091 66.8129 201.794 66.8488C201.354 66.8441 200.918 66.9359 200.517 67.1178C199.892 67.5212 199.95 68.4816 199.969 68.8082C200.046 70.1432 199.969 71.4975 199.969 72.8133C199.969 72.9766 199.969 73.1495 199.969 73.3128C199.688 73.4766 199.392 73.6148 199.086 73.7258C198.639 73.8957 198.175 74.0149 197.702 74.0812C197.136 70.0952 195.071 67.0601 192.65 66.6856C192.008 66.5653 191.348 66.5773 190.711 66.721C190.073 66.8647 189.472 67.137 188.943 67.5212L188.146 68.4816C187.046 68.8819 186.063 69.5513 185.288 70.4287C184.513 71.3061 183.97 72.3637 183.708 73.5049C183.197 75.2931 183.164 77.1841 183.612 78.9892C183.045 79.7034 182.426 80.3744 181.759 80.9965C180.347 82.274 179.915 82.2547 179.838 82.2067C179.55 82.0915 179.252 81.5824 179.309 78.5954C179.309 76.8761 179.463 75.714 179.607 74.2733C179.655 73.8122 179.703 73.3128 179.751 72.7941C180.222 67.7613 179.857 67.1178 179.377 66.8392C178.955 66.6851 178.496 66.6623 178.06 66.7737C177.625 66.8851 177.233 67.1256 176.937 67.4635C176.552 67.9104 176.334 68.4776 176.322 69.0675C176.092 71.9489 176.025 74.571 176.005 76.2614C175.264 77.3805 174.379 78.3977 173.374 79.2869C172.413 80.1225 170.684 81.6689 169.724 81.2078C168.975 80.8237 168.975 79.2869 168.975 78.6626C168.975 74.1772 169.032 70.6811 169.09 67.9822L170.31 67.9246C173.489 67.7613 174.45 67.7133 174.882 66.8873C175.055 66.5673 175.123 66.2005 175.074 65.8398C175.026 65.479 174.864 65.1429 174.613 64.8799C174.142 64.5149 173.46 64.7454 172.692 64.9855L172.394 65.0912C171.311 65.4252 170.207 65.6883 169.09 65.8788C169.215 61.4606 169.349 59.9046 169.349 59.8854C169.417 59.2131 169.484 57.6283 168.783 57.3402C168.543 57.2441 168.178 57.3402 167.361 57.5707C167.05 57.6336 166.749 57.7404 166.468 57.8877C166.219 58.1363 166.029 58.4386 165.915 58.7715C165.8 59.1044 165.762 59.4591 165.805 59.8086C165.805 60.9708 165.757 63.7081 165.69 66.3878C164.941 66.4646 164.336 66.5031 163.971 66.5127C163.606 66.5223 163.01 66.5127 162.799 66.9353C162.758 67.0291 162.736 67.1305 162.736 67.233C162.736 67.3355 162.758 67.4369 162.799 67.5308C162.991 68.0302 163.865 68.1743 165.181 68.1743H165.632C165.632 68.789 165.392 74.0139 165.373 75.5699C165.373 76.2806 165.373 77.3371 165.373 78.6338C164.97 78.9603 164.557 79.2869 164.144 79.5942C161.877 81.2847 161.32 81.3615 161.08 81.2463C160.494 80.9581 160.59 79.5462 160.676 78.2784C161.147 71.3246 161.368 67.3675 160.225 66.9545C159.777 66.8735 159.316 66.8998 158.88 67.0313C158.5 67.0841 158.14 67.2328 157.833 67.4635C157.638 67.6677 157.508 67.925 157.459 68.2031C156.568 67.4109 155.454 66.9143 154.27 66.7816H153.934C151.283 66.7816 149.497 68.7986 148.901 69.4709C147.84 70.7931 147.08 72.3299 146.672 73.975C146.264 75.6201 146.218 77.3343 146.538 78.9988C146.538 79.114 146.586 79.2293 146.615 79.3445C143.993 82.2259 142.946 82.5621 142.524 82.3316C142.437 82.2836 142.235 82.1779 142.082 80.5643C141.943 79.1783 141.943 77.7819 142.082 76.3959C144.459 73.2072 146.2 69.5909 147.211 65.7443C148.565 60.4425 147.576 58.0605 146.865 57.1001C146.448 56.4946 145.844 56.0425 145.146 55.8131C143.58 55.3616 142.034 56.4854 141.525 56.86C140.065 57.9261 138.643 60.3176 138.643 76.5208C138.643 77.1547 138.643 77.9038 138.643 78.6722C138.014 79.4822 137.323 80.2432 136.578 80.9485C136.319 81.1886 135.781 81.6977 135.426 81.5632C135.07 81.4287 134.974 80.2282 134.974 79.844C134.974 78.7586 135.051 77.0874 135.138 75.3202C135.324 72.7087 135.36 70.0887 135.243 67.4731C135.223 67.1347 135.072 66.8175 134.821 66.5895C134.643 66.4727 134.442 66.3944 134.232 66.3597C134.022 66.325 133.807 66.3345 133.601 66.3878C133.28 66.4427 132.974 66.5643 132.702 66.7446C132.431 66.9249 132.201 67.16 132.026 67.4347C131.836 67.8285 131.772 68.2712 131.843 68.7025C131.843 69.2308 131.843 71.6704 131.843 76.5688C131.843 77.1162 131.843 77.5292 131.843 77.8078C131.185 78.7358 130.399 79.5667 129.509 80.2762C128.904 80.7468 127.05 82.1971 126.282 81.6785C125.879 81.3999 125.907 80.3146 125.994 78.1151C126.138 74.7535 126.244 71.0653 126.378 68.741C126.378 68.059 126.493 66.9065 125.85 66.5511C125.206 66.1957 124.505 66.6567 124.092 67.0025C123.615 67.4429 123.3 68.0319 123.199 68.6737C122.867 70.8479 122.696 73.0439 122.69 75.2433C122.69 75.6467 122.69 76.0597 122.69 76.4727C121.988 77.4761 121.173 78.3947 120.26 79.2101C119.299 80.0457 117.561 81.592 116.601 81.131C115.851 80.7468 115.851 79.2101 115.851 78.5858C115.851 74.1004 115.919 70.6043 115.967 67.9053L117.186 67.8477C120.366 67.6844 121.326 67.6364 121.768 66.8104C121.94 66.4895 122.006 66.1221 121.956 65.7613C121.906 65.4005 121.742 65.065 121.489 64.803C121.019 64.4381 120.337 64.6686 119.568 64.9087L119.271 65.0143C118.191 65.3484 117.09 65.6115 115.976 65.8019C116.091 61.3838 116.226 59.8278 116.236 59.8086C116.293 59.1363 116.36 57.5515 115.659 57.2634C115.419 57.1673 115.054 57.2634 114.247 57.4939C113.933 57.5555 113.629 57.6623 113.345 57.8108C113.096 58.0599 112.907 58.3623 112.792 58.695C112.677 59.0278 112.64 59.3823 112.682 59.7318C112.682 60.8939 112.682 63.6313 112.567 66.311C111.827 66.3878 111.212 66.4262 110.857 66.4358C110.502 66.4454 109.896 66.4358 109.676 66.8584C109.636 66.9528 109.616 67.054 109.616 67.1562C109.616 67.2584 109.636 67.3595 109.676 67.4539C109.868 67.9534 110.742 68.0974 112.057 68.0974H112.509C112.509 69.0579 112.374 72.3427 112.336 73.0823C112.336 74.2925 112.173 76.4631 112.278 78.5569C111.875 78.8835 111.462 79.2101 111.049 79.5174C108.782 81.2078 108.225 81.2847 107.985 81.1694C107.399 80.8813 107.495 79.4694 107.582 78.2016C108.062 71.2478 108.273 67.2906 107.13 66.8776C106.682 66.7967 106.221 66.823 105.786 66.9545C105.405 67.0051 105.044 67.1541 104.739 67.3867C104.544 67.5909 104.413 67.8482 104.364 68.1263C103.446 67.3492 102.307 66.879 101.108 66.7816C98.2267 66.5991 96.3058 68.7025 95.7199 69.4613C94.6611 70.7844 93.9015 72.3213 93.4937 73.9661C93.0858 75.6109 93.0392 77.3246 93.3571 78.9892C93.3571 79.1813 93.434 79.3733 93.482 79.5558C91.4458 81.9666 90.7255 82.2067 90.4661 82.0723C90.2068 81.9378 90.2837 81.1118 90.4661 78.5185V78.1535C90.8023 73.7354 90.8599 72.5636 90.1204 72.1602C89.9695 72.0918 89.8058 72.0564 89.6401 72.0564C89.4745 72.0564 89.3108 72.0918 89.1599 72.1602C88.6926 72.2917 88.2131 72.3754 87.7288 72.4099C86.9897 72.4613 86.2471 72.4161 85.5197 72.2755C86.2593 71.315 87.6424 69.1155 87.1429 67.6652C87.0895 67.5098 87.0117 67.3639 86.9124 67.233C86.1536 66.2726 84.1463 66.2726 82.9361 67.233C82.4956 67.6017 82.1637 68.083 81.9756 68.6257C81.7152 69.3162 81.623 70.0587 81.7065 70.7919C81.79 71.5251 82.0469 72.2279 82.4558 72.8422C82.6416 73.1065 82.8576 73.3482 83.0993 73.5625C81.8603 75.1569 80.6405 76.7321 79.4976 78.2496C79.6417 75.5507 79.8145 72.3523 80.0162 68.6449C80.0162 68.2703 80.1027 67.1082 79.5072 66.8104C79.2973 66.7477 79.0736 66.7477 78.8637 66.8104C78.2651 66.8197 77.6908 67.0487 77.2501 67.4539C77.035 67.7275 76.9198 68.0664 76.9235 68.4144C75.9995 67.5071 74.8 66.9327 73.5139 66.7816C70.6325 66.5895 68.7115 68.789 68.116 69.5189C67.0481 70.8804 66.2853 72.4554 65.8793 74.1374C65.4733 75.8194 65.4336 77.569 65.7629 79.2677L65.8205 79.527C64.9459 80.5526 63.8662 81.3836 62.651 81.9666C62.1899 82.1683 61.9594 82.2163 61.7481 82.1203C61.0182 81.8033 61.1622 79.892 61.3928 76.7128C61.3928 76.2038 61.4696 75.6659 61.508 75.0897C61.9114 69.1251 61.7577 67.4059 60.7396 66.8104C60.4012 66.6654 60.0369 66.5906 59.6687 66.5906C59.3005 66.5906 58.9362 66.6654 58.5978 66.8104C57.1859 67.2138 55.8797 68.4624 53.1135 73.7258C53.1135 73.4761 53.1135 73.0919 53.1135 72.6309C53.296 67.3099 52.7101 66.868 52.4508 66.772C52.1509 66.736 51.8478 66.736 51.548 66.772C51.1078 66.7688 50.6721 66.8606 50.2705 67.0409C49.6558 67.4443 49.7038 68.4048 49.7231 68.7314C49.7999 70.0568 49.7231 71.4207 49.7231 72.7269C49.7231 72.8806 49.7231 73.0439 49.7231 73.2071C49.7231 73.3704 49.5118 73.3416 49.3965 73.3896C48.7865 73.6711 48.1398 73.8651 47.4756 73.9659C47.2484 72.1677 46.618 70.444 45.6315 68.9234C44.909 67.7554 43.7572 66.9174 42.4235 66.5895C41.7723 66.4515 41.0989 66.4574 40.4503 66.6067C39.8016 66.756 39.1934 67.0451 38.6681 67.4539C38.356 67.725 38.0957 68.0504 37.8997 68.4144C36.7726 68.8075 35.7641 69.481 34.9693 70.3716C34.1745 71.2622 33.6195 72.3405 33.3567 73.5049C33.0935 74.4429 32.9578 75.4121 32.9533 76.3863C31.1977 78.8156 28.5976 80.501 25.6633 81.1118C21.9271 81.8321 19.5259 80.8621 18.1621 79.9208C13.0428 76.3959 13.7343 67.6268 16.2411 62.6324C17.638 59.9536 19.8331 57.7753 22.5226 56.3989C23.4831 55.9283 25.9034 54.939 27.5362 55.9859C29.0154 56.9464 30.0719 59.5205 29.1594 61.0764C29.0506 61.2486 28.9782 61.4414 28.9468 61.6427C28.9155 61.844 28.9258 62.0496 28.9771 62.2468C29.0284 62.444 29.1197 62.6286 29.2452 62.789C29.3707 62.9495 29.5279 63.0825 29.7069 63.1798C29.8703 63.2929 30.0554 63.3709 30.2504 63.4089C30.4455 63.447 30.6463 63.4442 30.8402 63.4009C31.0342 63.3576 31.2171 63.2747 31.3774 63.1573C31.5377 63.0399 31.672 62.8906 31.7719 62.7188C33.0301 60.721 33.3567 58.8769 32.7324 57.3114C32.4435 56.5852 32.0012 55.9299 31.4357 55.3904C30.0045 54.0678 28.1398 53.3131 26.1916 53.2678C23.9302 53.1609 21.6878 53.7257 19.7468 54.891C16.8795 56.5619 14.5082 58.9653 12.8761 61.8548C11.244 64.7443 10.4098 68.016 10.4591 71.3342C10.6608 76.9434 12.6682 81.1694 16.1259 83.2056C17.7509 84.1534 19.6043 84.6384 21.4853 84.6079C22.0925 84.608 22.6991 84.5663 23.3006 84.483C27.9973 83.8683 31.234 80.7372 33.1358 78.2112C33.3686 79.7889 34.0335 81.2715 35.0567 82.4949C35.618 83.1163 36.3066 83.6096 37.0756 83.9411C37.8446 84.2726 38.6761 84.4345 39.5133 84.4158C40.9551 84.4088 42.3637 83.9816 43.5664 83.1864C44.737 82.3323 45.7023 81.2278 46.3918 79.9534C47.0814 78.679 47.4779 77.2667 47.5524 75.8196C48.3084 75.6665 49.0391 75.4078 49.7231 75.0512C49.7231 75.1281 49.7231 75.2049 49.7231 75.2817C49.7231 76.684 49.7711 78.1632 49.8191 79.4886C49.8191 80.6892 49.8959 81.9282 49.9055 83.148C49.8841 83.3509 49.9113 83.556 49.9848 83.7464C50.0583 83.9368 50.1759 84.107 50.3282 84.2429C50.5025 84.346 50.7019 84.3992 50.9044 84.3966C51.329 84.3717 51.744 84.2606 52.1242 84.07C53.3056 83.4169 53.248 81.8706 53.0847 79.0564C53.0847 78.4225 53.0847 77.7021 53.0175 76.9434C53.9779 75.4162 55.0537 73.9083 56.1294 72.4484C56.8978 71.4015 57.6181 70.4602 57.9255 70.4602C58.2328 70.4602 58.1272 71.6416 57.9927 73.1303C57.8582 74.619 57.6853 76.4439 57.6661 78.8931C57.6661 81.6593 57.839 83.3017 59.0012 84.0989C59.4934 84.4133 60.0695 84.5707 60.6532 84.5503H60.7781C62.8911 84.5503 64.86 82.9367 66.2815 81.3711C66.7005 82.5053 67.4843 83.4681 68.5098 84.1085C69.2324 84.4751 70.0336 84.6598 70.8438 84.6463C71.5484 84.6492 72.2478 84.5256 72.9088 84.2813C74.4839 83.7051 75.3099 82.5621 76.2704 81.2367C76.3665 81.1118 76.4433 80.9677 76.5297 80.8429L76.4721 82.3988C73.5907 86.3079 71.2376 89.6984 69.6912 92.1764C68.9036 93.425 67.2708 96.0183 68.1064 98.6019C68.4323 99.5178 68.9879 100.335 69.72 100.974C70.5569 101.725 71.6508 102.124 72.7743 102.088C73.9065 102.095 75.0145 101.761 75.9535 101.128C76.4829 100.739 76.9301 100.25 77.2693 99.6873C78.171 98.2123 78.6495 96.5176 78.6524 94.7889C78.8627 93.0487 78.9686 91.2975 78.9693 89.5447C78.9693 88.7571 79.075 86.0294 79.3343 81.0926C80.8711 78.8451 82.4558 76.6072 84.0502 74.3693C85.1944 74.9521 86.5086 75.1087 87.7576 74.8111C87.5943 76.6168 87.4311 78.5185 87.2774 80.4491C87.1813 81.6401 87.0757 83.1096 87.9209 83.7243C88.339 83.9714 88.8096 84.1162 89.2944 84.1469C89.2944 84.1469 90.3605 84.0796 90.5718 84.0412C91.7628 83.8395 93.6933 81.5728 93.7702 81.4768L93.9526 81.2559C94.3788 82.3131 95.1373 83.2031 96.1137 83.7915C96.8363 84.1582 97.6375 84.3428 98.4476 84.3294C99.1518 84.3275 99.8504 84.204 100.513 83.9644C101.92 83.3478 103.097 82.3024 103.874 80.9773L104.057 80.6988C104.057 82.5621 104.172 83.7051 105.017 84.2141C105.294 84.3743 105.61 84.4541 105.93 84.4446C106.419 84.4221 106.901 84.3249 107.361 84.1565C108.801 83.6955 109.627 82.831 111.203 81.1214L112.221 80.0553C112.295 80.8241 112.446 81.5835 112.672 82.322C112.845 82.9262 113.222 83.4521 113.738 83.8107C114.139 84.0487 114.598 84.1686 115.064 84.1565C115.648 84.1349 116.225 84.0215 116.773 83.8203C118.308 83.231 119.652 82.2349 120.663 80.9389C121.259 80.2762 121.835 79.575 122.383 78.8643C122.383 80.7084 122.469 82.5045 123.084 83.3017C123.21 83.4624 123.355 83.6076 123.516 83.7339H123.602C124.193 83.9521 124.817 84.0658 125.446 84.07H125.955C128.049 83.8587 129.404 82.37 130.844 80.7948C131.113 80.4971 131.373 80.1897 131.632 79.8344C131.632 82.5717 131.834 83.3785 132.496 83.8011C132.879 84.0251 133.324 84.1195 133.764 84.07C133.983 84.0664 134.201 84.0504 134.417 84.022C135.479 83.8235 136.439 83.2635 137.135 82.4372C137.721 81.8514 138.297 81.2078 138.855 80.5163C139.104 82.0915 139.623 83.4938 140.775 83.9932C141.078 84.1253 141.406 84.1908 141.736 84.1853H141.822C144.003 84.1853 145.885 82.2644 147.028 80.6796C147.432 81.926 148.266 82.9881 149.381 83.6762C150.103 84.044 150.905 84.2287 151.715 84.2141C152.419 84.2122 153.118 84.0887 153.78 83.8491C155.185 83.232 156.358 82.1865 157.132 80.8621C157.2 80.7756 157.257 80.6796 157.324 80.5835C157.372 82.4468 157.43 83.5898 158.285 84.0989C158.561 84.26 158.878 84.3399 159.197 84.3294C159.683 84.3058 160.162 84.2087 160.619 84.0412C162.069 83.5802 162.885 82.7158 164.518 81.0061L165.536 79.94C165.611 80.7088 165.762 81.4682 165.988 82.2067C166.161 82.811 166.538 83.3369 167.054 83.6955C167.44 83.9376 167.885 84.0673 168.341 84.07C168.925 84.0485 169.502 83.9351 170.051 83.7339C171.583 83.142 172.928 82.1463 173.94 80.8525C174.632 80.0841 175.304 79.2581 175.938 78.4129C175.938 78.8835 175.938 79.3157 175.938 79.7191C175.938 82.1683 175.996 83.2825 176.899 83.8107C177.292 84.0178 177.732 84.1172 178.176 84.0989C178.528 84.0954 178.879 84.0568 179.223 83.9836C179.993 83.8037 180.711 83.4451 181.317 82.9367C182.315 82.1312 183.203 81.198 183.958 80.1609C184.281 80.9835 184.738 81.7463 185.312 82.418C185.869 83.0405 186.554 83.5347 187.32 83.8664C188.086 84.1981 188.915 84.3593 189.75 84.339C191.185 84.3294 192.587 83.9022 193.784 83.1096C194.952 82.256 195.915 81.1527 196.603 79.88C197.291 78.6073 197.686 77.1972 197.76 75.7524C198.527 75.597 199.268 75.3318 199.96 74.9648C199.96 75.0608 199.96 75.1473 199.96 75.2337C199.96 76.636 199.96 78.0575 200.046 79.4406C200.046 80.6412 200.123 81.8802 200.132 83.1C200.113 83.3036 200.142 83.509 200.217 83.6993C200.292 83.8896 200.411 84.0594 200.565 84.1949C200.738 84.3004 200.938 84.3538 201.141 84.3486C201.595 84.3177 202.037 84.1899 202.438 83.974C203.609 83.3209 203.552 81.7745 203.398 78.9603C203.398 78.3264 203.34 77.6061 203.331 76.8473C204.291 75.3202 205.357 73.8122 206.433 72.3523C207.211 71.3054 207.931 70.3642 208.229 70.3642C208.527 70.3642 208.441 71.5455 208.306 73.0343C208.172 74.523 207.999 76.3479 207.97 78.7971C207.97 81.5632 208.143 83.2056 209.315 84.0028C209.807 84.3172 210.383 84.4747 210.967 84.4542H211.082C214.03 84.4542 216.672 81.3711 217.988 79.5558C218.372 79.9112 218.756 80.2666 219.15 80.6124C220.5 81.7068 221.698 82.9762 222.713 84.387C223.28 85.4806 223.509 86.7179 223.373 87.9421C223.236 89.1663 222.739 90.3224 221.945 91.2639C220.984 92.3287 219.671 93.0108 218.247 93.1849C217.537 93.3475 216.802 93.3649 216.086 93.2362C215.37 93.1075 214.687 92.8352 214.078 92.4357C213.55 92.0412 213.115 91.5365 212.801 90.9566C213.354 90.9038 213.886 90.7229 214.357 90.4283C214.987 90.0592 215.484 89.4994 215.776 88.8296C216.068 88.1599 216.139 87.4147 215.98 86.7017C215.865 86.3592 215.672 86.0477 215.417 85.7913C215.163 85.5349 214.852 85.3403 214.511 85.2226C214.153 85.1552 213.785 85.1676 213.434 85.259C213.081 85.3503 212.754 85.5183 212.475 85.7509C210.88 86.9034 210.957 89.2854 211.015 89.9001C210.555 89.9569 210.088 89.9243 209.641 89.804C209.439 89.753 209.24 89.6888 209.046 89.6119C208.633 89.4583 208.277 89.3238 208.018 89.5351C207.967 89.5742 207.924 89.6233 207.893 89.6795C207.861 89.7356 207.842 89.7976 207.835 89.8617C207.835 90.5244 209.449 90.9662 209.641 91.0142C210.181 91.1477 210.739 91.1899 211.293 91.1391C211.411 91.3851 211.546 91.6226 211.697 91.8498C212.118 92.4694 212.63 93.0229 213.214 93.4922C214.562 94.4842 216.189 95.0223 217.863 95.029C219.755 95.0203 221.589 94.374 223.068 93.1945C224.646 91.941 225.748 90.1854 226.19 88.2193C226.388 87.2712 226.414 86.2952 226.267 85.3379C225.844 82.687 224.115 81.1886 222.435 79.7095ZM39.7534 81.0926C38.4376 81.2174 37.3234 80.4491 36.5454 78.8451C35.8802 77.5867 35.5984 76.1609 35.7349 74.744C35.8715 73.3271 36.4204 71.9814 37.3138 70.8732C37.289 71.5198 37.3973 72.1646 37.6319 72.7676C37.8665 73.3706 38.2224 73.9191 38.6777 74.3789C39.9263 75.6467 42.0681 76.2998 44.719 76.2038C44.0467 78.3841 41.9144 80.8717 39.7534 81.0926ZM40.5122 72.9382C39.9551 72.3715 39.0619 71.2766 39.398 70.3161C39.5361 69.9796 39.7545 69.6819 40.0341 69.4492C40.3137 69.2165 40.646 69.0558 41.002 68.9811C41.2282 68.9244 41.4604 68.8954 41.6935 68.8946C42.25 68.8812 42.7914 69.0765 43.2111 69.4421C43.8079 70.0989 44.2688 70.8673 44.5671 71.7031C44.8655 72.5389 44.9955 73.4254 44.9495 74.3117C44.154 74.4618 43.3338 74.4152 42.5603 74.1758C41.7869 73.9364 41.0838 73.5115 40.5122 72.9382ZM76.693 78.605C76.023 79.7642 74.9703 80.6539 73.7156 81.1214C73.0799 81.3892 72.3721 81.4332 71.7082 81.2463C69.7873 80.6027 69.3742 77.6925 69.2782 76.8185C68.942 73.7834 70.3155 69.1348 73.2161 68.8082C73.9257 68.8018 74.6281 68.9497 75.2749 69.2416C75.9217 69.5335 76.4973 69.9624 76.962 70.4986C76.9139 72.3139 76.8179 75.2049 76.693 78.605ZM189.654 70.3065C189.792 69.965 190.013 69.6628 190.296 69.4266C190.579 69.1905 190.916 69.0276 191.277 68.9523C191.506 68.8948 191.742 68.8658 191.978 68.8658C192.542 68.853 193.09 69.0517 193.515 69.4229C194.118 70.0854 194.582 70.8618 194.88 71.7062C195.179 72.5507 195.306 73.4463 195.253 74.3405C194.451 74.4943 193.623 74.4487 192.843 74.2075C192.062 73.9663 191.353 73.537 190.777 72.9574C190.211 72.3907 189.308 71.2766 189.654 70.3065ZM195.004 76.1654C194.379 78.3649 192.218 80.9005 190.038 81.1214C188.712 81.2559 187.589 80.4683 186.801 78.8643C186.126 77.5873 185.843 76.1393 185.989 74.7021C186.134 73.265 186.701 71.9028 187.618 70.7868C187.582 71.4405 187.68 72.0948 187.906 72.7092C188.133 73.3236 188.482 73.8853 188.933 74.3597C190.192 75.6275 192.353 76.271 195.004 76.1654ZM157.43 75.5507C157.372 76.5592 157.324 77.5773 157.296 78.605C156.635 79.6496 155.645 80.444 154.481 80.8621C153.842 81.116 153.138 81.1564 152.474 80.9773C150.553 80.3434 150.13 77.4908 150.034 76.636C149.708 73.6586 151.072 69.1251 153.982 68.7794C154.649 68.7594 155.313 68.8819 155.929 69.1386C156.545 69.3953 157.099 69.7803 157.555 70.2681C157.615 72.0299 157.573 73.7937 157.43 75.5507ZM141.928 70.95C141.995 59.7222 143.436 58.4639 143.849 58.4639C143.957 58.451 144.067 58.451 144.176 58.4639C144.411 58.4626 144.643 58.5118 144.857 58.608C145.253 58.8389 145.552 59.2034 145.703 59.6357C147.182 63.2087 143.878 70.441 143.839 70.5082C143.265 71.7617 142.624 72.9833 141.918 74.1676C141.918 73.3032 141.918 72.2178 141.928 70.95ZM104.278 75.5507C104.207 76.5624 104.159 77.5805 104.134 78.605C103.473 79.6496 102.483 80.444 101.319 80.8621C100.68 81.116 99.9761 81.1564 99.3121 80.9773C97.3911 80.3434 96.9781 77.4908 96.8821 76.636C96.5459 73.6586 97.9194 69.1251 100.82 68.7794C101.487 68.7606 102.15 68.8836 102.766 69.1403C103.382 69.3969 103.937 69.7813 104.393 70.2681C104.451 72.0297 104.412 73.7932 104.278 75.5507ZM84.8282 68.0206C84.991 68.0147 85.1517 68.0583 85.2892 68.1455C85.5109 68.3569 85.6417 68.6462 85.6542 68.9523C85.7087 70.0656 85.3301 71.1567 84.5977 71.9969C84.0836 71.6052 83.7015 71.0656 83.5027 70.4506C83.377 70.1609 83.321 69.8457 83.3394 69.5304C83.3577 69.2151 83.4499 68.9085 83.6084 68.6353C83.7553 68.4508 83.9404 68.3004 84.1509 68.1943C84.3615 68.0882 84.5925 68.0289 84.8282 68.0206ZM76.2608 89.7368C76.2608 91.36 76.2608 92.9928 76.1263 94.5391C76.0015 96.268 75.8478 97.1132 75.2523 97.9296C75.0559 98.3071 74.7721 98.6322 74.4246 98.8778C74.0771 99.1234 73.676 99.2824 73.2545 99.3415C72.8407 99.2844 72.4443 99.138 72.0927 98.9124C71.7411 98.6869 71.4428 98.3876 71.2183 98.0352C69.8065 95.9222 72.4862 91.5137 76.1456 85.9718L76.4721 85.4627C76.3665 86.8746 76.3088 88.3153 76.2608 89.7368ZM213.925 86.7882C214.089 86.788 214.251 86.8231 214.4 86.891C214.549 86.959 214.682 87.0582 214.789 87.182C215.125 87.6814 214.722 88.4306 214.588 88.6515C214.32 88.9989 213.977 89.2807 213.584 89.4754C213.191 89.6702 212.759 89.7727 212.321 89.7752C212.228 89.4443 212.202 89.0984 212.243 88.7572C212.284 88.4161 212.392 88.0864 212.561 87.7871C212.681 87.5161 212.871 87.2813 213.11 87.1061C213.349 86.9308 213.63 86.8212 213.925 86.7882Z" fill="#F75D37"/>
</svg>
