<svg width="20" height="20" viewBox="0 0 20 20" fill="none" xmlns="http://www.w3.org/2000/svg">
<g clip-path="url(#clip0_2_1849)">
<path d="M9.1665 3.3332H3.33317C2.89114 3.3332 2.46722 3.50879 2.15466 3.82135C1.8421 4.13391 1.6665 4.55784 1.6665 4.99986V16.6665C1.6665 17.1086 1.8421 17.5325 2.15466 17.845C2.46722 18.1576 2.89114 18.3332 3.33317 18.3332H14.9998C15.4419 18.3332 15.8658 18.1576 16.1783 17.845C16.4909 17.5325 16.6665 17.1086 16.6665 16.6665V10.8332M15.4165 2.0832C15.748 1.75168 16.1977 1.56543 16.6665 1.56543C17.1353 1.56543 17.585 1.75168 17.9165 2.0832C18.248 2.41472 18.4343 2.86436 18.4343 3.3332C18.4343 3.80204 18.248 4.25168 17.9165 4.5832L9.99984 12.4999L6.6665 13.3332L7.49984 9.99986L15.4165 2.0832Z" stroke="#F75D37" stroke-width="1.5" stroke-linecap="round" stroke-linejoin="round"/>
</g>
<defs>
<clipPath id="clip0_2_1849">
<rect width="20" height="20" fill="white"/>
</clipPath>
</defs>
</svg>
