<svg width="32" height="32" viewBox="0 0 32 32" fill="none" xmlns="http://www.w3.org/2000/svg">
<circle cx="16" cy="16" r="16" fill="#F75D37"/>
<path d="M15.3052 10.4443H10.4441C10.0757 10.4443 9.72244 10.5907 9.46197 10.8511C9.2015 11.1116 9.05518 11.4649 9.05518 11.8332V21.5554C9.05518 21.9238 9.2015 22.2771 9.46197 22.5375C9.72244 22.798 10.0757 22.9443 10.4441 22.9443H20.1663C20.5346 22.9443 20.8879 22.798 21.1484 22.5375C21.4088 22.2771 21.5552 21.9238 21.5552 21.5554V16.6943M20.5135 9.40266C20.7898 9.1264 21.1645 8.97119 21.5552 8.97119C21.9459 8.97119 22.3206 9.1264 22.5968 9.40266C22.8731 9.67893 23.0283 10.0536 23.0283 10.4443C23.0283 10.835 22.8731 11.2097 22.5968 11.486L15.9996 18.0832L13.2218 18.7777L13.9163 15.9999L20.5135 9.40266Z" stroke="white" stroke-width="1.5" stroke-linecap="round" stroke-linejoin="round"/>
</svg>
