<svg width="20" height="20" viewBox="0 0 20 20" fill="none" xmlns="http://www.w3.org/2000/svg">
<g clip-path="url(#clip0_2_1241)">
<path d="M17.2475 2.77138L17.2288 2.76638L16.2725 2.45638C15.9814 2.35975 15.7169 2.19657 15.4999 1.97979C15.2829 1.76302 15.1194 1.49863 15.0225 1.20763L14.7125 0.252631C14.6866 0.178796 14.6384 0.114826 14.5746 0.0695681C14.5108 0.02431 14.4345 0 14.3563 0C14.278 0 14.2017 0.02431 14.1379 0.0695681C14.0741 0.114826 14.0259 0.178796 14 0.252631L13.6875 1.20763C13.5929 1.49646 13.4327 1.75948 13.2196 1.97611C13.0064 2.19275 12.746 2.35712 12.4588 2.45638L11.7163 2.69763H11.7125L11.4975 2.76638C11.4237 2.79245 11.3599 2.84096 11.315 2.90513C11.2808 2.95262 11.2582 3.00744 11.249 3.06522C11.2398 3.123 11.2442 3.18214 11.262 3.2379C11.2797 3.29365 11.3103 3.34449 11.3511 3.38633C11.392 3.42818 11.4422 3.45987 11.4975 3.47888L12.4563 3.79013L12.56 3.82763L12.57 3.83013C12.8194 3.93067 13.0456 4.08109 13.2347 4.27218C13.4239 4.46327 13.572 4.691 13.67 4.94138L13.7075 5.04138L14.0175 5.99763C14.0435 6.07164 14.0919 6.13573 14.1559 6.18098C14.22 6.22623 14.2966 6.2504 14.375 6.25013H14.38C14.4574 6.24911 14.5326 6.22435 14.5954 6.17918C14.6582 6.13402 14.7056 6.07064 14.7313 5.99763L15.0425 5.04263C15.1391 4.75167 15.3023 4.48728 15.5191 4.27049C15.7359 4.0537 16.0003 3.8905 16.2913 3.79388L17.2475 3.48388C17.3208 3.45743 17.3841 3.40903 17.4289 3.34528C17.4736 3.28153 17.4977 3.20553 17.4977 3.12763C17.4977 3.04973 17.4736 2.97373 17.4289 2.90998C17.3841 2.84623 17.3208 2.79783 17.2475 2.77138ZM19.0175 6.96513L19.7825 7.21388L19.7988 7.21763C19.8572 7.23882 19.9076 7.27748 19.9433 7.32836C19.979 7.37924 19.9981 7.43987 19.9981 7.50201C19.9981 7.56415 19.979 7.62477 19.9433 7.67565C19.9076 7.72653 19.8572 7.7652 19.7988 7.78638L19.0325 8.03638C18.8 8.11367 18.5887 8.24405 18.4153 8.41719C18.242 8.59033 18.1113 8.80147 18.0338 9.03388L17.785 9.79888C17.7636 9.85906 17.7236 9.91086 17.6708 9.94681C17.618 9.98276 17.5551 10.001 17.4913 9.99888C17.4296 9.99866 17.3696 9.9793 17.3194 9.94347C17.2692 9.90764 17.2315 9.85712 17.2113 9.79888L16.9613 9.03388C16.8837 8.80097 16.753 8.58933 16.5794 8.41575C16.4058 8.24217 16.1942 8.11143 15.9613 8.03388L15.9313 8.02388L15.93 8.02013L15.2013 7.78263C15.1428 7.76145 15.0924 7.72279 15.0567 7.67191C15.021 7.62103 15.0019 7.56039 15.0019 7.49826C15.0019 7.43612 15.021 7.37549 15.0567 7.32461C15.0924 7.27373 15.1428 7.23507 15.2013 7.21388L15.9675 6.96388C16.1973 6.88471 16.4056 6.75347 16.5763 6.58043C16.7469 6.40739 16.8753 6.19724 16.9513 5.96638L17.2 5.20138C17.2209 5.14254 17.2596 5.09162 17.3106 5.05562C17.3616 5.01961 17.4225 5.00028 17.485 5.00028C17.5475 5.00028 17.6084 5.01961 17.6594 5.05562C17.7104 5.09162 17.7491 5.14254 17.77 5.20138L18.0188 5.96638C18.096 6.19911 18.2265 6.4106 18.3999 6.58399C18.5733 6.75738 18.7848 6.8879 19.0175 6.96513ZM10.0738 3.61638C10.0884 3.6621 10.1051 3.70714 10.1238 3.75138L10 3.75013C8.78815 3.75031 7.60249 4.1028 6.58735 4.76468C5.57222 5.42656 4.7714 6.36928 4.28238 7.47809C3.79337 8.58689 3.63725 9.81395 3.83304 11.0099C4.02882 12.2058 4.56807 13.319 5.38512 14.214C6.20218 15.109 7.2618 15.7472 8.435 16.0508C9.6082 16.3544 10.8444 16.3104 11.993 15.9242C13.1417 15.5379 14.1532 14.826 14.9046 13.8752C15.656 12.9244 16.1147 11.7757 16.225 10.5689C16.3564 10.7632 16.5303 10.9251 16.7334 11.0424C16.9365 11.1598 17.1635 11.2295 17.3975 11.2464C17.0807 13.0977 16.0811 14.7629 14.5961 15.9128C13.1111 17.0628 11.2487 17.614 9.37704 17.4574C7.50536 17.3008 5.76048 16.4479 4.48718 15.0672C3.21388 13.6865 2.50478 11.8783 2.5 10.0001C2.49987 9.00493 2.69781 8.01966 3.08228 7.10172C3.46675 6.18378 4.03006 5.35155 4.73939 4.6535C5.44873 3.95545 6.28989 3.40555 7.21387 3.03585C8.13786 2.66615 9.12618 2.48404 10.1213 2.50013C9.97398 2.85491 9.95715 3.25038 10.0738 3.61638ZM7.8125 9.68763C8.06114 9.68763 8.2996 9.58886 8.47541 9.41304C8.65123 9.23723 8.75 8.99877 8.75 8.75013C8.75 8.50149 8.65123 8.26303 8.47541 8.08722C8.2996 7.9114 8.06114 7.81263 7.8125 7.81263C7.56386 7.81263 7.3254 7.9114 7.14959 8.08722C6.97377 8.26303 6.875 8.50149 6.875 8.75013C6.875 8.99877 6.97377 9.23723 7.14959 9.41304C7.3254 9.58886 7.56386 9.68763 7.8125 9.68763ZM7.67 12.0839C7.6155 12.0219 7.54925 11.9713 7.47508 11.935C7.40091 11.8987 7.32029 11.8775 7.23788 11.8726C7.15546 11.8676 7.07288 11.8791 6.99491 11.9062C6.91694 11.9334 6.84513 11.9757 6.78362 12.0308C6.7221 12.0859 6.67211 12.1526 6.63653 12.2271C6.60095 12.3016 6.58048 12.3824 6.57631 12.4649C6.57214 12.5473 6.58434 12.6298 6.61223 12.7075C6.64011 12.7852 6.68311 12.8566 6.73875 12.9176C7.14887 13.3768 7.65145 13.744 8.21351 13.9952C8.77556 14.2463 9.38437 14.3758 10 14.3751C10.6156 14.3758 11.2244 14.2463 11.7865 13.9952C12.3485 13.744 12.8511 13.3768 13.2613 12.9176C13.37 12.7939 13.4255 12.6322 13.4156 12.4677C13.4058 12.3032 13.3314 12.1493 13.2087 12.0394C13.0859 11.9295 12.9247 11.8725 12.7602 11.8809C12.5956 11.8892 12.441 11.9622 12.33 12.0839C12.0372 12.4121 11.6781 12.6746 11.2765 12.8541C10.8749 13.0335 10.4399 13.1259 10 13.1251C9.075 13.1251 8.24375 12.7239 7.67 12.0839ZM13.125 8.75013C13.125 8.99877 13.0262 9.23723 12.8504 9.41304C12.6746 9.58886 12.4361 9.68763 12.1875 9.68763C11.9389 9.68763 11.7004 9.58886 11.5246 9.41304C11.3488 9.23723 11.25 8.99877 11.25 8.75013C11.25 8.50149 11.3488 8.26303 11.5246 8.08722C11.7004 7.9114 11.9389 7.81263 12.1875 7.81263C12.4361 7.81263 12.6746 7.9114 12.8504 8.08722C13.0262 8.26303 13.125 8.50149 13.125 8.75013Z" fill="#F75D37"/>
</g>
<defs>
<clipPath id="clip0_2_1241">
<rect width="20" height="20" fill="white"/>
</clipPath>
</defs>
</svg>
