<svg width="24" height="24" viewBox="0 0 24 24" fill="none" xmlns="http://www.w3.org/2000/svg">
<path d="M22 11.9422C22 11.2181 21.9426 10.4902 21.8202 9.77783H12V13.8796H17.6236C17.3902 15.2025 16.6404 16.3727 15.5425 17.1164V19.7778H18.8975C20.8676 17.9226 22 15.1829 22 11.9422Z" fill="#4285F4"/>
<path d="M12.0419 21.9999C14.7374 21.9999 17.0105 21.1479 18.6666 19.6772L15.4461 17.2732C14.5501 17.86 13.3933 18.1924 12.0456 18.1924C9.43833 18.1924 7.22765 16.4989 6.43445 14.2222H3.11108V16.7005C4.80765 19.9494 8.26322 21.9999 12.0419 21.9999Z" fill="#34A853"/>
<path d="M6.44444 13.8949C6.01992 12.6656 6.01992 11.3344 6.44444 10.1051V7.55554H3.07806C1.64065 10.3524 1.64065 13.6476 3.07806 16.4444L6.44444 13.8949Z" fill="#FBBC04"/>
<path d="M12.0062 5.80618C13.4254 5.78498 14.797 6.30086 15.8247 7.24783L18.6666 4.50233C16.8671 2.86988 14.4787 1.97238 12.0062 2.00065C8.24263 2.00065 4.80087 4.05005 3.11108 7.30083L6.41751 9.77778C7.20388 7.4987 9.40938 5.80618 12.0062 5.80618Z" fill="#EA4335"/>
</svg>
