<svg width="244" height="60" viewBox="0 0 244 60" fill="none" xmlns="http://www.w3.org/2000/svg">
<g clip-path="url(#clip0_2_6612)">
<path d="M55.7288 36.1639C55.7288 37.9524 53.9944 38.8465 50.5256 38.8465C49.7716 38.8465 49.3191 38.4676 49.1683 37.7098C49.0476 36.9217 48.9873 35.9518 48.9873 34.7999C48.9873 33.648 49.0627 32.4204 49.2135 31.117C49.3945 29.7833 49.6207 28.3435 49.8922 26.7976C50.405 23.827 51.1289 20.6292 52.064 17.2039C53.0292 13.7484 53.9794 11.081 54.9144 9.20161C53.0141 9.32283 51.1289 9.67147 49.2588 10.2474C47.3886 10.793 46.0615 11.187 45.2772 11.4295C44.4929 11.6417 43.8445 11.7478 43.3317 11.7478C42.8189 11.7478 42.5625 11.5811 42.5625 11.2477C42.5625 10.8536 42.8641 10.2777 43.4674 9.51989C44.0707 8.73176 44.9304 7.9437 46.0464 7.15557C48.8817 5.21564 52.0338 4.23046 55.5026 4.20017L70.3882 4.33657C71.2026 4.33657 71.6098 4.65485 71.6098 5.29139C71.6098 5.47327 71.4892 5.80672 71.2479 6.29168C71.0065 6.74636 70.7954 7.2465 70.6144 7.79212C70.2223 8.88334 69.3928 9.42895 68.1259 9.42895C66.8892 9.42895 63.9182 9.33802 59.2127 9.15615C59.092 10.4899 58.8507 12.2025 58.4888 14.294C58.1268 16.3552 57.7347 18.6134 57.3124 21.0687C56.2869 27.3432 55.7589 32.3749 55.7288 36.1639ZM83.5521 34.2998C81.1694 37.1188 78.304 38.5283 74.9558 38.5283C71.6378 38.5283 69.1494 37.6796 67.4904 35.9821C65.8314 34.2543 65.017 32.1173 65.0472 29.5711C65.017 25.964 66.1481 22.8571 68.4406 20.2503C70.7329 17.6434 73.7342 16.34 77.4443 16.34C79.1334 16.34 80.4908 16.5522 81.516 16.9766C83.296 17.7041 84.1855 18.3861 84.1855 19.0226C84.1855 19.5076 82.934 19.7653 80.4305 19.7956C77.957 19.7956 75.8758 20.6595 74.1867 22.3872C72.5276 24.0847 71.6982 26.2368 71.6982 28.8437C71.6982 30.2077 72.0903 31.3596 72.8746 32.2992C73.689 33.2085 74.8201 33.6632 76.2679 33.6632C77.7459 33.6632 78.9675 33.3601 79.9328 32.7539C77.7912 31.2989 76.7204 29.1922 76.7204 26.4339C76.6902 24.9789 77.203 23.6603 78.2587 22.4782C79.3446 21.2657 80.717 20.6595 82.3757 20.6595C84.0651 20.6292 85.2714 21.0839 85.9953 22.0235C86.7192 22.9631 87.0812 24.1757 87.0812 25.6609C87.0812 27.1159 86.7346 28.6618 86.0406 30.2986H86.312C87.6395 30.2683 88.786 29.7985 89.7506 28.8891C90.1126 28.5254 90.4148 28.2071 90.6555 27.9343C90.927 27.6615 91.1985 27.5251 91.47 27.5251C91.8925 27.5251 92.1034 28.0252 92.1034 29.0255C92.1034 30.8745 91.5605 32.2689 90.4746 33.2085C89.3887 34.1179 88.1824 34.5726 86.855 34.5726C85.5582 34.5726 84.457 34.4816 83.5521 34.2998ZM83.1449 29.0255C83.6579 27.9343 83.914 26.8734 83.914 25.8428C83.914 24.8122 83.5828 24.2969 82.9186 24.2969C82.6472 24.2969 82.421 24.4939 82.24 24.888C82.059 25.282 81.9685 25.6609 81.9685 26.0247C81.9685 27.2371 82.3612 28.2374 83.1449 29.0255ZM103.912 18.9772C103.912 16.9463 105.48 15.9308 108.617 15.9308C109.401 15.9308 109.884 16.1885 110.065 16.7038C110.276 17.2191 110.382 18.0072 110.382 19.0681C110.382 20.5534 110.05 22.8571 109.386 25.9792C108.722 29.1013 108.405 31.208 108.436 32.2992C108.436 32.8145 108.602 33.0721 108.934 33.0721C109.386 33.0721 109.944 32.7842 110.608 32.2083C111.271 31.6324 111.934 31.0109 112.599 30.3441C113.262 29.6469 113.865 29.0103 114.408 28.4344C114.981 27.8585 115.373 27.5706 115.585 27.5706C116.007 27.5706 116.218 28.0859 116.218 29.1165C116.218 31.2383 115.178 33.2843 113.096 35.2546C109.597 37.3158 107.38 38.3464 106.445 38.3464C106.355 38.3464 106.279 38.3312 106.219 38.3009C105.073 38.3009 104.258 37.922 103.776 37.1642C103.323 36.4065 103.037 35.4516 102.916 34.2998C102.313 35.4213 101.483 36.3913 100.428 37.2097C99.3717 37.9978 98.1654 38.3919 96.8081 38.3919C94.4246 38.3919 92.5849 37.9372 91.2882 37.0278C90.0213 36.1185 89.3879 34.7696 89.3879 32.9812C89.3879 32.1931 89.4929 31.4656 89.7046 30.7988C89.9454 30.1319 90.3227 29.3135 90.8357 28.3435L92.1478 17.1585C93.0826 16.431 94.4246 16.0672 96.1746 16.0672C97.5619 16.0672 98.3464 16.9766 98.5274 18.7953C98.6777 20.2805 98.6025 21.6143 98.3012 22.7964C98.0297 23.9483 97.6524 25.4184 97.17 27.2068C96.6869 28.9649 96.4461 30.526 96.4461 31.89C96.4461 32.9812 97.1248 33.5268 98.4821 33.5268C99.9599 33.5268 101.242 32.2234 102.328 29.6166C103.172 27.616 103.745 25.3881 104.047 22.9329C104.017 22.6903 103.987 22.3872 103.957 22.0235C103.957 21.6295 103.941 21.2506 103.912 20.8868C103.912 20.5231 103.912 20.1593 103.912 19.7956V18.9772ZM120.571 30.526L120.842 36.073C120.842 36.8005 120.465 37.4522 119.711 38.0281C118.957 38.604 117.931 38.892 116.634 38.892C115.88 38.892 115.352 38.498 115.051 37.7098C114.779 36.9217 114.644 35.7699 114.644 34.2543C114.644 31.0716 114.795 28.586 115.096 26.7976C115.428 24.9789 116.061 23.145 116.996 21.296C115.609 19.9623 114.915 18.8105 114.915 17.8405C114.915 15.8096 116.001 14.7941 118.173 14.7941C119.288 14.7941 120.269 15.3852 121.114 16.5674C121.717 17.3858 122.154 18.3406 122.426 19.4318C122.848 19.5834 123.376 19.6592 124.009 19.6592C124.884 19.6592 125.894 19.3712 127.041 18.7953L128.217 18.2042C128.579 18.0223 128.896 17.9314 129.167 17.9314C130.042 17.9314 130.916 19.2197 131.791 21.7962C131.52 22.9783 131.219 24.115 130.886 25.2062C130.585 26.2975 130.223 27.616 129.801 29.1619C129.378 30.7078 129.152 31.7536 129.122 32.2992C129.122 32.8145 129.288 33.0721 129.62 33.0721C130.072 33.0721 130.63 32.7842 131.294 32.2083C131.957 31.6324 132.621 31.0109 133.284 30.3441C133.948 29.6469 134.551 29.0103 135.094 28.4344C135.667 27.8585 136.06 27.5706 136.271 27.5706C136.693 27.5706 136.904 28.0859 136.904 29.1165C136.904 31.208 135.984 33.2692 134.144 35.3001C132.334 37.3309 130.253 38.3312 127.9 38.3009C126.513 38.3009 125.472 37.7401 124.778 36.6186C124.084 35.4971 123.722 34.1331 123.693 32.5265C123.693 29.3438 124.401 26.3277 125.819 23.4785C125.156 23.7513 124.401 23.8877 123.557 23.8877C122.742 23.8877 122.154 23.8574 121.792 23.7967C121.521 24.9486 121.249 26.1156 120.978 27.2978C120.706 28.4496 120.571 29.5257 120.571 30.526ZM143.647 36.1639C143.647 37.9524 141.913 38.8465 138.444 38.8465C137.689 38.8465 137.237 38.4676 137.087 37.7098C136.965 36.9217 136.906 35.8305 136.906 34.4362C136.906 31.496 137.494 27.8585 138.67 23.5239C140.63 16.3703 142.727 12.157 144.959 10.8839C145.261 10.702 145.593 10.6111 145.955 10.6111C146.317 10.6111 146.498 11.2022 146.498 12.3844C146.498 13.5665 146.437 14.6123 146.317 15.5216C146.075 17.3403 145.638 19.6895 145.005 22.5691C144.401 25.4488 144.1 27.1462 144.1 27.6615L143.647 36.1639ZM146.724 23.9331C146.724 23.5391 146.935 23.2814 147.357 23.1602C147.81 23.039 148.367 22.9329 149.031 22.8419C149.695 22.7207 150.419 22.5539 151.203 22.3418C151.987 22.1296 152.711 21.7355 153.375 21.1596C154.913 19.8259 155.682 17.598 155.682 14.4759C155.682 12.4753 155.004 10.9446 153.646 9.88363C152.319 8.82269 150.389 8.29226 147.855 8.29226C145.351 8.29226 142.998 8.82269 140.797 9.88363C139.982 10.2777 139.243 10.6414 138.58 10.9749C137.946 11.3083 137.358 11.475 136.815 11.475C136.272 11.475 136.001 11.3083 136.001 10.9749C136.001 10.4595 136.498 9.61082 137.494 8.42866C138.489 7.33744 140.057 6.32197 142.199 5.38233C144.371 4.44269 146.648 3.97283 149.031 3.97283C153.525 3.94255 157.024 5.00341 159.528 7.15557C161.7 9.03493 162.786 11.475 162.786 14.4759C162.786 17.4464 161.715 20.1139 159.573 22.4782C157.432 24.8122 154.747 25.9792 151.52 25.9792C148.322 25.9792 146.724 25.2972 146.724 23.9331ZM172.437 38.3009C168.123 38.3312 165.182 36.7096 163.614 33.4359C163.071 32.284 162.8 30.8442 162.8 29.1165C162.8 27.3584 162.95 25.4942 163.252 23.5239C163.855 19.5834 165.017 15.946 166.736 12.6117C167.61 10.9142 168.591 9.45924 169.677 8.24679C172.059 5.57938 174.714 4.26082 177.64 4.29111C178.937 4.29111 179.947 4.65485 180.671 5.38233C181.425 6.07953 181.802 7.09492 181.802 8.42866C181.802 9.76241 181.41 11.1113 180.626 12.4753C179.842 13.809 178.831 15.2033 177.595 16.6583C176.388 18.083 175.046 19.5834 173.568 21.1596C172.089 22.7358 170.641 24.4485 169.224 26.2975V28.1162C169.224 29.8137 169.586 31.0564 170.31 31.8445C171.034 32.6327 171.878 33.0267 172.844 33.0267C175.437 33.0267 177.73 31.7384 179.721 29.1619C180.536 28.101 181.154 27.5706 181.576 27.5706C181.998 27.5706 182.21 28.0859 182.21 29.1165C182.21 30.147 181.923 31.208 181.35 32.2992C180.807 33.3601 180.083 34.3452 179.178 35.2546C178.273 36.1337 177.233 36.8611 176.056 37.437C174.88 38.0129 173.673 38.3009 172.437 38.3009ZM174.88 13.8848C175.513 13.0967 176.011 12.3844 176.373 11.7478C176.735 11.1113 176.916 10.4595 176.916 9.7927C176.916 9.0955 176.674 8.74694 176.192 8.74694C175.136 8.74694 173.96 9.83816 172.663 12.0206C171.396 14.2031 170.446 17.0675 169.813 20.614C170.838 19.0378 171.773 17.7193 172.618 16.6583C173.492 15.5974 174.247 14.6729 174.88 13.8848ZM207.315 27.4342C207.858 27.4342 208.129 28.1314 208.129 29.5257C208.129 30.2834 207.813 31.208 207.179 32.2992C206.546 33.3601 205.717 34.3452 204.691 35.2546C203.695 36.1337 202.58 36.8611 201.343 37.437C200.107 38.0129 198.899 38.3009 197.723 38.3009C196.125 38.3009 195.054 36.8914 194.511 34.0724C193.727 35.3758 192.701 36.4519 191.434 37.3006C190.167 38.1191 188.463 38.5283 186.321 38.5283C184.21 38.5283 182.506 37.8614 181.209 36.5277C179.912 35.1939 179.278 33.5723 179.308 31.6626C179.308 26.5096 181.013 22.4479 184.421 19.4773C185.869 18.2345 187.212 17.4161 188.448 17.0221C189.715 16.628 191.042 16.431 192.429 16.431C193.817 16.431 194.949 16.6735 195.823 17.1585C196.245 16.2794 196.728 15.8399 197.271 15.8399C198.327 15.8399 199.322 16.3098 200.257 17.2494C201.222 18.1587 201.705 19.0226 201.705 19.8411C201.283 20.8413 200.664 22.0387 199.85 23.433C199.609 24.8273 199.488 26.7824 199.488 29.2983C199.488 31.8142 199.804 33.0721 200.438 33.0721C201.222 33.0721 203.123 31.496 206.139 28.3435C206.682 27.7372 207.074 27.4342 207.315 27.4342ZM185.959 30.1622C185.959 32.4962 186.819 33.6632 188.538 33.6632C190.379 33.6329 191.902 32.6478 193.108 30.7078C193.531 30.041 193.877 29.2226 194.149 28.2526C194.149 24.8577 194.451 21.9477 195.054 19.5228C192.61 20.0077 190.484 21.1899 188.674 23.0693C186.864 24.9486 185.959 27.3129 185.959 30.1622ZM223.831 27.4342C224.374 27.4342 224.646 27.904 224.646 28.8437C224.646 29.753 224.404 30.7381 223.922 31.799C223.469 32.86 222.761 33.8906 221.795 34.8909C220.86 35.8609 219.653 36.6944 218.175 37.3916C216.698 38.0888 214.948 38.4373 212.927 38.4373C210.936 38.4373 209.187 37.8462 207.679 36.6641C206.17 35.4516 205.416 33.7239 205.416 31.4808C205.416 29.2074 205.763 27.1613 206.457 25.3426C207.181 23.4936 208.116 21.9023 209.262 20.5685C210.439 19.2348 211.766 18.2042 213.244 17.4767C214.721 16.719 216.124 16.34 217.452 16.34C219.774 16.34 220.935 17.2646 220.935 19.1136C220.935 20.1745 220.709 21.0232 220.257 21.6598C219.834 22.2963 219.397 22.6146 218.945 22.6146C218.341 22.6146 217.813 22.4024 217.361 21.978C216.909 21.5536 216.411 21.3415 215.868 21.3415C215.325 21.3112 214.797 21.5688 214.284 22.1144C213.802 22.66 213.395 23.3572 213.063 24.2059C212.399 25.9034 212.067 27.8888 212.067 30.1622C212.097 31.2534 212.595 32.0719 213.56 32.6175C214.224 32.9812 215.008 33.1783 215.913 33.2085C216.818 33.2085 217.678 32.9055 218.492 32.2992C219.336 31.6929 220.106 31.0413 220.8 30.3441C221.494 29.6166 222.096 28.9498 222.609 28.3435C223.152 27.7372 223.56 27.4342 223.831 27.4342ZM232.936 33.2085C235.289 33.2085 237.566 32.2689 239.768 30.3896C240.582 29.6924 241.246 29.0558 241.759 28.4799C242.272 27.8736 242.664 27.5706 242.935 27.5706C243.358 27.5706 243.568 27.9949 243.568 28.8437C243.568 29.6924 243.342 30.6472 242.89 31.7081C242.437 32.7387 241.683 33.7542 240.627 34.7544C238.033 37.2097 234.474 38.4373 229.95 38.4373C226.36 38.4373 223.917 37.1339 222.62 34.5271C222.168 33.6178 221.941 32.3144 221.941 30.6169C221.941 28.9194 222.273 27.1613 222.937 25.3426C223.6 23.4936 224.475 21.9023 225.561 20.5685C226.677 19.2348 227.959 18.2042 229.407 17.4767C230.855 16.719 232.393 16.34 234.022 16.34C235.68 16.34 236.947 16.7492 237.822 17.5677C238.727 18.3861 239.18 19.447 239.18 20.7504C239.18 22.0538 238.848 23.1299 238.184 23.9786C237.551 24.797 236.721 25.4942 235.696 26.0701C234.67 26.6157 233.524 27.1159 232.257 27.5706C231.02 27.9949 229.799 28.4799 228.592 29.0255V30.1622C228.622 31.2534 229.075 32.0264 229.95 32.4811C230.825 32.9357 231.82 33.1783 232.936 33.2085ZM232.167 20.3867C230.598 20.3867 229.513 22.2206 228.909 25.8883C229.542 25.4639 230.131 25.085 230.674 24.7516C231.246 24.4181 231.744 24.0998 232.167 23.7967C233.072 23.1299 233.539 22.3721 233.569 21.5234C233.569 20.7656 233.101 20.3867 232.167 20.3867Z" fill="#F75D37"/>
<path fill-rule="evenodd" clip-rule="evenodd" d="M15.1224 44.827C15.1224 44.827 30.2448 23.1246 30.2448 14.8992C30.2448 6.67252 23.4748 0.00427628 15.1224 0.00427628C6.77009 0.00427628 0 6.67528 0 14.8992C0 23.1232 15.1224 44.827 15.1224 44.827ZM20.1481 9.29113C22.9238 12.0251 22.9238 16.4576 20.1481 19.1916C17.3724 21.9255 12.8722 21.9255 10.0965 19.1916C7.32084 16.4576 7.32084 12.0251 10.0965 9.29121C12.8722 6.55722 17.3724 6.55722 20.1481 9.29113Z" fill="#F75D37"/>
<path fill-rule="evenodd" clip-rule="evenodd" d="M14.6882 49.5314C18.7856 49.5314 22.1071 48.0775 22.1071 46.2838C22.1071 45.39 21.2824 44.5805 19.9477 43.9932C22.4867 44.6876 24.1678 45.8975 24.1678 47.274C24.1678 49.4283 20.0496 51.1748 14.9696 51.1748C9.88944 51.1748 5.77124 49.4283 5.77124 47.274C5.77124 46.1974 6.79945 45.2228 8.46212 44.517C7.70761 45.0255 7.26935 45.6323 7.26935 46.2838C7.26935 48.0775 10.5909 49.5314 14.6882 49.5314Z" fill="#F75D37"/>
<path fill-rule="evenodd" clip-rule="evenodd" d="M14.8379 56.0268C21.6669 56.0268 27.2028 53.8458 27.2028 51.1553C27.2028 50.4803 26.8544 49.8375 26.2246 49.253C28.2187 50.2951 29.4136 51.6234 29.4136 53.0701C29.4136 56.418 23.0137 59.1321 15.119 59.1321C7.22436 59.1321 0.824463 56.418 0.824463 53.0701C0.824463 51.9323 1.56357 50.8678 2.84928 49.9581C2.60362 50.3411 2.47311 50.7422 2.47311 51.1553C2.47311 53.8458 8.00904 56.0268 14.8379 56.0268Z" fill="#F75D37"/>
<path d="M45.3411 56.8387V48.5719H50.4986V49.6456H46.5822V52.1644H50.2295V53.2341H46.5822V55.7651H50.5468V56.8387H45.3411ZM57.884 48.5719L59.8522 51.8052H59.9165L61.8848 48.5719H63.3227L60.76 52.7053L63.3388 56.8387H61.8927L59.9165 53.6498H59.8522L57.876 56.8387H56.4299L59.0529 52.7053L56.446 48.5719H57.884ZM69.4177 56.8387V48.5719H72.3499C72.99 48.5719 73.5202 48.689 73.9406 48.9231C74.361 49.1572 74.6757 49.4774 74.8845 49.8837C75.0934 50.2874 75.1979 50.7422 75.1979 51.2481C75.1979 51.7568 75.0921 52.2142 74.8805 52.6206C74.6716 53.0242 74.3557 53.3445 73.9325 53.5812C73.5122 53.8154 72.9833 53.9325 72.346 53.9325H70.3295V52.8749H72.2335C72.6378 52.8749 72.9658 52.8049 73.2176 52.665C73.4693 52.5223 73.654 52.3286 73.7719 52.0837C73.8897 51.8388 73.9486 51.5603 73.9486 51.2481C73.9486 50.936 73.8897 50.6588 73.7719 50.4166C73.654 50.1744 73.468 49.9847 73.2135 49.8474C72.9619 49.7102 72.6298 49.6416 72.2174 49.6416H70.6589V56.8387H69.4177ZM81.5164 56.8387V48.5719H82.7582V55.7651H86.4853V56.8387H81.5164ZM99.591 52.7053C99.591 53.588 99.4302 54.3469 99.1086 54.982C98.7871 55.6144 98.3467 56.1014 97.7876 56.4432C97.2302 56.7822 96.5967 56.9518 95.8874 56.9518C95.1748 56.9518 94.5389 56.7822 93.979 56.4432C93.4223 56.1014 92.9836 55.613 92.662 54.9779C92.3405 54.3428 92.1797 53.5853 92.1797 52.7053C92.1797 51.8227 92.3405 51.0652 92.662 50.4328C92.9836 49.7977 93.4223 49.3106 93.979 48.9715C94.5389 48.6297 95.1748 48.4589 95.8874 48.4589C96.5967 48.4589 97.2302 48.6297 97.7876 48.9715C98.3467 49.3106 98.7871 49.7977 99.1086 50.4328C99.4302 51.0652 99.591 51.8227 99.591 52.7053ZM98.3613 52.7053C98.3613 52.0326 98.253 51.4661 98.0365 51.006C97.8224 50.5431 97.5275 50.1932 97.1526 49.9564C96.7801 49.717 96.3584 49.5972 95.8874 49.5972C95.4131 49.5972 94.9905 49.717 94.6181 49.9564C94.2456 50.1932 93.9515 50.5431 93.7342 51.006C93.5201 51.4661 93.4126 52.0326 93.4126 52.7053C93.4126 53.3781 93.5201 53.9459 93.7342 54.4087C93.9515 54.8689 94.2456 55.2187 94.6181 55.4582C94.9905 55.6951 95.4131 55.8134 95.8874 55.8134C96.3584 55.8134 96.7801 55.6951 97.1526 55.4582C97.5275 55.2187 97.8224 54.8689 98.0365 54.4087C98.253 53.9459 98.3613 53.3781 98.3613 52.7053ZM106.002 56.8387V48.5719H108.934C109.572 48.5719 110.101 48.6823 110.521 48.9029C110.944 49.1235 111.26 49.429 111.469 49.8192C111.678 50.2067 111.782 50.6547 111.782 51.1633C111.782 51.6692 111.676 52.1147 111.465 52.4994C111.256 52.8816 110.94 53.1789 110.517 53.3916C110.097 53.6041 109.568 53.7104 108.93 53.7104H106.709V52.6367H108.818C109.219 52.6367 109.547 52.5788 109.798 52.4631C110.052 52.3474 110.238 52.1792 110.356 51.9585C110.474 51.7379 110.533 51.4728 110.533 51.1633C110.533 50.8512 110.472 50.5808 110.352 50.352C110.234 50.1232 110.048 49.9484 109.794 49.8272C109.542 49.7035 109.211 49.6416 108.802 49.6416H107.243V56.8387H106.002ZM110.063 53.1089L112.096 56.8387H110.682L108.689 53.1089H110.063ZM118.157 56.8387V48.5719H123.314V49.6456H119.398V52.1644H123.045V53.2341H119.398V55.7651H123.362V56.8387H118.157ZM137.287 49.6456V48.5719H143.654V49.6456H141.087V56.8387H139.85V49.6456H137.287ZM149.924 56.8387V48.5719H151.165V52.1644H155.267V48.5719H156.512V56.8387H155.267V53.2341H151.165V56.8387H149.924ZM163.184 56.8387V48.5719H168.341V49.6456H164.425V52.1644H168.072V53.2341H164.425V55.7651H168.389V56.8387H163.184ZM184.331 56.8387L182.049 48.5719H183.355L184.958 54.9738H185.034L186.701 48.5719H187.994L189.661 54.9779H189.738L191.337 48.5719H192.645L190.361 56.8387H189.111L187.38 50.6467H187.315L185.584 56.8387H184.331ZM205.379 52.7053C205.379 53.588 205.218 54.3469 204.896 54.982C204.575 55.6144 204.134 56.1014 203.575 56.4432C203.018 56.7822 202.384 56.9518 201.675 56.9518C200.962 56.9518 200.327 56.7822 199.767 56.4432C199.21 56.1014 198.771 55.613 198.45 54.9779C198.128 54.3428 197.967 53.5853 197.967 52.7053C197.967 51.8227 198.128 51.0652 198.45 50.4328C198.771 49.7977 199.21 49.3106 199.767 48.9715C200.327 48.6297 200.962 48.4589 201.675 48.4589C202.384 48.4589 203.018 48.6297 203.575 48.9715C204.134 49.3106 204.575 49.7977 204.896 50.4328C205.218 51.0652 205.379 51.8227 205.379 52.7053ZM204.149 52.7053C204.149 52.0326 204.041 51.4661 203.824 51.006C203.61 50.5431 203.315 50.1932 202.94 49.9564C202.568 49.717 202.146 49.5972 201.675 49.5972C201.201 49.5972 200.778 49.717 200.406 49.9564C200.033 50.1932 199.739 50.5431 199.522 51.006C199.308 51.4661 199.2 52.0326 199.2 52.7053C199.2 53.3781 199.308 53.9459 199.522 54.4087C199.739 54.8689 200.033 55.2187 200.406 55.4582C200.778 55.6951 201.201 55.8134 201.675 55.8134C202.146 55.8134 202.568 55.6951 202.94 55.4582C203.315 55.2187 203.61 54.8689 203.824 54.4087C204.041 53.9459 204.149 53.3781 204.149 52.7053ZM211.79 56.8387V48.5719H214.722C215.359 48.5719 215.889 48.6823 216.309 48.9029C216.732 49.1235 217.048 49.429 217.256 49.8192C217.466 50.2067 217.57 50.6547 217.57 51.1633C217.57 51.6692 217.464 52.1147 217.252 52.4994C217.044 52.8816 216.728 53.1789 216.305 53.3916C215.884 53.6041 215.355 53.7104 214.718 53.7104H212.497V52.6367H214.605C215.007 52.6367 215.334 52.5788 215.586 52.4631C215.84 52.3474 216.026 52.1792 216.144 51.9585C216.262 51.7379 216.321 51.4728 216.321 51.1633C216.321 50.8512 216.26 50.5808 216.14 50.352C216.022 50.1232 215.836 49.9484 215.581 49.8272C215.33 49.7035 214.999 49.6416 214.589 49.6416H213.031V56.8387H211.79ZM215.851 53.1089L217.883 56.8387H216.469L214.477 53.1089H215.851ZM223.944 56.8387V48.5719H225.186V55.7651H228.913V56.8387H223.944ZM237.856 56.8387H235.193V48.5719H237.94C238.746 48.5719 239.439 48.7374 240.017 49.0684C240.596 49.3967 241.038 49.869 241.346 50.4852C241.657 51.0988 241.812 51.8348 241.812 52.6932C241.812 53.5544 241.656 54.2943 241.342 54.9134C241.032 55.5323 240.582 56.0086 239.993 56.3423C239.404 56.6733 238.691 56.8387 237.856 56.8387ZM236.434 55.7489H237.787C238.414 55.7489 238.935 55.6304 239.35 55.3937C239.765 55.1542 240.076 54.8084 240.282 54.3563C240.488 53.9015 240.591 53.3472 240.591 52.6932C240.591 52.0447 240.488 51.4943 240.282 51.0423C240.078 50.5902 239.775 50.2471 239.37 50.0129C238.966 49.7788 238.463 49.6618 237.864 49.6618H236.434V55.7489Z" fill="#F75D37"/>
</g>
<defs>
<clipPath id="clip0_2_6612">
<rect width="244" height="59.2428" fill="white"/>
</clipPath>
</defs>
</svg>
