<svg width="10" height="10" viewBox="0 0 10 10" fill="none" xmlns="http://www.w3.org/2000/svg">
<path fill-rule="evenodd" clip-rule="evenodd" d="M2.72515 1.76934C3.31963 1.21746 4.12887 0.9375 5.00016 0.9375C5.87146 0.9375 6.6807 1.21746 7.27517 1.76934C7.8731 2.32442 8.22933 3.13224 8.22933 4.13651C8.22933 4.90387 7.80229 5.75746 7.3121 6.49722C6.81301 7.2504 6.20877 7.94318 5.78039 8.40109C5.35464 8.85619 4.64568 8.85619 4.21993 8.40109C3.79156 7.94318 3.18732 7.2504 2.68823 6.49722C2.19803 5.75746 1.771 4.90387 1.771 4.13651C1.771 3.13224 2.12723 2.32442 2.72515 1.76934ZM3.43766 3.75C3.43766 2.88706 4.13722 2.1875 5.00016 2.1875C5.86311 2.1875 6.56266 2.88706 6.56266 3.75C6.56266 4.61294 5.86311 5.3125 5.00016 5.3125C4.13722 5.3125 3.43766 4.61294 3.43766 3.75Z" fill="white"/>
</svg>
