<svg width="362" height="343" viewBox="0 0 362 343" fill="none" xmlns="http://www.w3.org/2000/svg">
<path d="M55.8009 323.625C56.4294 321.133 54.783 318.643 52.944 316.848C51.1051 315.052 48.9085 313.447 47.9434 311.065C46.3795 307.206 48.4241 302.187 45.7743 298.974C44.2155 297.085 41.4368 296.465 40.0518 294.445C39.3256 293.385 39.0845 292.08 38.7949 290.828C37.3143 284.444 34.0809 278.476 29.5429 273.749C29.2613 279.443 30.5493 285.207 33.2288 290.239C34.3054 292.262 35.6252 294.233 35.9909 296.495C36.5853 300.168 34.5544 303.968 35.4783 307.573C36.5346 311.696 41.1885 314.433 41.4324 318.682C41.6388 322.274 38.5249 325.446 38.779 329.035C38.8869 330.563 39.6051 331.979 40.4022 333.287C43.207 337.89 47.3063 341.048 53.4921 340.91L61.0709 341.132L55.8009 323.625Z" fill="#F5F5F5"/>
<path d="M62.6047 341.323C62.6047 341.323 63.328 341.487 64.6906 341.265C65.3689 341.163 66.2037 340.977 67.1493 340.632C68.089 340.282 69.1584 339.786 70.1806 338.949C70.6708 338.515 71.1609 337.981 71.4223 337.276C71.6793 336.573 71.7228 335.801 71.7662 335.009C71.8024 334.217 71.7981 333.393 71.9291 332.557C72.0522 331.722 72.3751 330.901 72.8414 330.115C73.7261 328.54 75.2009 327.047 75.6678 324.913C76.1746 322.814 75.7895 320.548 75.4246 318.273C75.0597 316.002 74.7049 313.526 75.5607 311.154C76.36 308.78 78.0093 306.631 78.8252 303.954C79.6368 301.251 79.235 298.351 79.3936 295.488C79.4652 294.05 79.7346 292.611 80.3572 291.275C80.9625 289.931 81.8059 288.661 82.4619 287.245C83.7904 284.382 84.0098 281.146 84.3595 277.973C84.5296 276.375 84.7019 274.76 84.8757 273.128C85.0473 271.489 85.1827 269.857 85.6902 268.278C86.1485 266.687 86.8153 265.147 87.4763 263.578C87.7999 262.789 88.1424 261.999 88.3415 261.124C88.4848 260.23 88.5225 259.393 88.571 258.517C88.6463 256.779 88.5645 255.018 88.3393 253.273C88.1235 251.525 87.7977 249.793 87.6001 248.042C87.5878 247.938 87.5755 247.835 87.5646 247.74L87.5233 247.391L87.2142 247.548C85.5961 248.37 84.2139 249.588 83.1547 251.014C82.0774 252.43 81.2962 254.026 80.675 255.647C79.4276 258.91 78.9917 262.324 78.372 265.583C77.7674 268.842 76.9645 272.049 75.3109 274.765C74.4885 276.119 73.4908 277.357 72.6191 278.678C71.7496 279.99 70.9857 281.43 70.7635 283.007C70.3334 286.215 72.1152 289.021 71.764 291.861C71.641 293.272 71.0871 294.594 70.4044 295.801C69.7231 297.015 68.9209 298.143 68.16 299.276C67.3998 300.408 66.6765 301.557 66.1458 302.783C65.6057 304.005 65.3125 305.311 65.2365 306.587C65.0663 309.143 65.4428 311.565 65.2683 313.855C65.1271 316.148 64.3343 318.231 63.4337 320.093C62.528 321.962 61.518 323.653 60.6731 325.293C60.2481 326.112 59.8564 326.912 59.5379 327.714C59.2005 328.515 59.0376 329.335 58.8863 330.114C58.6466 331.686 58.6792 333.149 58.8551 334.439C59.1997 337.032 60.1779 338.897 61.0546 339.942C61.2559 340.221 61.4883 340.418 61.6715 340.602C61.8503 340.793 62.027 340.922 62.171 341.022C62.4527 341.228 62.6047 341.323 62.6047 341.323C62.638 341.284 61.9792 340.94 61.1292 339.88C60.2894 338.829 59.3525 336.978 59.0412 334.414C58.8819 333.139 58.8645 331.694 59.1136 330.151C59.2692 329.388 59.4358 328.585 59.7703 327.808C60.0881 327.024 60.4841 326.229 60.9127 325.419C61.7642 323.793 62.785 322.108 63.711 320.228C64.6297 318.355 65.4537 316.232 65.61 313.879C65.7961 311.542 65.4305 309.11 65.6093 306.614C65.689 305.365 65.9757 304.121 66.502 302.938C67.0204 301.751 67.7335 300.624 68.4937 299.5C69.2539 298.375 70.0655 297.243 70.7664 296.003C71.4672 294.772 72.0536 293.395 72.189 291.902C72.5373 288.876 70.7685 286.053 71.2066 283.07C71.4172 281.595 72.142 280.218 72.9999 278.929C73.8578 277.632 74.8606 276.394 75.7077 275.005C77.4134 272.212 78.2294 268.943 78.8404 265.67C79.466 262.391 79.9032 259.013 81.1283 255.818C81.7379 254.229 82.5024 252.674 83.5435 251.306C84.568 249.929 85.8907 248.768 87.4321 247.984L87.0817 247.793C87.0933 247.889 87.1056 247.993 87.1179 248.098C87.3185 249.87 87.645 251.605 87.8578 253.333C88.0808 255.059 88.1612 256.785 88.0881 258.496C88.0432 259.341 87.9968 260.228 87.8694 261.025C87.6891 261.823 87.3532 262.612 87.0325 263.393C86.3758 264.956 85.6996 266.519 85.2326 268.144C84.715 269.762 84.5738 271.456 84.4073 273.076C84.2357 274.708 84.0655 276.324 83.8968 277.924C83.5529 281.111 83.3336 284.295 82.0543 287.057C81.4222 288.433 80.5802 289.707 79.9568 291.095C79.3132 292.481 79.033 294.001 78.9657 295.464C78.8172 298.389 79.214 301.245 78.4379 303.84C77.6668 306.422 76.0262 308.583 75.2052 311.032C74.3256 313.507 74.71 316.065 75.0843 318.328C75.463 320.607 75.8438 322.825 75.3667 324.843C74.9402 326.881 73.5082 328.361 72.6053 329.981C72.1354 330.784 71.8002 331.654 71.6801 332.52C71.5519 333.383 71.5642 334.215 71.5345 335.001C71.4998 335.782 71.4592 336.548 71.2239 337.206C70.9901 337.862 70.5289 338.381 70.0576 338.808C69.0729 339.631 68.0231 340.139 67.0986 340.498C66.169 340.854 65.3451 341.053 64.6746 341.171C64.0042 341.296 63.4829 341.316 63.134 341.328C62.7857 341.316 62.6047 341.323 62.6047 341.323Z" fill="#E0E0E0"/>
<path d="M86.0391 251.921C86.0312 251.92 86.0066 251.997 85.9675 252.15C85.924 252.332 85.8705 252.557 85.8038 252.834C85.6583 253.431 85.4853 254.333 85.2058 255.461C84.9148 256.584 84.2342 257.859 83.6557 259.427C83.0534 260.984 82.4438 262.787 81.8848 264.813C81.3187 266.836 80.8191 269.083 80.2971 271.49C79.7584 273.893 79.222 276.47 77.9137 278.904C77.2997 280.138 76.6076 281.388 76.0595 282.754C75.4977 284.12 75.1994 285.612 74.9931 287.108C74.6463 290.111 74.1127 293.162 73.4119 296.284C71.9277 302.503 70.5144 308.425 69.2271 313.817C67.908 319.191 66.7192 324.035 65.7172 328.117C64.7427 332.163 63.9506 335.45 63.3917 337.768C63.1347 338.88 62.9312 339.759 62.7835 340.397C62.7242 340.676 62.6764 340.902 62.6373 341.084C62.6069 341.24 62.5953 341.321 62.6033 341.323C62.6112 341.325 62.6387 341.248 62.6851 341.097C62.7365 340.917 62.8002 340.695 62.8784 340.422C63.0478 339.789 63.2809 338.918 63.5756 337.814C64.17 335.505 65.0135 332.231 66.051 328.201C67.0819 324.126 68.3048 319.291 69.6615 313.926C70.9611 308.531 72.3881 302.607 73.8868 296.388C74.5884 293.27 75.127 290.163 75.4651 287.173C75.6671 285.687 75.9524 284.25 76.491 282.924C77.0188 281.593 77.7001 280.35 78.3148 279.102C79.6339 276.622 80.174 273.967 80.691 271.574C81.1956 269.161 81.6742 266.921 82.2164 264.901C82.7515 262.88 83.3343 261.08 83.9091 259.522C84.4579 257.958 85.1153 256.669 85.3883 255.508C85.6438 254.353 85.7836 253.46 85.8987 252.852C85.9457 252.571 85.9841 252.344 86.0145 252.159C86.0399 252.004 86.0478 251.922 86.0391 251.921Z" fill="#E0E0E0"/>
<path d="M63.9424 341.339C68.875 338.369 70.2448 329.431 68.1495 324.068C66.0543 318.704 62.4126 313.814 61.8232 308.087C61.37 303.684 62.7869 299.155 61.7363 294.855C60.3188 289.052 54.6201 284.584 54.652 278.611C54.6694 275.259 56.5583 272.095 56.3874 268.747C56.1782 264.642 53.0071 261.402 51.0342 257.796C48.0144 252.275 47.7805 245.729 46.7235 239.527C45.6664 233.324 43.2628 226.688 37.7423 223.668C36.9596 228.943 35.5927 232.561 36.0691 239.7C36.24 242.264 39.2475 247.156 39.6847 252.775C39.9461 256.133 40.1329 259.496 40.3573 262.856C40.5753 266.127 40.8062 269.456 41.9965 272.511C42.908 274.851 44.364 276.974 45.0452 279.391C46.3267 283.939 44.705 288.883 45.7446 293.492C46.6257 297.398 49.3509 300.748 49.9265 304.709C50.7352 310.276 47.1622 316.085 49.0381 321.388C49.9692 324.02 52.1499 326.124 52.7812 328.844C53.2706 330.954 52.7631 333.193 53.2076 335.313C53.9237 338.728 60.4607 341.346 63.9424 341.115" fill="#E0E0E0"/>
<path d="M39.1371 228.893C39.1284 228.894 39.1371 228.995 39.1603 229.19C39.1899 229.412 39.2283 229.697 39.2768 230.056C39.3948 230.817 39.5288 231.934 39.7938 233.378C40.079 234.83 40.8363 236.462 41.4467 238.431C42.0896 240.395 42.7303 242.661 43.3001 245.199C43.8793 247.735 44.368 250.543 44.8813 253.564C45.4113 256.564 45.9543 259.879 47.4725 263.02C48.1755 264.598 48.9639 266.177 49.5576 267.861C50.1665 269.538 50.4525 271.344 50.632 273.203C50.9086 276.935 51.4284 280.815 52.1488 284.724C53.709 292.526 55.1954 299.956 56.5478 306.72C57.9712 313.457 59.2542 319.525 60.3336 324.635C61.4233 329.707 62.3073 333.822 62.927 336.704C63.2383 338.102 63.4823 339.2 63.6561 339.98C63.7393 340.333 63.806 340.613 63.8581 340.83C63.9059 341.021 63.9348 341.118 63.9428 341.116C63.9507 341.114 63.9384 341.014 63.9066 340.82C63.8668 340.6 63.8161 340.316 63.7524 339.96C63.6003 339.175 63.3853 338.071 63.1124 336.665C62.5295 333.776 61.6969 329.65 60.6703 324.564C59.6198 319.449 58.3716 313.373 56.9866 306.628C55.6465 299.866 54.1739 292.438 52.6281 284.638C51.9077 280.725 51.3915 276.902 51.1063 273.154C50.9224 271.286 50.6248 269.425 49.9956 267.706C49.3831 265.986 48.5846 264.401 47.8816 262.835C46.372 259.741 45.8298 256.504 45.2788 253.494C44.7488 250.477 44.2391 247.661 43.636 245.12C43.0424 242.577 42.3748 240.307 41.7051 238.344C41.0651 236.367 40.2839 234.75 39.9791 233.334C39.6895 231.917 39.5223 230.789 39.3738 230.038C39.3058 229.683 39.2515 229.4 39.2095 229.18C39.1697 228.99 39.1451 228.892 39.1371 228.893Z" fill="#EBEBEB"/>
<path d="M152.264 40.9843C156.492 36.0532 167.482 39.1534 175.014 43.1875C175.014 43.1875 180.196 45.631 182.125 46.8987C182.146 46.9038 182.166 46.9081 182.187 46.9139L199.798 44.7144C201.228 44.5356 202.679 44.7904 203.962 45.4456L205.405 46.1812C206.134 46.5534 206.098 47.6068 205.346 47.9282L192.382 53.4704C192.376 53.5421 192.375 53.5581 192.369 53.6297C199.263 58.1591 205.167 62.0383 205.167 62.0383C205.23 62.081 205.294 62.123 205.359 62.1642C207.769 63.7042 210.678 64.2892 213.51 63.7831L220.364 62.5574C220.711 62.4951 221.075 62.5103 221.401 62.6443C222.619 63.1445 222.854 64.7446 221.859 65.5772L213.92 72.2155C212.676 73.2552 210.945 73.4862 209.473 72.8078L205.755 71.0962L186.943 62.1389L189.102 72.8498C189.182 73.2907 188.833 73.6932 188.385 73.6766L187.498 73.644C186.284 73.5991 185.179 72.9316 184.574 71.8782L176.992 57.401L154.8 46.8343C151.843 45.4731 150.787 42.9363 152.264 40.9843Z" fill="#E0E0E0"/>
<path d="M28.9482 88.3955L84.7875 87.1343C84.7875 87.1343 79.6463 78.2602 65.3032 79.8928C51.6044 81.4516 50.7783 75.7979 43.783 75.2578C36.7877 74.7177 31.0913 80.1991 28.9482 88.3955Z" fill="#F5F5F5"/>
<path d="M290.017 118.59H342.621C342.621 118.59 337.969 110.125 324.429 111.357C311.497 112.534 310.84 107.193 304.264 106.535C297.687 105.876 292.208 110.918 290.017 118.59Z" fill="#F5F5F5"/>
<path d="M60.748 60.6837H100.876C100.876 60.6837 97.3281 54.2263 86.9988 55.1661C77.1343 56.0638 76.6326 51.9891 71.6167 51.4874C66.6001 50.9864 62.4205 54.8316 60.748 60.6837Z" fill="#F5F5F5"/>
<path d="M290.068 145.131H316.319C316.319 145.131 313.998 140.906 307.241 141.522C300.788 142.109 300.459 139.444 297.178 139.115C293.896 138.787 291.162 141.303 290.068 145.131Z" fill="#F5F5F5"/>
<path d="M276.942 72.4704H303.192C303.192 72.4704 300.871 68.2458 294.114 68.8605C287.661 69.4477 287.333 66.7826 284.051 66.4539C280.771 66.1267 278.036 68.6426 276.942 72.4704Z" fill="#FAFAFA"/>
<path d="M343.491 341.381C343.491 341.486 270.412 341.57 180.284 341.57C90.1254 341.57 17.0615 341.485 17.0615 341.381C17.0615 341.278 90.1254 341.193 180.284 341.193C270.412 341.193 343.491 341.277 343.491 341.381Z" fill="#263238"/>
<path d="M293.47 213.709C293.361 212.664 292.479 211.87 291.428 211.871L275.969 211.887C274.682 211.888 273.717 213.064 273.966 214.327C274.159 215.302 275.026 215.997 276.02 215.973L291.43 215.974C292.647 215.974 293.597 214.92 293.47 213.709Z" fill="#263238"/>
<path d="M327.189 336.317C326.795 339.011 328.659 341.515 331.353 341.91C334.047 342.304 336.551 340.44 336.946 337.746C337.341 335.052 335.476 332.548 332.782 332.153C330.088 331.759 327.584 333.622 327.189 336.317Z" fill="#263238"/>
<path d="M331.045 337.058L328.037 330.847L329.613 329.844L332.53 336.328L331.045 337.058Z" fill="#455A64"/>
<path d="M303.194 260.584L284.522 211.869L280.978 213.648L299.073 261.919L303.194 260.584Z" fill="#263238"/>
<path d="M318.757 335.867L346.319 324.916C347.346 324.509 347.847 323.346 347.439 322.32L320.006 253.265C317.847 247.831 311.692 245.176 306.258 247.335L294.655 251.945C289.222 254.104 286.567 260.259 288.726 265.692L316.16 334.747C316.568 335.773 317.731 336.274 318.757 335.867Z" fill="#F75D37"/>
<path d="M316.098 335.091C316.098 335.091 316.056 334.945 315.956 334.668C315.846 334.377 315.694 333.969 315.498 333.443C315.081 332.353 314.477 330.774 313.701 328.748C312.116 324.661 309.834 318.775 307.017 311.509C304.178 304.231 300.8 295.574 297.051 285.961C295.172 281.155 293.198 276.11 291.153 270.88C290.641 269.573 290.125 268.254 289.604 266.924C289.053 265.63 288.873 264.205 289.026 262.8C289.36 259.984 291.322 257.386 294.045 256.333C296.758 255.251 299.965 255.821 302.126 257.659C303.193 258.585 304.031 259.754 304.507 261.078C305.029 262.407 305.547 263.727 306.059 265.033C308.113 270.261 310.095 275.303 311.982 280.108C315.765 289.709 319.171 298.355 322.034 305.624C324.906 312.869 327.231 318.738 328.846 322.812C329.654 324.825 330.283 326.394 330.718 327.478C330.932 327.997 331.097 328.399 331.215 328.687C331.33 328.958 331.399 329.094 331.399 329.094C331.399 329.094 331.357 328.947 331.257 328.671C331.148 328.379 330.996 327.972 330.799 327.446C330.382 326.355 329.778 324.776 329.002 322.751C327.417 318.664 325.135 312.779 322.318 305.512C319.479 298.235 316.102 289.576 312.352 279.963C310.472 275.156 308.499 270.11 306.453 264.879C305.941 263.572 305.424 262.252 304.904 260.923C304.414 259.552 303.525 258.302 302.402 257.331C300.129 255.394 296.748 254.792 293.89 255.933C291.02 257.041 288.953 259.781 288.603 262.746C288.439 264.221 288.639 265.741 289.21 267.079C289.732 268.408 290.249 269.726 290.763 271.033C292.816 276.26 294.797 281.301 296.684 286.105C300.466 295.704 303.872 304.351 306.736 311.618C309.607 318.864 311.932 324.732 313.548 328.808C314.356 330.821 314.986 332.39 315.42 333.474C315.634 333.993 315.799 334.395 315.917 334.683C316.029 334.956 316.098 335.091 316.098 335.091Z" fill="#263238"/>
<path d="M314.316 286.016C314.374 286.201 317.983 284.78 322.375 282.843C326.768 280.905 330.281 279.184 330.223 278.999C330.165 278.815 326.557 280.235 322.164 282.173C317.772 284.111 314.258 285.832 314.316 286.016Z" fill="#263238"/>
<path d="M289.921 211.869L286.694 205.496C286.336 204.782 285.734 204.22 284.997 203.914L279.92 201.805L266.268 183.281L264.991 197.462L273.702 206.436C273.702 206.436 279.15 217.918 283.603 217.334C283.603 217.334 283.453 215.649 282.71 214.369C281.259 211.869 282.805 211.869 283.006 211.879L286.702 211.887L289.921 211.869Z" fill="#FFBE9D"/>
<path d="M267.624 202.07C268.038 202.688 271.416 207.259 271.416 207.259L280.977 200.303L277.503 196.909L267.624 202.07Z" fill="#F75D37"/>
<path d="M282.71 214.369C282.71 214.369 285.196 215.782 285.506 216.991V217.704L282.525 217.271L282.71 214.369Z" fill="#FFBE9D"/>
<path d="M286.045 215.733C285.636 215.352 285.211 214.947 285.044 214.414C284.877 213.881 285.079 213.189 285.609 213.013C286.126 212.842 286.655 213.213 287.059 213.578C287.571 214.04 288.059 214.529 288.518 215.043C288.898 215.468 289.282 216.006 289.145 216.559C289.035 217.004 288.585 217.315 288.127 217.343C287.67 217.371 287.222 217.155 286.888 216.84C286.554 216.525 286.322 216.12 286.124 215.706" fill="#FFBE9D"/>
<path d="M288.572 215.516C288.163 215.136 287.738 214.731 287.571 214.198C287.404 213.665 287.606 212.973 288.136 212.797C288.653 212.625 289.182 212.996 289.587 213.361C290.098 213.823 290.586 214.312 291.045 214.826C291.425 215.251 291.809 215.789 291.672 216.342C291.562 216.787 291.112 217.098 290.654 217.126C290.197 217.155 289.749 216.939 289.415 216.624C289.081 216.309 288.849 215.903 288.651 215.489" fill="#FFBE9D"/>
<path d="M280.978 204.637C280.97 204.55 281.622 204.584 282.364 205.229C282.717 205.594 282.945 206.093 283.231 206.636C283.496 207.186 283.774 207.857 283.722 208.622C283.665 209.398 283.244 209.997 282.941 210.506C282.623 211 282.455 211.509 282.345 211.942C282.119 212.818 282.293 213.369 282.241 213.385C282.198 213.417 281.912 212.835 282.084 211.889C282.165 211.427 282.318 210.871 282.642 210.329C282.939 209.802 283.305 209.24 283.347 208.595C283.394 207.946 283.158 207.324 282.917 206.785C282.658 206.249 282.441 205.73 282.169 205.411C281.88 205.108 281.546 204.912 281.335 204.793C281.115 204.671 280.983 204.663 280.978 204.637Z" fill="#EB996E"/>
<path d="M177.941 139.295L167.796 171.738L197.649 202.927L225.011 195.815L177.941 139.295Z" fill="#F5F5F5"/>
<path d="M177.941 139.295C177.941 139.295 178.018 139.379 178.172 139.559C178.335 139.752 178.563 140.02 178.859 140.371C179.474 141.103 180.369 142.167 181.521 143.538C183.855 146.322 187.232 150.351 191.444 155.375C199.905 165.495 211.715 179.622 225.152 195.696L225.34 195.92L225.056 195.994C220.088 197.287 214.915 198.632 209.632 200.006C205.573 201.06 201.58 202.098 197.695 203.107L197.589 203.134L197.513 203.055C186.26 191.277 176.013 180.553 167.688 171.839L167.627 171.776L167.653 171.694C170.8 161.755 173.371 153.637 175.159 147.991C176.048 145.201 176.741 143.022 177.217 141.528C177.45 140.801 177.629 140.243 177.754 139.852C177.877 139.477 177.941 139.295 177.941 139.295C177.593 140.426 174.018 152.036 167.936 171.782L167.902 171.637C176.243 180.335 186.51 191.041 197.784 202.798L197.603 202.747C201.486 201.737 205.48 200.699 209.538 199.643C214.822 198.271 219.995 196.927 224.963 195.637L224.868 195.936C211.535 179.863 199.817 165.738 191.423 155.619C187.227 150.547 183.863 146.481 181.539 143.671C180.384 142.271 179.488 141.186 178.871 140.439C178.572 140.075 178.343 139.794 178.179 139.594C178.022 139.401 177.941 139.295 177.941 139.295Z" fill="#263238"/>
<path d="M178.869 160.696C180.29 158.245 183.992 157.516 186.236 159.245C188.104 160.684 188.961 163.423 191.206 164.145C192.831 164.667 194.615 163.905 196.295 164.206C198.26 164.559 199.72 166.344 200.288 168.258C200.857 170.172 200.703 172.217 200.544 174.208L190.831 174.342L178.869 160.696Z" fill="#E0E0E0"/>
<path d="M160.92 142.254L223.83 207.086L198.194 204.488L162.332 166.627L160.92 142.254Z" fill="#F5F5F5"/>
<path d="M160.92 142.254C160.979 143.202 161.506 151.542 162.457 166.619L162.423 166.54C171.592 176.199 184.126 189.401 198.328 204.36L198.212 204.304C204.55 204.944 211.133 205.61 217.878 206.292C219.924 206.499 221.954 206.706 223.849 206.898L223.694 207.216C188.708 171.011 162.308 143.69 160.92 142.254C162.313 143.683 188.828 170.895 223.965 206.954L224.326 207.325L223.811 207.273C221.916 207.081 219.885 206.875 217.84 206.668C211.095 205.983 204.513 205.315 198.175 204.671L198.107 204.664L198.06 204.614C183.892 189.623 171.389 176.392 162.241 166.713L162.209 166.679L162.207 166.634C161.411 151.548 160.97 143.202 160.92 142.254Z" fill="#263238"/>
<path d="M185.54 168.021C183.596 170.256 183.88 173.829 185.542 176.281C187.204 178.733 189.937 180.244 192.702 181.306C194.938 182.164 197.694 182.711 199.545 181.191" fill="#E0E0E0"/>
<path d="M182.267 164.497C182.385 165.04 181.705 165.441 181.153 165.389C180.601 165.336 180.093 165.032 179.539 165.001C178.026 164.916 177.203 166.71 175.966 167.587C174.523 168.61 172.26 168.171 171.304 166.682C170.48 165.398 170.5 163.505 169.198 162.71C168.477 162.27 167.563 162.33 166.733 162.487C165.903 162.643 165.062 162.882 164.228 162.75C163.393 162.619 162.559 161.972 162.563 161.127L162.113 160.421L161.036 142.529L182.267 164.497Z" fill="#E0E0E0"/>
<path d="M212.929 205.773C214.351 206.018 215.708 205.295 215.924 203.868C216.14 202.442 215.02 200.951 213.59 200.762C212.308 200.592 210.982 201.337 209.748 200.952C208.347 200.516 207.766 198.884 207.41 197.46C207.054 196.037 206.56 194.402 205.199 193.853C202.941 192.943 200.567 195.828 198.218 195.191C196.475 194.719 195.799 192.625 194.434 191.443C193.338 190.495 191.731 190.179 190.358 190.642C188.985 191.104 188.178 191.88 187.88 193.298L198.266 204.252L212.929 205.773Z" fill="#E0E0E0"/>
<path d="M195.729 315.345L193.144 330.247C193.144 330.247 177.129 332.625 176.383 335.332L205.097 341.381L210.077 318.328L195.729 315.345Z" fill="#F75D37"/>
<g opacity="0.6">
<path d="M202.284 330.873C202.808 331.143 203.06 331.848 202.813 332.382C202.565 332.916 201.85 333.179 201.321 332.919C200.793 332.659 200.464 331.822 200.77 331.318C201.075 330.815 201.932 330.552 202.383 330.931" fill="white"/>
</g>
<path opacity="0.6" d="M205.097 341.381L205.593 339.083L177.824 334.115C177.824 334.115 176.428 334.401 176.383 335.332L205.097 341.381Z" fill="white"/>
<path d="M192.709 330.003C192.684 330.144 193.371 330.356 193.966 330.951C194.577 331.532 194.805 332.214 194.945 332.186C195.08 332.186 195.048 331.303 194.314 330.595C193.588 329.879 192.706 329.868 192.709 330.003Z" fill="#263238"/>
<path d="M189.435 330.614C189.374 330.743 189.932 331.109 190.283 331.803C190.654 332.486 190.64 333.152 190.78 333.176C190.908 333.226 191.178 332.425 190.724 331.571C190.278 330.713 189.466 330.481 189.435 330.614Z" fill="#263238"/>
<path d="M186.964 333.858C187.085 333.915 187.428 333.255 187.23 332.412C187.038 331.566 186.44 331.124 186.356 331.229C186.253 331.327 186.592 331.829 186.744 332.524C186.913 333.215 186.828 333.815 186.964 333.858Z" fill="#263238"/>
<path d="M193.675 326.672C193.707 326.812 194.391 326.754 195.172 326.975C195.958 327.18 196.518 327.576 196.616 327.471C196.719 327.387 196.226 326.741 195.302 326.494C194.381 326.24 193.629 326.547 193.675 326.672Z" fill="#263238"/>
<path opacity="0.3" d="M195.22 318.297L194.756 320.952L208.896 323.797L209.414 321.426L195.22 318.297Z" fill="black"/>
<path d="M194.252 323.675C194.238 323.733 194.774 323.936 195.692 323.971C196.149 323.987 196.699 323.953 197.294 323.826C197.592 323.762 197.9 323.675 198.212 323.562C198.363 323.504 198.538 323.452 198.718 323.315C198.904 323.201 199.07 322.848 198.939 322.582C198.839 322.33 198.599 322.18 198.393 322.132C198.183 322.08 198.002 322.087 197.837 322.093C197.502 322.103 197.179 322.145 196.879 322.211C196.278 322.345 195.765 322.567 195.369 322.802C194.573 323.278 194.236 323.755 194.278 323.792C194.331 323.851 194.748 323.48 195.533 323.114C195.924 322.932 196.411 322.761 196.968 322.662C197.247 322.614 197.541 322.583 197.848 322.581C198.168 322.565 198.428 322.618 198.477 322.77C198.495 322.827 198.494 322.848 198.412 322.924C198.328 322.992 198.189 323.046 198.04 323.103C197.751 323.215 197.465 323.305 197.189 323.378C196.636 323.521 196.121 323.589 195.686 323.617C194.815 323.674 194.266 323.598 194.252 323.675Z" fill="#263238"/>
<path d="M194.392 323.915C194.437 323.947 194.821 323.503 195.064 322.606C195.182 322.161 195.251 321.605 195.199 320.99C195.172 320.683 195.114 320.362 195.017 320.039C194.908 319.72 194.783 319.297 194.252 319.12C193.971 319.05 193.687 319.221 193.567 319.394C193.431 319.568 193.378 319.731 193.309 319.89C193.185 320.215 193.122 320.545 193.104 320.858C193.066 321.489 193.209 322.05 193.405 322.473C193.81 323.335 194.359 323.626 194.381 323.581C194.443 323.52 194.011 323.147 193.732 322.342C193.595 321.945 193.504 321.44 193.562 320.894C193.59 320.622 193.653 320.341 193.763 320.069C193.873 319.774 194.039 319.551 194.146 319.606C194.29 319.634 194.484 319.915 194.55 320.183C194.644 320.472 194.705 320.76 194.742 321.038C194.813 321.594 194.786 322.108 194.718 322.531C194.58 323.384 194.32 323.877 194.392 323.915Z" fill="#263238"/>
<path d="M290.081 316.253L283.87 308.145L283.548 307.724L272.97 315.592L282.766 326.353L282.408 337.244C276.952 338.655 276.132 341.381 276.132 341.381L287.474 341.369L297.773 321.527L290.081 316.253Z" fill="#F75D37"/>
<path opacity="0.6" d="M297.772 321.527L287.473 341.369L276.132 341.381L277.408 339.676L286.63 339.159L296.136 320.406L297.772 321.527Z" fill="white"/>
<path d="M282.477 332.254C282.561 332.37 283.214 331.998 284.091 332.022C284.969 332.022 285.612 332.411 285.699 332.297C285.806 332.212 285.166 331.533 284.098 331.523C283.03 331.504 282.372 332.166 282.477 332.254Z" fill="#263238"/>
<path d="M282.658 329.553C282.771 329.632 283.276 328.963 284.18 328.786C285.083 328.6 285.807 329.022 285.881 328.905C285.919 328.853 285.789 328.664 285.47 328.49C285.158 328.317 284.641 328.185 284.082 328.297C283.523 328.409 283.098 328.731 282.876 329.012C282.65 329.295 282.603 329.52 282.658 329.553Z" fill="#263238"/>
<path d="M282.581 326.083C282.706 326.146 283.092 325.49 283.881 325.217C284.668 324.933 285.38 325.2 285.438 325.073C285.468 325.016 285.324 324.858 285.01 324.741C284.702 324.624 284.212 324.572 283.715 324.747C283.218 324.923 282.87 325.271 282.704 325.556C282.534 325.844 282.522 326.058 282.581 326.083Z" fill="#263238"/>
<path d="M279.544 323.395C279.679 323.442 279.998 322.797 280.701 322.341C281.392 321.865 282.11 321.817 282.117 321.674C282.156 321.543 281.277 321.35 280.424 321.927C279.566 322.494 279.408 323.38 279.544 323.395Z" fill="#263238"/>
<path d="M278.064 321.067C278.121 321.105 278.495 320.649 279.053 319.88C279.368 319.431 279.686 318.979 280.011 318.516C280.174 318.25 280.403 318.019 280.536 317.599C280.595 317.388 280.591 317.137 280.467 316.91C280.351 316.67 280.031 316.518 279.782 316.553C279.287 316.625 279.011 316.88 278.723 317.103C278.446 317.342 278.218 317.613 278.035 317.89C277.67 318.45 277.498 319.036 277.44 319.527C277.33 320.531 277.659 321.101 277.698 321.076C277.786 321.057 277.6 320.477 277.789 319.584C277.884 319.143 278.072 318.63 278.415 318.149C278.587 317.91 278.794 317.68 279.037 317.477C279.275 317.284 279.586 317.072 279.819 317.05C279.931 317.046 279.985 317.074 280.033 317.153C280.08 317.236 280.095 317.358 280.063 317.474C280.002 317.716 279.784 317.997 279.626 318.264C279.331 318.747 279.043 319.219 278.757 319.687C278.276 320.505 278.006 321.03 278.064 321.067Z" fill="#263238"/>
<path d="M277.658 321.405C277.712 321.401 277.668 320.805 277.054 320.123C276.457 319.479 275.145 318.79 273.692 319.519C273.588 319.608 273.506 319.769 273.516 319.924C273.521 320.081 273.589 320.198 273.652 320.283C273.787 320.459 273.936 320.547 274.059 320.64C274.323 320.825 274.594 320.976 274.862 321.098C275.397 321.342 275.916 321.466 276.354 321.513C277.236 321.607 277.766 321.437 277.755 321.382C277.748 321.302 277.218 321.341 276.411 321.166C276.009 321.078 275.54 320.93 275.061 320.684C274.821 320.562 274.579 320.416 274.345 320.243C274.226 320.153 274.106 320.069 274.051 319.988C273.996 319.889 274.01 319.917 274.029 319.887C274.066 319.845 274.217 319.798 274.358 319.765C274.497 319.732 274.639 319.709 274.778 319.7C275.058 319.678 275.331 319.701 275.584 319.757C276.093 319.866 276.506 320.115 276.808 320.377C277.413 320.914 277.582 321.437 277.658 321.405Z" fill="#263238"/>
<path opacity="0.6" d="M288.725 321.188C288.725 321.931 289.328 322.533 290.071 322.533C290.813 322.533 291.416 321.931 291.416 321.188C291.416 320.445 290.813 319.843 290.071 319.843C289.328 319.843 288.725 320.445 288.725 321.188Z" fill="white"/>
<path opacity="0.3" d="M273.955 316.673L276.132 319.066L285.289 309.997L284.017 308.335L273.955 316.673Z" fill="black"/>
<path d="M245.765 127.849C251.769 125.753 258.386 125.453 264.554 126.996C267.315 127.687 270.115 128.832 271.886 131.059C273.979 133.694 274.24 137.288 274.561 140.638C275.214 147.452 276.471 154.209 278.314 160.801C279.847 166.29 281.792 171.692 282.621 177.33C283.45 182.968 283.068 189.003 280.195 193.924C275.767 201.511 266.348 204.867 257.565 205.013C252.941 205.09 248.212 204.414 244.111 202.273C240.011 200.134 236.605 196.387 235.604 191.872" fill="#F75D37"/>
<g opacity="0.5">
<path d="M245.765 127.849C251.769 125.753 258.386 125.453 264.554 126.996C267.315 127.687 270.115 128.832 271.886 131.059C273.979 133.694 274.24 137.288 274.561 140.638C275.214 147.452 276.471 154.209 278.314 160.801C279.847 166.29 281.792 171.692 282.621 177.33C283.45 182.968 283.068 189.003 280.195 193.924C275.767 201.511 266.348 204.867 257.565 205.013C252.941 205.09 248.212 204.414 244.111 202.273C240.011 200.134 236.605 196.387 235.604 191.872" fill="black"/>
</g>
<path d="M257.836 134.8C257.78 134.864 259.048 135.663 260.348 137.618C261.005 138.585 261.652 139.82 262.308 141.232C262.973 142.636 263.661 144.224 264.644 145.766C265.627 147.302 266.871 148.606 268.273 149.398C269.664 150.214 271.194 150.41 272.384 150.202C273.588 150.009 274.467 149.482 274.952 149.019C275.202 148.793 275.366 148.587 275.462 148.439C275.559 148.291 275.603 148.211 275.589 148.202C275.554 148.175 275.342 148.479 274.834 148.88C274.334 149.282 273.479 149.733 272.337 149.875C271.2 150.028 269.793 149.815 268.487 149.025C267.175 148.258 265.99 147.004 265.036 145.513C264.08 144.015 263.385 142.447 262.695 141.045C262.015 139.638 261.324 138.392 260.618 137.429C259.919 136.461 259.224 135.775 258.702 135.362C258.18 134.946 257.85 134.777 257.836 134.8Z" fill="#E0E0E0"/>
<path d="M270.56 202.617C270.576 202.616 270.583 202.42 270.582 202.05C270.574 201.629 270.566 201.092 270.554 200.427C270.522 199.018 270.449 196.981 270.339 194.464C270.12 189.431 269.723 182.481 269.122 174.817C268.518 167.151 267.825 160.224 267.255 155.217C266.971 152.714 266.724 150.691 266.536 149.294C266.443 148.636 266.368 148.104 266.309 147.687C266.253 147.32 266.215 147.129 266.199 147.131C266.183 147.133 266.19 147.328 266.216 147.698C266.252 148.118 266.298 148.653 266.355 149.314C266.495 150.775 266.689 152.789 266.926 155.251C267.411 160.264 268.053 167.191 268.656 174.853C269.257 182.513 269.705 189.454 270.009 194.482C270.16 196.951 270.283 198.97 270.372 200.435C270.419 201.098 270.458 201.634 270.488 202.053C270.519 202.423 270.544 202.617 270.56 202.617Z" fill="#E0E0E0"/>
<path d="M268.754 171.835C268.759 171.959 271.531 171.926 274.919 171.503C278.309 171.086 281.003 170.441 280.979 170.32C280.953 170.188 278.232 170.624 274.862 171.039C271.493 171.46 268.747 171.701 268.754 171.835Z" fill="#E0E0E0"/>
<path d="M270.995 171.768C270.935 171.755 270.757 172.25 270.616 173.086C270.547 173.505 270.489 174.003 270.467 174.57C270.462 174.855 270.468 175.186 270.622 175.517C270.775 175.858 271.127 176.137 271.56 176.146C271.778 176.151 272.019 176.046 272.154 175.874C272.298 175.703 272.35 175.497 272.363 175.322C272.388 174.962 272.299 174.664 272.234 174.395C272.094 173.847 271.915 173.37 271.739 172.983C271.384 172.207 271.053 171.792 271.003 171.823C270.942 171.857 271.166 172.324 271.432 173.104C271.564 173.494 271.704 173.964 271.816 174.494C271.87 174.761 271.934 175.036 271.908 175.281C271.885 175.529 271.759 175.68 271.562 175.679C271.073 175.668 270.877 175.095 270.897 174.572C270.894 174.032 270.917 173.536 270.943 173.124C270.999 172.297 271.061 171.782 270.995 171.768Z" fill="#E0E0E0"/>
<path d="M239.793 130.482L268.873 127.085C272.682 126.64 275.41 123.191 274.966 119.381L274.336 113.986C273.891 110.176 270.442 107.448 266.632 107.893L237.552 111.289C233.742 111.734 231.014 115.183 231.459 118.993L232.088 124.388C232.533 128.199 235.982 130.927 239.793 130.482Z" fill="#455A64"/>
<path d="M266.152 108.35C266.156 108.336 266.064 108.289 265.875 108.229C265.686 108.171 265.397 108.112 265.019 108.101C264.272 108.077 263.128 108.311 262.04 109.134C260.98 109.931 259.752 111.065 259.042 112.735C258.304 114.371 258.062 116.377 258.218 118.407C258.336 120.462 259.079 122.379 260.175 123.792C261.266 125.22 262.698 126.115 263.976 126.528C265.259 126.954 266.377 126.972 267.116 126.872C267.488 126.83 267.771 126.76 267.958 126.703C268.146 126.644 268.241 126.607 268.238 126.591C268.228 126.55 267.829 126.652 267.1 126.691C266.376 126.733 265.303 126.664 264.086 126.217C262.871 125.78 261.539 124.905 260.518 123.532C259.494 122.169 258.799 120.351 258.684 118.374C258.533 116.393 258.755 114.476 259.437 112.907C260.08 111.323 261.235 110.205 262.238 109.399C263.249 108.583 264.306 108.317 265.021 108.284C265.746 108.252 266.142 108.394 266.152 108.35Z" fill="#263238"/>
<path d="M249.531 109.819L254.015 109.376C252.823 109.705 251.814 110.554 251.137 111.59C250.46 112.626 250.093 113.838 249.904 115.06C249.101 120.219 251.842 125.77 256.256 128.559L252.648 129.041C252.648 129.041 242.294 119.79 249.531 109.819Z" fill="#263238"/>
<path d="M244.442 119.314C246.745 119.949 249.334 119.433 251.218 117.966C253.101 116.498 254.233 114.112 254.179 111.725C254.129 109.496 253.121 107.224 253.814 105.104C254.29 103.649 255.509 102.514 255.918 101.039C256.529 98.8363 255.197 96.61 253.925 94.7109C253.109 93.4925 252.276 92.2551 251.139 91.3291C250.002 90.4039 248.495 89.8196 247.06 90.1237" fill="#263238"/>
<path d="M223.885 90.3199C224.009 92.0025 222.898 93.5062 221.778 94.7682C220.658 96.0308 219.413 97.3463 219.17 99.0166C218.742 101.976 221.639 104.724 221.041 107.654C220.721 109.224 219.435 110.485 219.206 112.072C218.984 113.606 219.807 115.107 220.825 116.276C221.845 117.444 223.087 118.418 223.988 119.679C224.938 121.007 225.46 122.584 226.142 124.068C226.824 125.553 227.741 127.025 229.177 127.804C231.335 128.975 234.358 128.424 236.013 130.238C237.612 131.991 239.572 132.268 241.543 133.59" fill="#263238"/>
<path d="M249.749 92.893C249.793 91.3668 248.382 90.1874 246.961 89.6285C245.54 89.0695 243.961 88.8589 242.694 88.006C241.573 87.2508 240.819 86.0736 239.87 85.1114C237.541 82.7505 233.905 81.7716 230.705 82.6448C227.506 83.5172 224.871 86.2068 224.063 89.4236C223.517 91.597 223.89 94.1672 225.603 95.6116C227.592 97.2877 230.539 96.9155 233.088 96.3942C235.636 95.873 238.519 95.3582 240.647 96.8547C241.93 97.7568 242.666 99.2251 243.45 100.583C244.234 101.942 245.219 103.329 246.701 103.839C248.184 104.35 250.198 103.468 250.256 101.9" fill="#263238"/>
<path d="M243.731 93.2065C245.05 93.3491 246.039 94.4764 246.01 95.802L244.486 130.292C244.423 134.365 238.469 136.654 234.107 136.552C229.703 136.45 229.561 134.29 229.506 130.414C229.414 123.94 229.422 121.509 229.419 121.546C229.419 121.546 223.856 120.61 222.719 113.346C222.154 109.734 222.349 103.814 222.664 98.9746C222.949 94.619 225.846 89.2809 230.186 89.7494L243.731 93.2065Z" fill="#FFBE9D"/>
<path d="M224.041 103.125C224.022 103.617 224.424 104.038 224.936 104.066C225.448 104.095 225.88 103.721 225.898 103.229C225.916 102.737 225.515 102.315 225.003 102.287C224.49 102.259 224.059 102.634 224.041 103.125Z" fill="#263238"/>
<path d="M223.943 102.059C224.058 102.18 224.764 101.66 225.766 101.665C226.768 101.656 227.502 102.172 227.61 102.05C227.664 101.996 227.547 101.776 227.227 101.543C226.912 101.309 226.375 101.083 225.75 101.084C225.126 101.086 224.601 101.315 224.298 101.55C223.99 101.785 223.885 102.005 223.943 102.059Z" fill="#263238"/>
<path d="M234.018 103.382C233.999 103.874 234.401 104.295 234.914 104.324C235.426 104.352 235.857 103.979 235.875 103.487C235.894 102.995 235.492 102.573 234.98 102.545C234.468 102.516 234.036 102.891 234.018 103.382Z" fill="#263238"/>
<path d="M233.792 102.267C233.907 102.389 234.615 101.868 235.616 101.873C236.617 101.864 237.352 102.381 237.46 102.259C237.514 102.204 237.398 101.985 237.077 101.751C236.762 101.518 236.225 101.291 235.6 101.292C234.976 101.294 234.451 101.523 234.148 101.758C233.841 101.994 233.735 102.213 233.792 102.267Z" fill="#263238"/>
<path d="M230.138 109.691C230.143 109.633 229.521 109.525 228.511 109.393C228.256 109.366 228.013 109.315 227.971 109.14C227.911 108.955 228.018 108.68 228.143 108.382C228.385 107.763 228.638 107.115 228.904 106.435C229.961 103.664 230.727 101.384 230.615 101.343C230.502 101.302 229.555 103.514 228.498 106.286C228.244 106.969 228 107.621 227.769 108.244C227.672 108.534 227.504 108.864 227.635 109.248C227.703 109.439 227.891 109.578 228.055 109.623C228.218 109.674 228.362 109.677 228.489 109.685C229.504 109.742 230.135 109.748 230.138 109.691Z" fill="#263238"/>
<path d="M229.42 121.547C229.42 121.547 234.304 121.873 239.15 118.975C239.15 118.975 236.779 123.958 229.514 123.262L229.42 121.547Z" fill="#EB996E"/>
<path d="M230.557 112.106C230.918 111.631 231.55 111.371 232.177 111.44C232.612 111.487 233.051 111.698 233.314 112.053C233.577 112.408 233.631 112.91 233.39 113.248C233.119 113.628 232.554 113.714 232.076 113.577C231.598 113.44 231.187 113.124 230.797 112.809C230.689 112.723 230.579 112.631 230.512 112.513C230.444 112.394 230.431 112.238 230.514 112.14" fill="#EB996E"/>
<path d="M233.086 110.391C232.923 110.38 232.918 111.469 231.985 112.238C231.054 113.011 229.895 112.886 229.886 113.038C229.871 113.106 230.144 113.25 230.634 113.264C231.114 113.282 231.815 113.129 232.386 112.658C232.955 112.186 233.2 111.555 233.238 111.109C233.281 110.654 233.16 110.384 233.086 110.391Z" fill="#263238"/>
<path d="M233.345 100.512C233.444 100.785 234.444 100.658 235.619 100.803C236.798 100.924 237.745 101.27 237.901 101.026C237.971 100.909 237.806 100.652 237.423 100.388C237.044 100.124 236.438 99.8723 235.733 99.792C235.027 99.7131 234.381 99.8238 233.952 99.9969C233.52 100.169 233.302 100.383 233.345 100.512Z" fill="#263238"/>
<path d="M224.317 99.1592C224.492 99.3872 225.183 99.1527 226.014 99.1433C226.843 99.1049 227.546 99.2997 227.708 99.0622C227.779 98.9463 227.669 98.7183 227.362 98.5025C227.06 98.2868 226.554 98.1108 225.984 98.1268C225.413 98.1434 224.919 98.349 224.629 98.5814C224.336 98.8138 224.24 99.0484 224.317 99.1592Z" fill="#263238"/>
<path d="M248.801 117.096C246.805 117.498 244.63 116.884 243.137 115.498C241.645 114.111 240.875 111.986 241.131 109.966C241.356 108.182 242.318 106.368 241.7 104.68C240.882 102.449 237.754 101.762 236.924 99.535C236.442 98.2404 236.875 96.7266 236.328 95.4581C235.813 94.2657 234.558 93.5786 233.337 93.137C232.115 92.6953 230.806 92.3905 229.78 91.5934C228.755 90.7963 228.115 89.2918 228.777 88.1739C234.194 88.8234 239.533 90.1201 244.643 92.0292C245.829 92.4716 247.073 93.0037 247.774 94.0572C248.515 95.1714 248.48 96.6114 248.418 97.9487C248.114 104.468 247.809 110.988 247.505 117.508" fill="#263238"/>
<path d="M252.716 123.13C252.659 123.139 252.814 122.429 252.339 121.322C252.106 120.773 251.696 120.154 251.1 119.552C250.505 118.946 249.702 118.394 248.752 117.89C247.807 117.375 246.715 116.908 245.598 116.268C244.49 115.629 243.344 114.759 242.594 113.472C242.22 112.836 241.987 112.075 241.985 111.293C241.982 110.512 242.158 109.748 242.313 108.99C242.463 108.235 242.615 107.453 242.463 106.71C242.332 105.959 241.812 105.337 241.122 104.946C240.437 104.539 239.654 104.289 238.913 103.94C238.18 103.597 237.438 103.109 237.035 102.37C236.627 101.644 236.519 100.831 236.49 100.076C236.463 99.3134 236.512 98.58 236.503 97.8726C236.495 97.1667 236.434 96.4797 236.211 95.8693C235.993 95.2583 235.608 94.7421 235.11 94.3808C234.113 93.6459 232.932 93.3875 231.891 93.1189C230.842 92.8575 229.875 92.5455 229.151 92.0321C228.416 91.5239 228.013 90.8245 227.845 90.2323C227.674 89.6299 227.755 89.1267 227.87 88.8263C227.994 88.5236 228.121 88.4035 228.121 88.4035C228.139 88.4143 228.038 88.5526 227.943 88.8509C227.856 89.1477 227.803 89.6248 227.986 90.1903C228.166 90.7478 228.568 91.3979 229.271 91.8584C229.971 92.3312 230.906 92.6164 231.955 92.8604C232.995 93.1145 234.214 93.3534 235.298 94.131C235.839 94.5133 236.28 95.0896 236.523 95.7557C236.772 96.421 236.838 97.1472 236.85 97.869C236.864 98.593 236.82 99.3272 236.85 100.063C236.88 100.796 236.992 101.546 237.355 102.187C237.711 102.836 238.363 103.269 239.073 103.602C239.787 103.939 240.575 104.186 241.316 104.624C241.683 104.843 242.03 105.116 242.302 105.461C242.575 105.805 242.746 106.219 242.831 106.637C242.998 107.485 242.825 108.303 242.675 109.065C242.516 109.829 242.345 110.569 242.346 111.292C242.344 112.01 242.551 112.702 242.896 113.302C243.59 114.511 244.682 115.367 245.757 116C246.843 116.639 247.932 117.122 248.881 117.658C249.834 118.183 250.654 118.768 251.252 119.407C251.851 120.042 252.256 120.692 252.475 121.267C252.702 121.841 252.759 122.324 252.759 122.644C252.768 122.805 252.748 122.927 252.741 123.009C252.73 123.089 252.722 123.131 252.716 123.13Z" fill="#263238"/>
<path d="M231.551 128.112C231.554 128.125 231.432 128.16 231.194 128.218C231.075 128.252 230.926 128.277 230.747 128.294C230.569 128.321 230.362 128.339 230.129 128.336C229.204 128.359 227.797 128.114 226.396 127.164C225.707 126.686 225.015 126.038 224.512 125.173C223.988 124.315 223.735 123.261 223.544 122.189C223.343 121.12 223.173 119.976 222.603 118.979C222.037 117.977 220.984 117.308 220.037 116.452C219.052 115.609 218.421 114.393 218.259 113.179C218.082 111.961 218.353 110.73 218.93 109.768C219.489 108.806 220.149 108.005 220.447 107.105C220.762 106.214 220.816 105.312 220.756 104.504C220.609 102.88 220.137 101.612 219.838 100.747C219.524 99.8803 219.339 99.4039 219.366 99.3923C219.377 99.3873 219.439 99.5002 219.544 99.7196C219.649 99.9397 219.798 100.266 219.974 100.694C220.316 101.549 220.834 102.81 221.021 104.481C221.1 105.312 221.063 106.259 220.742 107.208C220.434 108.173 219.756 109.012 219.232 109.939C218.694 110.857 218.458 111.986 218.624 113.127C218.789 114.268 219.355 115.37 220.292 116.175C221.196 117 222.299 117.694 222.922 118.796C223.534 119.882 223.693 121.065 223.885 122.128C224.066 123.2 224.3 124.202 224.782 125.017C225.246 125.843 225.897 126.474 226.55 126.946C227.878 127.888 229.23 128.168 230.131 128.19C231.044 128.215 231.544 128.069 231.551 128.112Z" fill="#263238"/>
<path d="M252.638 93.5033C252.638 93.5033 252.723 93.5873 252.759 93.8002C252.802 94.0087 252.742 94.3555 252.479 94.6726C252.222 94.9832 251.779 95.2959 251.179 95.33C250.582 95.3444 249.964 95.0831 249.339 94.779C248.714 94.4641 248.026 94.186 247.22 94.1535C246.422 94.1035 245.56 94.2259 244.657 94.3866C243.752 94.5444 242.792 94.7522 241.758 94.7602C240.738 94.7739 239.589 94.4677 238.784 93.6749C237.97 92.9024 237.506 91.9199 237.072 91.0193C236.641 90.1121 236.239 89.2353 235.686 88.528C234.612 87.0633 232.783 86.6608 231.495 86.9989C230.167 87.3334 229.368 88.2384 228.968 88.869C228.56 89.5228 228.472 89.9572 228.435 89.9448C228.424 89.942 228.438 89.8341 228.49 89.6328C228.547 89.4337 228.648 89.1412 228.842 88.7944C229.217 88.1211 230.014 87.1372 231.428 86.7412C232.124 86.5529 232.946 86.5377 233.761 86.7875C234.58 87.0206 235.375 87.56 235.959 88.3137C236.554 89.0601 236.971 89.9593 237.405 90.86C237.84 91.7563 238.297 92.6968 239.041 93.3998C239.775 94.1187 240.791 94.3953 241.758 94.3917C242.737 94.3895 243.685 94.1955 244.597 94.0449C245.509 93.8928 246.4 93.7763 247.243 93.8421C248.091 93.8878 248.849 94.2128 249.456 94.5401C250.07 94.8594 250.648 95.1135 251.173 95.1193C251.693 95.1113 252.12 94.8456 252.366 94.577C252.621 94.3026 252.697 94.0029 252.682 93.8081C252.675 93.6097 252.616 93.5113 252.638 93.5033Z" fill="#455A64"/>
<path d="M248.574 91.4153C246.204 90.8679 244.384 88.52 244.444 86.0888C244.504 83.6576 246.438 81.4031 248.832 80.9738C249.987 80.7667 251.325 81.023 252.02 81.97C252.684 82.8764 252.641 84.2296 253.489 84.9673C254.397 85.7572 255.789 85.4169 256.965 85.6711C258.786 86.0642 260.005 88.061 259.798 89.913C259.591 91.765 258.169 93.3469 256.445 94.0528C254.72 94.7594 252.75 94.6798 250.96 94.16C249.17 93.6401 247.531 92.7069 245.947 91.7244" fill="#263238"/>
<path d="M257.298 86.1663C257.335 86.1772 257.215 86.7238 256.766 87.4985C256.323 88.2717 255.496 89.2375 254.331 89.9673C253.163 90.692 251.932 91.0091 251.042 91.0663C250.149 91.1279 249.605 90.9954 249.611 90.9577C249.616 90.8926 250.16 90.928 251.012 90.8013C251.862 90.679 253.017 90.3373 254.131 89.6473C255.242 88.9508 256.056 88.0646 256.541 87.3551C257.03 86.6456 257.238 86.1417 257.298 86.1663Z" fill="#455A64"/>
<path d="M253.455 94.1947C253.361 94.2744 252.251 92.4231 250.017 91.1641C247.802 89.8681 245.644 89.8435 245.666 89.7219C245.665 89.6799 246.197 89.6227 247.048 89.7385C247.897 89.8514 249.06 90.1823 250.204 90.8368C251.346 91.4949 252.218 92.3326 252.743 93.0088C253.273 93.6858 253.492 94.1737 253.455 94.1947Z" fill="#F75D37"/>
<path d="M200.701 173.046L188.995 170.768L191.107 173.773L186.079 176.282L181.882 174.317C181.882 174.317 182.187 175.236 183.105 176.77C184.023 178.303 185.248 179.53 186.045 179.592C187.237 179.685 187.449 179.701 186.045 179.592C186.045 179.592 186.302 181.018 187.599 182.401C188.373 183.226 190.408 184.527 192.888 183.865L200.771 181.017L200.701 173.046Z" fill="#FFBE9D"/>
<path d="M188.865 178.93C188.937 178.999 188.288 179.604 187.247 179.719C186.207 179.845 185.438 179.402 185.492 179.319C185.532 179.215 186.278 179.46 187.204 179.345C188.132 179.247 188.803 178.838 188.865 178.93Z" fill="#EB996E"/>
<path d="M190.395 181.431C190.468 181.498 189.966 182.065 189.094 182.289C188.223 182.52 187.508 182.269 187.54 182.175C187.56 182.067 188.227 182.132 188.999 181.924C189.774 181.729 190.324 181.347 190.395 181.431Z" fill="#EB996E"/>
<path d="M193.363 172.562C193.381 172.616 192.962 172.788 192.34 173.157C191.711 173.518 190.903 174.11 189.974 174.745C189.044 175.38 188.109 175.854 187.379 176.041C186.651 176.238 186.178 176.194 186.178 176.151C186.173 176.091 186.624 176.039 187.297 175.787C187.974 175.544 188.845 175.058 189.763 174.432C190.681 173.805 191.535 173.232 192.214 172.922C192.889 172.602 193.35 172.517 193.363 172.562Z" fill="#EB996E"/>
<path d="M264.548 192.526C264.548 192.526 264.95 192.777 265.946 194.553C269.011 200.019 270.249 213.12 258.695 224.808C243.762 239.916 226.28 264.628 226.28 264.628L212.553 322.662L191.817 318.172L202.503 257.85L231.807 203.496L264.548 192.526Z" fill="#263238"/>
<path d="M287.423 304.851L255.48 255.965L245.789 213.768L221.117 225.893L233.492 268.723L272.969 317.898L287.423 304.851Z" fill="#263238"/>
<path d="M212.553 322.662C212.547 322.661 212.563 322.564 212.601 322.376C212.644 322.171 212.704 321.895 212.778 321.544C212.947 320.794 213.188 319.723 213.497 318.354C214.141 315.567 215.065 311.569 216.206 306.637C218.534 296.735 221.742 283.088 225.285 268.014C225.563 266.839 225.839 265.673 226.097 264.584L226.106 264.545L226.132 264.513C235.186 252.935 243.429 242.689 249.5 235.412C252.538 231.776 255.02 228.872 256.779 226.91C257.646 225.918 258.353 225.179 258.82 224.67C259.048 224.429 259.227 224.24 259.36 224.098C259.484 223.97 259.549 223.907 259.553 223.912C259.557 223.916 259.502 223.988 259.387 224.123C259.26 224.271 259.09 224.468 258.874 224.72C258.424 225.245 257.735 225.998 256.885 227.005C255.16 228.994 252.709 231.923 249.698 235.577C243.682 242.894 235.475 253.166 226.428 264.745L226.463 264.672C226.206 265.761 225.93 266.927 225.652 268.102C222.067 283.165 218.82 296.804 216.465 306.7C215.275 311.62 214.311 315.608 213.638 318.389C213.3 319.751 213.036 320.817 212.851 321.563C212.761 321.91 212.69 322.183 212.638 322.386C212.588 322.57 212.56 322.665 212.553 322.662Z" fill="#455A64"/>
<path d="M250.012 207.958C250.022 207.979 249.847 208.084 249.51 208.233C249.173 208.383 248.669 208.562 248.025 208.713C246.747 209.019 244.858 209.136 242.901 208.566C240.942 207.997 239.412 206.884 238.498 205.939C238.036 205.466 237.707 205.044 237.503 204.737C237.299 204.431 237.207 204.249 237.227 204.235C237.281 204.196 237.734 204.872 238.683 205.746C239.622 206.62 241.122 207.655 243.006 208.204C244.891 208.753 246.711 208.684 247.972 208.451C249.243 208.223 249.988 207.896 250.012 207.958Z" fill="#455A64"/>
<path d="M267.624 194.995C255.134 201.574 234.849 205.507 228.367 202.836L228.14 178.767C228.14 178.767 219.253 164.115 219.22 158.576C219.172 150.593 229.111 132.389 229.111 132.389L244.03 128.433C247.541 128.418 250.381 129.222 252.668 130.437C258.414 133.49 261.547 139.907 260.9 146.382L257.142 170.325L267.624 194.995Z" fill="#F75D37"/>
<g opacity="0.3">
<path d="M251.614 130.414C252.48 130.283 252.803 131.7 252.182 132.317C251.561 132.934 250.593 132.969 249.728 133.104C245.843 133.711 242.839 137.041 241.423 140.71C240.008 144.378 239.877 148.394 239.644 152.32C239.412 156.245 239.028 160.287 237.183 163.76C233.75 157.674 233.215 150.033 235.765 143.528C238.316 137.023 243.901 131.782 250.556 129.65" fill="black"/>
</g>
<path d="M252.668 130.437C252.668 130.437 250.521 126.896 243.318 128.433C238.505 129.461 227.993 139.557 230.926 155.785C233.859 172.015 241.721 177.756 241.721 177.756C241.721 177.756 234.487 152.916 238.505 142.075C242.522 131.235 252.668 130.437 252.668 130.437Z" fill="#263238"/>
<g opacity="0.3">
<path d="M228.414 183.912C231.389 184.87 234.242 186.062 237.34 186.477C240.437 186.892 243.676 186.734 246.552 185.511C250.528 183.819 253.481 180.194 255.002 176.149C256.523 172.105 256.732 167.669 256.328 163.366C253.608 166.723 253.938 171.7 251.628 175.351C250.183 177.636 247.828 179.191 245.411 180.403C240.146 183.041 234.302 184.043 228.414 183.912Z" fill="black"/>
</g>
<path d="M237.361 159.321C237.361 159.321 236.393 177.594 258.685 173.957L260.931 179.243C260.931 179.243 237.492 184.193 234.17 164.785L237.361 159.321Z" fill="#263238"/>
<path d="M257.676 136.603C259.623 139.379 260.129 142.919 259.329 146.214L253.778 171.072C251.392 178.065 244.594 182.31 240.371 182.879L200.771 187.052V172.295L237.528 166.835L239.252 146.706C239.403 143.998 240.739 139.132 242.461 137.037C244.386 134.695 247.348 131.508 252.181 132.318C255.148 132.814 256.403 134.785 257.676 136.603Z" fill="#F75D37"/>
<path d="M258.825 147.183C258.838 147.184 258.823 147.378 258.784 147.744C258.745 148.11 258.679 148.649 258.585 149.343C258.398 150.728 258.102 152.732 257.666 155.195C257.232 157.658 256.656 160.581 255.914 163.805C255.539 165.416 255.144 167.105 254.663 168.845C254.177 170.58 253.588 172.369 252.722 174.091C251.864 175.814 250.728 177.364 249.375 178.584C248.029 179.811 246.526 180.753 245.016 181.456C241.988 182.877 238.99 183.397 236.507 183.666C234.011 183.921 231.983 183.936 230.586 183.95C229.916 183.947 229.38 183.944 228.976 183.942C228.608 183.935 228.415 183.926 228.414 183.913C228.414 183.9 228.607 183.885 228.974 183.866C229.378 183.851 229.913 183.83 230.582 183.803C231.978 183.744 234.001 183.689 236.477 183.401C238.941 183.1 241.899 182.556 244.868 181.141C246.348 180.443 247.815 179.513 249.126 178.312C250.442 177.117 251.544 175.612 252.386 173.921C253.236 172.232 253.821 170.467 254.309 168.744C254.792 167.019 255.194 165.331 255.577 163.726C256.335 160.512 256.937 157.599 257.404 155.145C257.874 152.692 258.209 150.698 258.441 149.32C258.552 148.659 258.642 148.131 258.709 147.733C258.773 147.37 258.813 147.181 258.825 147.183Z" fill="#263238"/>
<path d="M238.596 171.071C238.497 171.102 238.097 170.14 237.703 168.921C237.31 167.701 237.07 166.687 237.169 166.655C237.268 166.623 237.668 167.585 238.062 168.805C238.456 170.024 238.695 171.039 238.596 171.071Z" fill="#263238"/>
<path d="M240.847 170.504C240.79 170.585 239.805 169.969 238.826 168.934C237.843 167.903 237.278 166.888 237.362 166.835C237.452 166.774 238.142 167.671 239.099 168.674C240.052 169.682 240.912 170.417 240.847 170.504Z" fill="#263238"/>
<path d="M204.219 171.781C204.218 171.776 204.274 171.761 204.384 171.739C204.515 171.715 204.676 171.685 204.875 171.648C205.336 171.571 205.969 171.467 206.773 171.333C208.457 171.068 210.851 170.693 213.815 170.228C219.82 169.321 228.133 168.064 237.5 166.648L237.341 166.815C237.472 165.443 237.61 163.991 237.751 162.52C238.228 157.295 238.727 152.325 238.973 147.785C239.157 145.505 239.586 143.364 240.204 141.425C240.823 139.493 241.634 137.731 242.792 136.412C245.141 133.855 247.766 132.499 249.7 132.255C250.663 132.114 251.421 132.212 251.921 132.295C252.169 132.35 252.355 132.407 252.481 132.441C252.606 132.476 252.669 132.498 252.667 132.504C252.664 132.578 251.622 132.107 249.722 132.401C247.839 132.681 245.277 134.052 242.993 136.588C241.886 137.871 241.099 139.609 240.502 141.519C239.905 143.435 239.491 145.56 239.32 147.811C239.093 152.351 238.603 157.331 238.127 162.555C237.985 164.026 237.846 165.478 237.714 166.85L237.7 166.996L237.555 167.017C228.182 168.384 219.862 169.599 213.853 170.475C210.881 170.892 208.482 171.229 206.794 171.466C205.986 171.572 205.349 171.655 204.886 171.716C204.685 171.738 204.521 171.757 204.39 171.771C204.277 171.785 204.219 171.787 204.219 171.781Z" fill="#263238"/>
<path d="M226.882 183.827C226.779 183.838 226.359 180.489 225.944 176.349C225.53 172.208 225.279 168.843 225.383 168.833C225.486 168.822 225.906 172.17 226.32 176.312C226.734 180.451 226.986 183.817 226.882 183.827Z" fill="#FAFAFA"/>
<path d="M255.867 161.384C255.866 161.436 254.904 161.447 253.35 161.423C251.795 161.399 249.648 161.34 247.277 161.251C244.905 161.162 242.759 161.06 241.208 160.968C239.656 160.875 238.698 160.793 238.701 160.74C238.704 160.688 239.668 160.677 241.222 160.701C242.777 160.725 244.923 160.785 247.291 160.874C249.66 160.963 251.804 161.064 253.356 161.156C254.907 161.248 255.867 161.332 255.867 161.384Z" fill="#FAFAFA"/>
<path d="M230.732 156.68C230.735 156.73 230.109 156.822 229.091 156.896C228.073 156.971 226.662 157.02 225.104 156.99C223.546 156.959 222.138 156.854 221.123 156.74C220.109 156.625 219.487 156.509 219.492 156.459C219.498 156.406 220.129 156.428 221.144 156.474C222.159 156.52 223.561 156.583 225.111 156.614C226.661 156.643 228.064 156.637 229.08 156.63C230.097 156.624 230.728 156.626 230.732 156.68Z" fill="#FAFAFA"/>
<path d="M234.004 139.486C233.949 139.583 232.428 138.784 230.454 138.041C228.483 137.288 226.816 136.876 226.839 136.767C226.855 136.672 228.584 136.924 230.588 137.689C232.595 138.445 234.056 139.403 234.004 139.486Z" fill="#FAFAFA"/>
<path d="M262.76 184.66C262.764 184.672 262.653 184.727 262.436 184.821C262.178 184.927 261.863 185.057 261.482 185.214C260.652 185.552 259.436 186.005 257.923 186.533C254.897 187.592 250.655 188.89 245.885 189.986C241.112 191.076 236.727 191.752 233.542 192.116C231.95 192.299 230.658 192.419 229.764 192.476C229.352 192.501 229.013 192.521 228.733 192.538C228.497 192.548 228.374 192.547 228.372 192.533C228.371 192.52 228.493 192.497 228.727 192.462C229.004 192.426 229.342 192.383 229.75 192.33C230.639 192.228 231.924 192.067 233.509 191.851C236.679 191.421 241.042 190.705 245.801 189.618C250.557 188.526 254.797 187.272 257.838 186.28C259.359 185.786 260.586 185.371 261.431 185.076C261.822 184.946 262.145 184.838 262.409 184.75C262.635 184.679 262.756 184.648 262.76 184.66Z" fill="#FAFAFA"/>
<path d="M260.399 141.359C260.396 141.463 256.128 141.41 250.867 141.24C245.605 141.069 241.343 140.847 241.347 140.744C241.35 140.639 245.618 140.693 250.88 140.863C256.14 141.033 260.403 141.255 260.399 141.359Z" fill="#FAFAFA"/>
<path d="M209.384 185.975C209.28 185.98 209.071 182.745 208.918 178.753C208.764 174.759 208.724 171.519 208.829 171.515C208.933 171.511 209.141 174.745 209.295 178.738C209.448 182.731 209.488 185.972 209.384 185.975Z" fill="#FAFAFA"/>
<path d="M128.388 111.933C134.785 110.724 141.532 111.428 147.541 113.93C150.231 115.05 152.892 116.636 154.346 119.16C156.064 122.147 155.781 125.825 155.596 129.266C155.219 136.265 155.463 143.296 156.325 150.253C157.042 156.043 158.188 161.809 158.168 167.644C158.149 173.479 156.843 179.53 153.185 184.075C147.546 191.082 137.5 193.045 128.584 191.856C123.891 191.23 119.206 189.824 115.381 187.034C111.556 184.244 108.677 179.932 108.351 175.208" fill="#455A64"/>
<path d="M139.55 120.808C139.484 120.865 140.647 121.867 141.665 124.045C142.183 125.123 142.651 126.473 143.099 128.001C143.559 129.525 144.014 131.237 144.773 132.948C145.536 134.653 146.596 136.162 147.895 137.177C149.179 138.215 150.698 138.648 151.935 138.618C153.183 138.606 154.154 138.206 154.715 137.811C155.003 137.621 155.2 137.437 155.32 137.302C155.441 137.167 155.497 137.092 155.486 137.081C155.454 137.048 155.193 137.324 154.618 137.653C154.051 137.983 153.117 138.31 151.939 138.28C150.764 138.262 149.372 137.832 148.17 136.833C146.958 135.856 145.95 134.407 145.211 132.752C144.471 131.089 144.006 129.396 143.521 127.872C143.047 126.344 142.537 124.977 141.969 123.895C141.408 122.809 140.809 122.008 140.344 121.51C139.877 121.009 139.568 120.788 139.55 120.808Z" fill="#263238"/>
<path d="M142.106 191.408C142.123 191.411 142.16 191.214 142.215 190.838C142.271 190.411 142.344 189.866 142.434 189.191C142.616 187.759 142.853 185.686 143.124 183.121C143.668 177.991 144.325 170.895 144.883 163.043C145.439 155.189 145.792 148.07 145.978 142.914C146.071 140.337 146.13 138.25 146.153 136.808C146.159 136.128 146.164 135.577 146.168 135.147C146.167 134.767 146.158 134.567 146.142 134.567C146.125 134.566 146.102 134.766 146.072 135.144C146.045 135.574 146.01 136.123 145.966 136.801C145.886 138.302 145.775 140.37 145.641 142.9C145.368 148.049 144.963 155.16 144.407 163.01C143.849 170.855 143.246 177.952 142.788 183.088C142.564 185.611 142.382 187.674 142.249 189.171C142.196 189.849 142.153 190.398 142.12 190.827C142.095 191.206 142.089 191.406 142.106 191.408Z" fill="#263238"/>
<path d="M144.965 159.968C144.951 160.094 147.762 160.483 151.257 160.57C154.752 160.664 157.579 160.422 157.572 160.295C157.567 160.158 154.745 160.186 151.269 160.092C147.795 160.006 144.978 159.831 144.965 159.968Z" fill="#263238"/>
<path d="M147.244 160.242C147.185 160.219 146.93 160.693 146.66 161.518C146.526 161.931 146.391 162.427 146.284 162.997C146.235 163.285 146.192 163.621 146.297 163.98C146.4 164.348 146.715 164.685 147.151 164.76C147.37 164.798 147.631 164.728 147.793 164.575C147.965 164.423 148.049 164.223 148.089 164.047C148.17 163.686 148.124 163.372 148.1 163.089C148.042 162.514 147.933 162.002 147.814 161.584C147.572 160.745 147.3 160.275 147.245 160.297C147.178 160.323 147.334 160.83 147.484 161.661C147.558 162.076 147.628 162.572 147.661 163.125C147.675 163.405 147.698 163.692 147.634 163.936C147.574 164.185 147.423 164.318 147.223 164.287C146.73 164.201 146.618 163.591 146.719 163.065C146.798 162.518 146.897 162.019 146.987 161.606C147.168 160.777 147.309 160.266 147.244 160.242Z" fill="#263238"/>
<path d="M121.775 113.684L152.066 114.685C155.9 114.811 159.111 111.806 159.237 107.972L159.432 102.083C159.559 98.2499 156.553 95.0389 152.72 94.9122L122.429 93.9117C118.596 93.785 115.385 96.7903 115.258 100.624L115.063 106.513C114.936 110.346 117.942 113.557 121.775 113.684Z" fill="#263238"/>
<path d="M151.999 95.2952C152.006 95.2822 151.919 95.2199 151.737 95.1316C151.556 95.044 151.272 94.9405 150.89 94.8717C150.138 94.7334 148.943 94.7964 147.717 95.4639C146.522 96.1083 145.106 97.0697 144.133 98.6524C143.136 100.197 142.585 102.191 142.435 104.27C142.242 106.368 142.702 108.421 143.597 110.019C144.484 111.632 145.797 112.756 147.028 113.368C148.263 113.995 149.392 114.182 150.154 114.195C150.537 114.208 150.835 114.181 151.033 114.151C151.232 114.121 151.334 114.097 151.333 114.08C151.329 114.037 150.91 114.08 150.166 114.008C149.426 113.94 148.35 113.707 147.186 113.069C146.023 112.442 144.807 111.353 143.983 109.808C143.152 108.273 142.727 106.325 142.911 104.307C143.06 102.277 143.576 100.371 144.507 98.8855C145.4 97.3811 146.738 96.4239 147.876 95.7615C149.024 95.0889 150.135 94.981 150.864 95.0556C151.603 95.1345 151.982 95.3387 151.999 95.2952Z" fill="#455A64"/>
<path d="M134.948 94.2519L139.555 94.4858C138.297 94.6378 137.147 95.3437 136.304 96.2893C135.462 97.2348 134.906 98.4063 134.526 99.6153C132.928 104.716 134.858 110.753 138.902 114.25L135.176 114.187C135.176 114.187 126.101 103.245 134.948 94.2519Z" fill="#455A64"/>
<path d="M112.441 85.5762C110.56 81.0273 110.461 73.114 113.338 68.9539C116.214 64.7938 121.597 62.047 126.542 60.9841C127.368 60.8068 128.258 60.6873 129.037 61.0153C129.816 61.344 130.397 62.2736 130.063 63.0504C131.057 62.43 132.074 61.7994 133.216 61.5373C134.357 61.2752 135.666 61.4446 136.506 62.2613C137.346 63.0779 137.478 64.6208 136.588 65.3824C137.967 64.8793 139.629 65.2702 140.639 66.3359C141.649 67.4017 141.95 69.0814 141.373 70.4316C140.821 71.7247 139.646 73.1691 138.61 74.1189C137.573 75.0688 137.403 76.0549 137.573 77.4508" fill="#263238"/>
<path d="M113.628 77.2321L112.319 105.088C112.097 109.825 115.883 113.785 120.625 113.773C125.051 113.762 128.689 110.275 128.892 105.854C128.988 103.757 129.073 102.009 129.097 101.794C129.097 101.794 136.22 101.46 137.062 94.4655C137.468 91.0852 137.739 84.0551 137.911 77.6919C138.095 70.8581 132.992 65.0313 126.196 64.2986L125.52 64.2255C118.188 63.8657 113.785 69.8922 113.628 77.2321Z" fill="#FFBE9D"/>
<path d="M129.119 101.694C129.119 101.694 124.654 101.577 120.268 98.1138C120.268 98.1138 121.665 102.496 128.722 102.619L129.119 101.694Z" fill="#EB996E"/>
<path d="M135.364 82.1633C135.326 82.6933 134.846 83.098 134.291 83.0683C133.738 83.0386 133.319 82.5854 133.357 82.0554C133.396 81.5255 133.876 81.12 134.429 81.1497C134.984 81.1787 135.402 81.6326 135.364 82.1633Z" fill="#263238"/>
<path d="M136.036 80.9673C135.897 81.0838 135.2 80.4416 134.124 80.3287C133.05 80.1998 132.2 80.669 132.098 80.5242C132.046 80.4597 132.198 80.2375 132.569 80.0246C132.935 79.8118 133.539 79.6315 134.208 79.7068C134.878 79.7828 135.416 80.0905 135.713 80.3779C136.017 80.6675 136.103 80.9151 136.036 80.9673Z" fill="#263238"/>
<path d="M124.77 81.3901C124.731 81.9201 124.251 82.3248 123.697 82.2951C123.144 82.2654 122.724 81.8122 122.763 81.2822C122.801 80.7522 123.282 80.3468 123.835 80.3765C124.389 80.4062 124.807 80.8601 124.77 81.3901Z" fill="#263238"/>
<path d="M125.434 80.0268C125.296 80.1441 124.597 79.5012 123.522 79.3882C122.448 79.2594 121.598 79.7278 121.496 79.5837C121.446 79.5193 121.596 79.2977 121.968 79.0841C122.334 78.8713 122.937 78.691 123.608 78.7656C124.278 78.8416 124.815 79.1493 125.112 79.4367C125.414 79.7271 125.502 79.9747 125.434 80.0268Z" fill="#263238"/>
<path d="M128.48 88.4303C128.481 88.3687 129.163 88.3253 130.262 88.3036C130.54 88.305 130.805 88.2782 130.872 88.0958C130.958 87.9039 130.875 87.5955 130.777 87.261C130.59 86.5681 130.394 85.842 130.189 85.0803C129.382 81.9787 128.829 79.4411 128.954 79.4092C129.079 79.3781 129.835 81.8665 130.643 84.9674C130.835 85.7312 131.02 86.4595 131.194 87.1567C131.264 87.4804 131.405 87.854 131.22 88.2507C131.124 88.4484 130.906 88.5751 130.725 88.604C130.543 88.6388 130.388 88.625 130.252 88.6185C129.155 88.5599 128.477 88.4918 128.48 88.4303Z" fill="#263238"/>
<path d="M125.232 88.8328C125.408 88.8415 125.284 90.01 126.195 90.9469C127.104 91.8866 128.363 91.8895 128.355 92.0539C128.364 92.1292 128.053 92.2508 127.526 92.2088C127.008 92.1712 126.273 91.9243 125.716 91.3509C125.161 90.7767 124.972 90.0694 124.983 89.5858C124.991 89.0927 125.153 88.8176 125.232 88.8328Z" fill="#263238"/>
<path d="M126.168 75.8384C126.03 76.1194 124.97 75.8652 123.691 75.8812C122.411 75.8718 121.353 76.1317 121.214 75.8508C121.152 75.7168 121.36 75.4612 121.803 75.2223C122.241 74.9834 122.921 74.785 123.689 74.7821C124.455 74.7814 125.137 74.9762 125.577 75.2129C126.019 75.4497 126.228 75.7052 126.168 75.8384Z" fill="#263238"/>
<path d="M135.976 77.8092C135.76 78.0336 135.046 77.6999 134.156 77.5913C133.269 77.4522 132.491 77.5782 132.345 77.3038C132.282 77.1713 132.427 76.9396 132.782 76.7434C133.132 76.548 133.696 76.4184 134.307 76.5024C134.917 76.5878 135.425 76.8665 135.708 77.1503C135.996 77.4363 136.073 77.6991 135.976 77.8092Z" fill="#263238"/>
<path d="M113.64 82.4797C113.527 82.4153 108.981 80.5372 108.618 85.3424C108.254 90.1469 113.153 89.5206 113.172 89.3838C113.191 89.2462 113.64 82.4797 113.64 82.4797Z" fill="#FFBE9D"/>
<path d="M111.843 87.4521C111.822 87.4355 111.754 87.5043 111.608 87.5586C111.465 87.6114 111.225 87.6368 110.981 87.5238C110.487 87.2994 110.121 86.461 110.163 85.5929C110.184 85.1549 110.307 84.7451 110.488 84.4121C110.661 84.0718 110.907 83.843 111.166 83.8169C111.425 83.7771 111.594 83.9444 111.643 84.0834C111.697 84.2224 111.659 84.3158 111.684 84.3266C111.696 84.3397 111.793 84.2542 111.769 84.0522C111.757 83.9552 111.709 83.8379 111.603 83.7366C111.495 83.6338 111.328 83.5737 111.149 83.5795C110.777 83.5773 110.417 83.8929 110.218 84.2586C109.998 84.6242 109.85 85.0839 109.826 85.5755C109.783 86.5457 110.211 87.4898 110.89 87.7425C111.222 87.8561 111.512 87.7758 111.666 87.673C111.825 87.568 111.858 87.4623 111.843 87.4521Z" fill="#EB996E"/>
<path d="M141.669 68.8591C141.754 75.1311 133.884 77.1445 130.783 73.4044C129.349 71.6747 128.145 69.5577 126.081 68.6701C124.691 68.0728 123.061 68.2111 121.666 68.7961C121.652 68.8019 121.638 68.8077 121.624 68.8135C119.566 69.691 118.221 71.8941 117.746 74.0791C117.083 77.1264 117.368 79.8805 116.352 82.6469C116.207 83.0444 116.037 83.4709 115.676 83.6917C115.063 84.066 114.251 83.6345 113.813 83.0647C113.111 82.1525 112.931 80.9506 112.851 79.8023C112.668 77.1873 112.889 74.5215 113.735 72.0403C114.58 69.5592 116.072 67.267 118.151 65.6691C120.748 63.6724 124.173 62.8607 127.425 63.2626C130.676 63.6637 133.737 65.2311 136.125 67.4741C137.232 68.5145 138.225 69.7351 138.7 71.1788" fill="#263238"/>
<path d="M136.844 65.0436C136.844 65.0299 137.087 65.0045 137.506 65.1225C137.922 65.2376 138.504 65.5417 139.026 66.1274C139.54 66.7088 139.989 67.587 140.033 68.6383C140.078 69.6895 139.643 70.8262 138.872 71.7334C138.098 72.6434 137.093 73.253 136.118 73.5622C135.142 73.8815 134.216 73.9524 133.452 73.9437C132.687 73.9278 132.075 73.8359 131.658 73.7512C131.241 73.6664 131.017 73.5919 131.021 73.5694C131.031 73.5021 131.955 73.7084 133.45 73.6824C134.194 73.6585 135.085 73.5615 136.007 73.2393C136.928 72.9287 137.864 72.3466 138.589 71.4944C139.308 70.6466 139.715 69.6019 139.692 68.6477C139.67 67.6898 139.281 66.8601 138.826 66.2961C138.363 65.7285 137.841 65.4085 137.458 65.2579C137.075 65.1051 136.839 65.0805 136.844 65.0436Z" fill="#455A64"/>
<path d="M133.797 62.5979C133.797 62.5791 133.977 62.5581 134.248 62.7138C134.511 62.868 134.834 63.2365 134.919 63.7969C135.004 64.3594 134.784 65.0161 134.412 65.6083C134.04 66.2006 133.56 66.8095 132.956 67.3459C131.755 68.4341 130.373 69.0263 129.354 69.2609C128.329 69.5121 127.669 69.4513 127.671 69.4166C127.665 69.35 128.31 69.3167 129.284 69.009C130.256 68.7179 131.558 68.1127 132.708 67.0715C133.286 66.559 133.753 65.9819 134.124 65.4273C134.491 64.8757 134.7 64.3059 134.66 63.8273C134.619 63.348 134.373 63.0012 134.166 62.8325C133.952 62.6595 133.789 62.6284 133.797 62.5979Z" fill="#455A64"/>
<path d="M113.435 131.009L115.692 114.545L83.3311 121.041L53.8867 110.833L45.9336 119.006L77.2676 135.144C80.0615 136.479 83.2102 136.88 86.2495 136.29L113.435 131.009Z" fill="#FFBE9D"/>
<path d="M53.8863 110.834C53.8863 110.834 42.6266 105.447 41.9062 105.267C41.3509 105.128 32.8468 104.676 28.9742 104.476C27.4371 104.396 27.209 106.679 28.7345 106.886C28.7816 106.892 28.8301 106.897 28.88 106.902C31.0419 107.082 35.8022 108.164 35.8022 108.164L33.6403 113.228C33.4188 113.746 33.5824 114.349 34.0356 114.684L40.5871 119.529C42.3349 120.321 44.3722 120.123 45.9331 119.007L48.8212 119.598L53.8863 110.834Z" fill="#FFBE9D"/>
<path d="M33.6074 113.523C33.8145 114.472 36.0726 116.408 37.7856 116.403C38.1607 116.402 38.548 116.293 38.8188 116.033C39.0896 115.774 39.2148 115.348 39.0591 115.007C38.9571 114.784 38.7565 114.625 38.5632 114.475C37.2846 113.482 36.0068 112.489 34.7282 111.496" fill="#FFBE9D"/>
<path d="M34.7282 111.496C34.76 111.455 35.3696 111.869 36.3296 112.571C36.8408 112.952 37.4012 113.371 38.0035 113.82C38.3185 114.07 38.6399 114.279 38.9911 114.599C39.1619 114.76 39.314 115.024 39.314 115.299C39.3227 115.57 39.2264 115.831 39.0635 116.044C38.716 116.472 38.1787 116.603 37.7248 116.584C37.2629 116.57 36.8415 116.445 36.4687 116.285C35.7208 115.965 35.1293 115.535 34.6811 115.128C34.2322 114.72 33.9245 114.33 33.7609 114.029C33.5937 113.726 33.5871 113.523 33.6081 113.523C33.6393 113.516 33.6914 113.69 33.8854 113.95C34.0766 114.21 34.4016 114.558 34.8549 114.925C35.3066 115.291 35.8938 115.681 36.599 115.963C36.9501 116.104 37.3375 116.208 37.7328 116.214C38.1179 116.23 38.5357 116.104 38.7666 115.812C39.0005 115.506 39.0048 115.104 38.7283 114.857C38.4502 114.597 38.0868 114.339 37.7914 114.095C37.2064 113.622 36.6627 113.182 36.1667 112.782C35.2487 112.025 34.6963 111.537 34.7282 111.496Z" fill="#EB996E"/>
<path d="M42.7036 116.446C42.6703 116.477 42.4509 116.318 42.2142 115.956C41.9774 115.598 41.753 115.023 41.7211 114.36C41.6915 113.696 41.8623 113.102 42.0658 112.724C42.2685 112.343 42.4719 112.164 42.5081 112.191C42.6037 112.248 42.0267 113.122 42.0976 114.342C42.1389 115.563 42.7934 116.382 42.7036 116.446Z" fill="#EB996E"/>
<path d="M38.201 113.846C38.5428 114.378 39.2501 114.642 39.8561 114.465C40.4621 114.287 40.916 113.683 40.9175 113.052C40.9197 112.226 40.2587 111.569 39.6454 111.016C38.7057 110.168 37.7659 109.32 36.8262 108.472" fill="#FFBE9D"/>
<path d="M36.8274 108.473C36.8621 108.434 37.311 108.776 38.0089 109.36C38.3919 109.688 38.7959 110.034 39.2216 110.399C39.664 110.802 40.1976 111.203 40.6428 111.791C40.8593 112.085 41.0331 112.425 41.0823 112.79C41.1424 113.151 41.0584 113.525 40.8955 113.812C40.5719 114.404 39.9406 114.694 39.4446 114.652C38.9443 114.624 38.5954 114.388 38.4129 114.198C38.2254 114.004 38.1841 113.856 38.2022 113.847C38.2283 113.83 38.3116 113.946 38.5092 114.087C38.7011 114.227 39.0298 114.394 39.4482 114.386C39.8595 114.388 40.3402 114.132 40.5893 113.648C40.8564 113.17 40.742 112.531 40.3388 112.015C39.9464 111.491 39.4207 111.075 38.9885 110.658C38.5823 110.272 38.1964 109.906 37.8301 109.558C37.1785 108.923 36.7926 108.511 36.8274 108.473Z" fill="#EB996E"/>
<path d="M43.0247 108.046C40.7571 108.584 38.5779 109.496 36.6021 110.732C36.4841 110.806 36.3581 110.892 36.3205 111.026C36.2676 111.214 36.4117 111.398 36.5637 111.52C37.1451 111.984 37.9466 112.063 38.688 112.002C39.4293 111.94 40.162 111.758 40.9063 111.774C42.1936 111.802 43.3853 112.419 44.6262 112.761C45.8679 113.103 47.3803 113.095 48.2324 112.129" fill="#FFBE9D"/>
<path d="M48.2325 112.128C48.2419 112.137 48.2021 112.196 48.1152 112.302C48.0233 112.403 47.8749 112.545 47.6475 112.68C47.2016 112.96 46.4254 113.16 45.4929 113.064C44.5481 112.993 43.5207 112.542 42.3855 112.209C41.8157 112.046 41.209 111.928 40.5784 111.965C39.9435 111.995 39.281 112.154 38.5621 112.2C37.8525 112.24 37.0873 112.148 36.5016 111.705C36.3575 111.596 36.2011 111.458 36.1396 111.221C36.1099 111.103 36.1323 110.958 36.1997 110.855C36.2648 110.75 36.3473 110.687 36.4212 110.636C36.7036 110.457 36.9635 110.307 37.2306 110.154C38.2906 109.557 39.2976 109.118 40.1592 108.801C41.0215 108.484 41.739 108.288 42.2378 108.173C42.7374 108.058 43.0197 108.023 43.0248 108.046C43.0414 108.109 41.9366 108.363 40.2555 109.049C39.4171 109.394 38.4368 109.851 37.4029 110.455C37.1481 110.605 36.8759 110.769 36.6261 110.931C36.5081 111.017 36.4777 111.071 36.4958 111.139C36.5139 111.22 36.6044 111.327 36.7231 111.409C37.2024 111.769 37.875 111.862 38.5403 111.823C39.2129 111.781 39.8819 111.625 40.561 111.595C41.2459 111.561 41.9004 111.697 42.484 111.876C43.6525 112.241 44.6342 112.702 45.5233 112.799C46.408 112.922 47.1371 112.775 47.5773 112.551C48.0255 112.333 48.205 112.1 48.2325 112.128Z" fill="#EB996E"/>
<path d="M83.835 126.736C83.7401 126.762 83.3557 125.477 83.3115 123.837C83.2594 122.195 83.5686 120.892 83.6649 120.911C83.7742 120.928 83.6373 122.227 83.6887 123.826C83.7307 125.424 83.9429 126.714 83.835 126.736Z" fill="#EB996E"/>
<path d="M112.149 106.905L102.965 117.253C102.965 117.253 98.0611 152.986 97.7107 155.788C97.3603 158.591 96.4292 167.567 96.4292 170.019C96.4292 172.471 94.3933 190.018 94.3933 190.018C94.3933 190.018 133.356 198.108 139.875 190.018L137.847 174.995L139.612 137.726C139.612 137.726 142.534 111.858 128.893 105.854C128.893 105.854 120.268 111.053 112.149 106.905Z" fill="#F75D37"/>
<path d="M135.148 109.523C135.148 109.523 132.46 106.868 123.88 109.091C114.837 111.434 110.065 119.898 112.309 143.862C114.159 163.621 121.974 166.466 121.974 166.466C121.974 166.466 117.693 136.659 118.429 124.19C119.358 108.441 135.147 112.362 135.147 112.362C137.397 111.634 135.148 109.523 135.148 109.523Z" fill="#263238"/>
<path d="M112.149 106.905L104.211 109.091L86.3555 120.022L91.4401 136.168L101.925 135.02L112.149 106.905Z" fill="#F75D37"/>
<path d="M101.82 118.114C101.923 118.124 101.471 123.896 100.811 131.005C100.15 138.116 99.5304 143.871 99.4269 143.862C99.3233 143.852 99.7751 138.081 100.436 130.97C101.096 123.861 101.716 118.105 101.82 118.114Z" fill="#263238"/>
<path d="M138.164 168.292C138.164 168.292 135.628 176.438 126.668 162.988C117.709 149.537 118.97 155.552 118.97 155.552L117.134 157.737C117.134 157.737 126.987 179.932 138.044 176.453L138.164 168.292Z" fill="#263238"/>
<path opacity="0.3" d="M101.458 121.997L94.3926 135.844L100.231 135.205L101.458 121.997Z" fill="black"/>
<g opacity="0.3">
<path d="M98.2178 158.765C103.396 164.409 109.562 169.145 116.352 172.691C119.201 174.179 122.347 175.489 125.536 175.081C129.038 174.633 132.041 172.094 133.695 168.975C135.35 165.856 135.113 164.35 135.507 160.843C135.942 156.976 135.943 151.817 136.147 148.292C136.183 147.667 136.194 146.943 136.194 146.258C136.194 144.726 137.194 143.378 138.661 142.937C138.661 142.937 136.525 141.932 135.094 142.136C133.663 142.339 132.579 143.532 131.829 144.768C127.858 151.318 129.587 160.923 122.006 165.002C119.533 166.333 116.648 166.647 113.876 166.194C107.673 165.182 102.923 161.103 98.3481 157.128" fill="black"/>
</g>
<path d="M106.79 145.207C108.687 145.207 110.226 140.577 110.226 134.866C110.226 129.155 108.687 124.525 106.79 124.525C104.892 124.525 103.354 129.155 103.354 134.866C103.354 140.577 104.892 145.207 106.79 145.207Z" fill="#FAFAFA"/>
<path d="M108.628 314.682L109.416 331.704C109.416 331.704 92.3797 338.222 92.219 341.381L125.277 341.038L125.137 314.467L108.628 314.682Z" fill="#F75D37"/>
<g opacity="0.6">
<path d="M119.623 330.165C120.264 330.333 120.714 331.048 120.572 331.696C120.43 332.344 119.708 332.808 119.063 332.651C118.418 332.494 117.852 331.652 118.066 331.025C118.279 330.397 119.157 329.899 119.745 330.206" fill="white"/>
</g>
<path opacity="0.6" d="M125.277 341.039L125.263 338.389L93.5072 339.691C93.5072 339.691 92.0419 340.346 92.2192 341.381L125.277 341.039Z" fill="white"/>
<path d="M108.878 331.541C108.885 331.703 109.693 331.767 110.493 332.278C111.306 332.769 111.722 333.464 111.87 333.398C112.019 333.365 111.768 332.402 110.79 331.801C109.816 331.191 108.842 331.394 108.878 331.541Z" fill="#263238"/>
<path d="M105.426 333.011C105.391 333.168 106.093 333.435 106.648 334.112C107.224 334.773 107.37 335.51 107.53 335.501C107.682 335.525 107.784 334.578 107.078 333.75C106.378 332.915 105.428 332.858 105.426 333.011Z" fill="#263238"/>
<path d="M103.5 337.181C103.647 337.215 103.863 336.405 103.44 335.526C103.022 334.642 102.257 334.302 102.191 334.437C102.101 334.571 102.596 335.04 102.933 335.767C103.286 336.487 103.339 337.168 103.5 337.181Z" fill="#263238"/>
<path d="M109.129 327.642C109.199 327.788 109.937 327.558 110.849 327.611C111.764 327.645 112.477 327.944 112.56 327.804C112.652 327.686 111.952 327.096 110.876 327.049C109.8 326.995 109.048 327.517 109.129 327.642Z" fill="#263238"/>
<path opacity="0.3" d="M108.788 318.054L108.925 321.087L125.171 320.771L125.163 318.036L108.788 318.054Z" fill="black"/>
<path d="M109.033 324.205C109.033 324.272 109.671 324.365 110.689 324.18C111.196 324.086 111.792 323.915 112.416 323.63C112.728 323.487 113.046 323.316 113.362 323.115C113.513 323.016 113.692 322.915 113.857 322.72C114.035 322.55 114.132 322.121 113.923 321.861C113.75 321.609 113.45 321.502 113.212 321.499C112.968 321.494 112.771 321.544 112.592 321.591C112.225 321.684 111.881 321.809 111.566 321.955C110.938 322.249 110.428 322.617 110.05 322.973C109.29 323.691 109.035 324.297 109.091 324.328C109.165 324.38 109.532 323.871 110.307 323.276C110.693 322.981 111.187 322.674 111.775 322.429C112.07 322.308 112.387 322.204 112.723 322.126C113.072 322.03 113.37 322.025 113.461 322.179C113.495 322.239 113.499 322.262 113.427 322.366C113.352 322.461 113.211 322.555 113.062 322.654C112.771 322.848 112.479 323.016 112.192 323.163C111.619 323.455 111.069 323.656 110.598 323.793C109.653 324.067 109.03 324.118 109.033 324.205Z" fill="#263238"/>
<path d="M109.246 324.435C109.303 324.459 109.618 323.877 109.666 322.831C109.689 322.313 109.629 321.684 109.421 321.021C109.316 320.69 109.175 320.352 108.989 320.02C108.792 319.696 108.551 319.261 107.924 319.196C107.597 319.187 107.328 319.445 107.237 319.665C107.13 319.889 107.11 320.082 107.074 320.274C107.017 320.66 107.028 321.039 107.084 321.389C107.195 322.091 107.489 322.674 107.808 323.092C108.464 323.942 109.139 324.128 109.152 324.073C109.205 323.991 108.639 323.685 108.136 322.867C107.889 322.464 107.666 321.931 107.596 321.317C107.561 321.011 107.562 320.687 107.617 320.36C107.664 320.008 107.793 319.724 107.926 319.758C108.09 319.753 108.372 320.015 108.511 320.294C108.684 320.589 108.822 320.891 108.93 321.188C109.143 321.783 109.24 322.354 109.268 322.836C109.324 323.805 109.158 324.411 109.246 324.435Z" fill="#263238"/>
<path d="M140.658 304.347L154.025 314.914C154.025 314.914 147.773 332.05 150.053 334.243L171.473 309.062L151.322 291.742L140.658 304.347Z" fill="#F75D37"/>
<g opacity="0.6">
<path d="M159.558 306.2C160.106 305.826 160.94 305.955 161.336 306.487C161.732 307.02 161.609 307.869 161.067 308.253C160.526 308.636 159.519 308.512 159.185 307.938C158.851 307.366 159.051 306.375 159.669 306.133" fill="white"/>
</g>
<path opacity="0.6" d="M171.474 309.062L169.464 307.335L149.621 332.163C149.621 332.163 149.155 333.698 150.053 334.243L171.474 309.062Z" fill="white"/>
<path d="M153.55 315.214C153.677 315.314 154.255 314.747 155.165 314.478C156.068 314.186 156.866 314.327 156.914 314.173C156.986 314.039 156.095 313.597 154.999 313.942C153.9 314.276 153.414 315.144 153.55 315.214Z" fill="#263238"/>
<path d="M152.395 318.784C152.49 318.914 153.152 318.559 154.027 318.583C154.903 318.583 155.555 318.956 155.654 318.828C155.772 318.729 155.124 318.031 154.035 318.022C152.947 318.002 152.28 318.682 152.395 318.784Z" fill="#263238"/>
<path d="M154.281 322.973C154.402 322.883 153.933 322.19 152.991 321.933C152.051 321.668 151.292 322.022 151.35 322.161C151.392 322.317 152.071 322.251 152.841 322.474C153.616 322.679 154.165 323.085 154.281 322.973Z" fill="#263238"/>
<path d="M150.771 312.468C150.926 312.511 151.237 311.803 151.875 311.148C152.5 310.48 153.194 310.138 153.143 309.984C153.115 309.837 152.211 309.978 151.469 310.76C150.722 311.536 150.623 312.446 150.771 312.468Z" fill="#263238"/>
<path opacity="0.3" d="M143.308 306.437L145.688 308.324L156.102 295.851L154.033 294.064L143.308 306.437Z" fill="black"/>
<path d="M148.113 310.286C148.163 310.33 148.653 309.909 149.18 309.019C149.442 308.576 149.703 308.012 149.897 307.354C149.993 307.025 150.073 306.673 150.128 306.303C150.152 306.123 150.194 305.922 150.156 305.67C150.144 305.425 149.884 305.07 149.55 305.058C149.246 305.022 148.969 305.179 148.811 305.357C148.647 305.538 148.556 305.72 148.474 305.886C148.303 306.224 148.173 306.566 148.076 306.899C147.885 307.566 147.83 308.193 147.85 308.711C147.894 309.756 148.184 310.346 148.243 310.324C148.331 310.303 148.188 309.691 148.247 308.717C148.276 308.232 148.369 307.657 148.57 307.053C148.672 306.752 148.8 306.443 148.962 306.139C149.119 305.813 149.31 305.585 149.487 305.617C149.553 305.631 149.574 305.643 149.604 305.765C149.627 305.884 149.606 306.052 149.582 306.229C149.538 306.575 149.474 306.907 149.396 307.219C149.241 307.844 149.032 308.391 148.827 308.836C148.415 309.727 148.045 310.231 148.113 310.286Z" fill="#263238"/>
<path d="M148.426 310.275C148.481 310.248 148.248 309.63 147.49 308.907C147.113 308.55 146.6 308.184 145.963 307.904C145.645 307.767 145.297 307.652 144.924 307.574C144.55 307.51 144.064 307.407 143.604 307.837C143.382 308.078 143.401 308.451 143.508 308.663C143.607 308.891 143.739 309.032 143.859 309.186C144.114 309.483 144.407 309.722 144.708 309.909C145.311 310.286 145.944 310.446 146.469 310.479C147.54 310.542 148.123 310.154 148.09 310.108C148.064 310.015 147.461 310.241 146.514 310.084C146.047 310.007 145.499 309.825 144.99 309.475C144.736 309.302 144.491 309.088 144.281 308.833C144.048 308.565 143.917 308.282 144.03 308.205C144.134 308.078 144.517 308.037 144.818 308.115C145.154 308.178 145.472 308.271 145.767 308.384C146.356 308.614 146.851 308.916 147.233 309.21C148.001 309.803 148.35 310.326 148.426 310.275Z" fill="#263238"/>
<path d="M103.596 242.668C103.596 242.668 104.48 202.015 103.596 202.015C102.712 202.015 96.4448 198.436 96.4448 198.436L88.6133 258.855C88.6133 258.855 87.9074 265.638 96.3007 270.419C104.694 275.198 142.224 308.567 142.224 308.567L154.923 293.101C154.923 293.101 130.228 267.361 120.14 258.855C112.248 252.201 103.596 242.668 103.596 242.668Z" fill="#263238"/>
<path d="M126.602 233.197L127.457 226.76C127.457 226.76 133.644 213.75 134.527 208.177C135.411 202.604 134.828 190.618 134.828 190.618H95.7686C95.7686 190.618 95.9365 234.714 100.65 247.086C100.65 247.086 103.043 270.763 103.394 272.748C104.141 276.958 106.744 320.065 106.744 320.065L126.439 319.347C126.439 319.347 128.149 279.717 126.782 268.467C126.105 262.895 125.784 256.959 125.637 252.047C125.45 245.746 125.772 239.447 126.602 233.197Z" fill="#263238"/>
<path d="M96.836 203.478C96.8425 203.478 96.8512 203.544 96.8614 203.672C96.8708 203.823 96.8831 204.01 96.8976 204.243C96.9229 204.773 96.9569 205.506 97.0011 206.436C97.0749 208.341 97.2154 211.096 97.4116 214.498C97.804 221.304 98.5331 230.693 99.6082 241.039C100.681 251.387 101.835 260.737 102.669 267.504C103.08 270.866 103.414 273.596 103.65 275.518C103.756 276.443 103.84 277.172 103.9 277.7C103.923 277.931 103.941 278.118 103.956 278.268C103.966 278.396 103.969 278.463 103.962 278.464C103.956 278.464 103.941 278.4 103.918 278.273C103.894 278.125 103.863 277.939 103.826 277.709C103.748 277.184 103.641 276.458 103.505 275.537C103.241 273.619 102.866 270.893 102.405 267.537C101.504 260.778 100.308 251.431 99.2339 241.076C98.1573 230.726 97.4702 221.325 97.1459 214.511C96.9837 211.105 96.8838 208.346 96.8548 206.439C96.8411 205.508 96.8302 204.774 96.8223 204.243C96.8223 204.01 96.823 203.823 96.823 203.672C96.8252 203.545 96.8295 203.479 96.836 203.478Z" fill="#455A64"/>
<path d="M125.599 255.671C125.612 255.67 125.651 255.889 125.713 256.31C125.776 256.763 125.861 257.378 125.968 258.152C126.165 259.754 126.41 262.078 126.633 264.956C127.098 270.711 127.449 278.681 127.58 287.488C127.684 296.297 127.545 304.274 127.231 310.04C127.083 312.923 126.9 315.253 126.744 316.859C126.657 317.636 126.588 318.252 126.537 318.707C126.485 319.129 126.452 319.349 126.439 319.348C126.426 319.346 126.434 319.123 126.461 318.699C126.494 318.243 126.54 317.625 126.597 316.847C126.707 315.238 126.851 312.909 126.964 310.028C127.209 304.266 127.306 296.296 127.202 287.493C127.071 278.693 126.763 270.729 126.367 264.975C126.178 262.098 125.973 259.774 125.821 258.168C125.743 257.391 125.682 256.775 125.637 256.319C125.599 255.897 125.586 255.674 125.599 255.671Z" fill="#455A64"/>
<path d="M133.282 108.614C133.282 108.614 139.674 110.32 141.035 119.845C142.396 129.371 139.874 132.093 139.874 132.093C139.874 132.093 140.912 114.358 132.969 111.939L133.282 108.961" fill="#263238"/>
<path d="M89.7262 139.729L56.7227 139.091L57.1078 140.691L89.5662 141.168L89.7262 139.729Z" fill="#263238"/>
<path d="M129.738 111.605C128.509 111.278 127.207 111.437 126.035 111.931C123.36 113.056 118.467 116.293 118.118 125.424C117.556 140.176 117.556 140.176 117.556 140.176L138.662 142.937C138.662 142.937 140.454 114.454 129.738 111.605Z" fill="#F75D37"/>
<path d="M90.9023 142.856L117.659 150.903L118.059 140.13L134.082 142.464L133.188 159.982C133.001 165.121 129.398 169.499 124.392 170.674C121.591 171.33 118.647 170.905 116.147 169.484L87.7109 153.317L90.9023 142.856Z" fill="#FFBE9D"/>
<path d="M138.662 142.937C138.657 142.932 138.651 142.848 138.643 142.685C138.635 142.504 138.625 142.27 138.613 141.974C138.59 141.331 138.558 140.426 138.517 139.271C138.442 136.918 138.335 133.556 138.203 129.411C138.143 127.336 138.077 125.066 138.007 122.631C137.99 122.022 137.973 121.402 137.955 120.773C137.923 120.464 137.891 120.152 137.858 119.839C137.793 119.53 137.745 119.214 137.666 118.903C137.345 117.662 136.753 116.453 135.921 115.386C134.256 113.279 131.575 111.674 128.618 111.62C127.148 111.582 125.673 112.033 124.382 112.83C123.086 113.623 121.99 114.761 121.112 116.056C119.834 117.922 119.117 120.073 118.699 122.206C118.283 124.348 118.148 126.487 118.044 128.562C117.926 132.719 117.816 136.623 117.714 140.18L117.576 140.019C123.889 140.88 129.137 141.596 132.832 142.1C134.663 142.357 136.108 142.56 137.122 142.703C137.603 142.773 137.98 142.828 138.26 142.869C138.52 142.908 138.657 142.932 138.662 142.937C138.668 142.944 138.542 142.932 138.293 142.905C138.02 142.874 137.651 142.832 137.182 142.777C136.175 142.655 134.74 142.481 132.921 142.26C129.194 141.793 123.902 141.131 117.535 140.333L117.393 140.315L117.396 140.171C117.484 136.614 117.548 132.708 117.683 128.543C117.782 126.463 117.912 124.307 118.332 122.133C118.752 119.969 119.484 117.763 120.799 115.843C121.701 114.512 122.833 113.334 124.185 112.509C125.526 111.68 127.084 111.207 128.623 111.249C131.717 111.314 134.474 112.984 136.193 115.17C137.051 116.279 137.66 117.534 137.986 118.821C138.067 119.142 138.115 119.469 138.18 119.79C138.212 120.115 138.244 120.439 138.276 120.76C138.29 121.396 138.303 122.022 138.317 122.639C138.367 125.099 138.413 127.392 138.456 129.488C138.528 133.64 138.586 137.008 138.628 139.365C138.644 140.502 138.656 141.395 138.665 142.028C138.666 142.312 138.668 142.538 138.668 142.713C138.669 142.866 138.666 142.942 138.662 142.937Z" fill="#263238"/>
<path d="M91.4399 143.168L85.0122 138.415C83.8401 137.549 82.012 137.725 80.5603 137.593C77.681 137.334 72.9323 139.076 72.7513 139.375L74.6916 140.926L62.1982 140.542C62.1982 140.542 63.2727 143.151 66.766 143.419C66.766 143.419 67.1692 146.24 70.7957 146.778C70.7957 146.778 71.7362 149.062 73.7511 149.733C73.7511 149.733 74.1544 152.286 77.3784 152.152L88.3202 153.392L91.4399 143.168Z" fill="#FFBE9D"/>
<path d="M74.584 143.885C74.5782 143.989 72.8066 143.969 70.6273 143.841C68.4481 143.713 66.6866 143.524 66.6924 143.42C66.6982 143.317 68.4698 143.336 70.6491 143.464C72.8283 143.593 74.5898 143.781 74.584 143.885Z" fill="#EB996E"/>
<path d="M77.7418 146.891C77.7418 146.995 76.1932 147.079 74.2825 147.079C72.3719 147.079 70.8232 146.995 70.8232 146.891C70.8232 146.787 72.3719 146.703 74.2825 146.703C76.1924 146.702 77.7418 146.787 77.7418 146.891Z" fill="#EB996E"/>
<path d="M81.1402 149.733C81.1402 149.838 79.5916 149.922 77.681 149.922C75.7703 149.922 74.2217 149.837 74.2217 149.733C74.2217 149.63 75.7703 149.545 77.681 149.545C79.5916 149.545 81.1402 149.629 81.1402 149.733Z" fill="#EB996E"/>
<path d="M119.425 156.367C119.331 156.407 118.756 155.247 118.234 153.742C117.711 152.238 117.442 150.972 117.541 150.945C117.643 150.916 118.071 152.126 118.591 153.618C119.108 155.111 119.523 156.326 119.425 156.367Z" fill="#EB996E"/>
<path d="M121.364 155.329C121.277 155.392 120.413 154.346 119.344 153.065C118.276 151.781 117.405 150.742 117.482 150.669C117.555 150.599 118.557 151.529 119.633 152.824C120.711 154.116 121.446 155.269 121.364 155.329Z" fill="#EB996E"/>
</svg>
