<svg width="24" height="24" viewBox="0 0 24 24" fill="none" xmlns="http://www.w3.org/2000/svg">
<path d="M12 3.32812C12.3883 3.32812 12.7031 3.01331 12.7031 2.625V0.703125C12.7031 0.314812 12.3883 0 12 0C11.6117 0 11.2969 0.314812 11.2969 0.703125V2.625C11.2969 3.01331 11.6117 3.32812 12 3.32812ZM19.9972 2.50284C19.7226 2.2283 19.2774 2.2283 19.0028 2.50284L17.5028 4.00284C17.2282 4.27739 17.2282 4.72261 17.5028 4.9972C17.7774 5.2718 18.2226 5.2718 18.4972 4.9972L19.9972 3.4972C20.2718 3.22261 20.2718 2.77739 19.9972 2.50284ZM6.49718 4.99716C6.77177 4.72261 6.77177 4.27739 6.49718 4.0028L4.99718 2.5028C4.72263 2.22825 4.27741 2.22825 4.00282 2.5028C3.72823 2.77734 3.72823 3.22256 4.00282 3.49716L5.50282 4.99716C5.77746 5.2718 6.22263 5.27175 6.49718 4.99716ZM12 4.92188C8.09712 4.92188 4.9219 8.09709 4.9219 12C4.9219 15.6184 8.2969 17.3896 8.2969 19.5V21.7969C8.2969 23.0117 9.28521 24 10.5 24H13.5C14.7148 24 15.7031 23.0117 15.7031 21.7969V19.5C15.7031 17.3889 19.0781 15.6199 19.0781 12C19.0781 8.09709 15.9029 4.92188 12 4.92188ZM13.5 22.5938H10.5C10.0606 22.5938 9.70315 22.2363 9.70315 21.7969V20.2031H14.2969V21.7969C14.2969 22.2363 13.9394 22.5938 13.5 22.5938ZM14.3696 18.7969H12.7031V15.9624C13.5741 15.6682 14.2031 14.844 14.2031 13.875C14.2031 13.4867 13.8883 13.1719 13.5 13.1719C13.1117 13.1719 12.7969 13.4867 12.7969 13.875C12.7969 14.3144 12.4394 14.6719 12 14.6719C11.5606 14.6719 11.2031 14.3144 11.2031 13.875C11.2031 13.4867 10.8883 13.1719 10.5 13.1719C10.1117 13.1719 9.7969 13.4867 9.7969 13.875C9.7969 14.844 10.426 15.6682 11.2969 15.9624V18.7969H9.63049C9.13484 16.379 6.32815 14.8268 6.32815 12C6.32815 8.8725 8.87252 6.32812 12 6.32812C15.1275 6.32812 17.6719 8.8725 17.6719 12C17.6719 14.8244 14.8646 16.3818 14.3696 18.7969Z" fill="#F75D37"/>
</svg>
