<svg width="24" height="24" viewBox="0 0 24 24" fill="none" xmlns="http://www.w3.org/2000/svg">
<path d="M21.9998 11.5185V17.4325C21.9998 17.8114 21.8084 18.0028 21.4334 18.0067H20.5623C20.1991 18.0067 19.9999 17.8036 19.9999 17.4364V16.0146H4.00389V17.4755C3.99998 17.7919 3.80077 17.9989 3.49218 18.0028C3.16796 18.0067 2.84374 18.0067 2.51953 18.0028C2.21094 17.9989 2.01172 17.7958 2 17.4872V6.53418C2.00781 6.21387 2.20703 6.00684 2.52734 6.00293C2.83593 5.99902 3.14843 5.99902 3.45702 6.00293C3.80467 6.00684 4.00389 6.20605 4.00389 6.55761V12.9912H10.9999V8.61228C10.9999 8.18651 11.1874 8.00291 11.6054 8.00291H18.4608C20.3045 8.00682 21.7733 9.31931 21.9803 11.1474C21.9959 11.2685 21.9998 11.3935 21.9998 11.5185Z" fill="#F75D37"/>
<path d="M7.50389 7.00293C8.88278 7.00293 10.0039 8.12401 9.99996 9.50291C9.99605 10.8818 8.87887 12.0029 7.49998 11.999C6.12108 11.999 5.00391 10.8779 5.00391 9.499C5.00391 8.12011 6.12108 7.00293 7.50389 7.00293Z" fill="#F75D37"/>
</svg>
