<svg width="28" height="28" viewBox="0 0 28 28" fill="none" xmlns="http://www.w3.org/2000/svg">
<circle cx="14" cy="14" r="14" fill="#F75D37"/>
<path d="M10.5671 14.0002L8.58668 8.9077C8.44901 8.55362 8.79435 8.2147 9.13618 8.33545L9.19043 8.3582L19.6904 13.6082C19.7581 13.642 19.8159 13.6928 19.8581 13.7557C19.9003 13.8185 19.9255 13.8912 19.9312 13.9667C19.9369 14.0421 19.9229 14.1178 19.8907 14.1862C19.8584 14.2547 19.8089 14.3136 19.747 14.3572L19.6904 14.391L9.19043 19.641C8.85035 19.8108 8.48051 19.4981 8.56918 19.1464L8.58668 19.091L10.5671 14.0002L8.58668 8.9077L10.5671 14.0002ZM9.81343 9.64854L11.3359 13.5627H15.2017C15.3074 13.5627 15.4095 13.601 15.4892 13.6705C15.5689 13.74 15.6207 13.836 15.6351 13.9407L15.6392 14.0002C15.6392 14.106 15.6008 14.2082 15.5312 14.2879C15.4616 14.3676 15.3654 14.4194 15.2606 14.4336L15.2017 14.4377H11.3348L9.81285 18.3519L18.5168 14.0002L9.81285 9.64854H9.81343Z" fill="white"/>
</svg>
