<svg width="168" height="47" viewBox="0 0 168 47" fill="none" xmlns="http://www.w3.org/2000/svg">
<g clip-path="url(#clip0_2_151)">
<path d="M38.371 30.8942C38.371 32.1195 37.1768 32.7322 34.7885 32.7322C34.2693 32.7322 33.9578 32.4725 33.8539 31.9533C33.7708 31.4134 33.7293 30.7488 33.7293 29.9596C33.7293 29.1704 33.7812 28.3293 33.8851 27.4363C34.0097 26.5224 34.1654 25.536 34.3523 24.4768C34.7054 22.4415 35.2039 20.2505 35.8477 17.9036C36.5123 15.5361 37.1665 13.7085 37.8102 12.4208C36.5019 12.5039 35.2039 12.7428 33.9162 13.1373C32.6286 13.5112 31.7148 13.7811 31.1748 13.9473C30.6348 14.0927 30.1883 14.1654 29.8353 14.1654C29.4822 14.1654 29.3057 14.0512 29.3057 13.8227C29.3057 13.5527 29.5133 13.1581 29.9287 12.6389C30.3441 12.0989 30.936 11.559 31.7044 11.019C33.6566 9.68984 35.8269 9.01483 38.2152 8.99408L48.4643 9.08754C49.0251 9.08754 49.3055 9.30561 49.3055 9.74174C49.3055 9.86635 49.2224 10.0948 49.0562 10.4271C48.8901 10.7386 48.7447 11.0813 48.6201 11.4551C48.3501 12.2028 47.779 12.5766 46.9067 12.5766C46.0552 12.5766 44.0096 12.5143 40.7697 12.3897C40.6867 13.3035 40.5205 14.4769 40.2713 15.9099C40.0221 17.3222 39.7521 18.8694 39.4613 20.5516C38.7552 24.8506 38.3917 28.2981 38.371 30.8942ZM57.528 29.6169C55.8875 31.5484 53.9145 32.5141 51.6093 32.5141C49.3248 32.5141 47.6114 31.9326 46.4691 30.7696C45.3269 29.5858 44.7661 28.1216 44.7869 26.3771C44.7661 23.9056 45.5449 21.7769 47.1233 19.9909C48.7017 18.2048 50.7682 17.3118 53.3227 17.3118C54.4856 17.3118 55.4202 17.4571 56.1261 17.7479C57.3517 18.2463 57.9641 18.7136 57.9641 19.1497C57.9641 19.482 57.1024 19.6586 55.3787 19.6793C53.6757 19.6793 52.2427 20.2712 51.0797 21.455C49.9374 22.6181 49.3663 24.0926 49.3663 25.8786C49.3663 26.8132 49.6363 27.6024 50.1763 28.2462C50.737 28.8693 51.5158 29.1808 52.5127 29.1808C53.5303 29.1808 54.3714 28.9731 55.036 28.5577C53.5615 27.5609 52.8242 26.1175 52.8242 24.2276C52.8034 23.2307 53.1565 22.3273 53.8834 21.5173C54.6311 20.6866 55.576 20.2712 56.718 20.2712C57.8812 20.2505 58.7118 20.562 59.2102 21.2058C59.7087 21.8496 59.9579 22.6804 59.9579 23.698C59.9579 24.6949 59.7192 25.754 59.2414 26.8755H59.4283C60.3423 26.8548 61.1317 26.5328 61.7959 25.9098C62.0451 25.6606 62.2531 25.4425 62.4189 25.2556C62.6058 25.0687 62.7927 24.9752 62.9796 24.9752C63.2706 24.9752 63.4158 25.3179 63.4158 26.0033C63.4158 27.2701 63.042 28.2255 62.2943 28.8693C61.5466 29.4923 60.7161 29.8038 59.8021 29.8038C58.9093 29.8038 58.151 29.7415 57.528 29.6169ZM57.2476 26.0033C57.6009 25.2556 57.7772 24.5287 57.7772 23.8226C57.7772 23.1165 57.5491 22.7634 57.0919 22.7634C56.9049 22.7634 56.7492 22.8984 56.6246 23.1684C56.5 23.4384 56.4377 23.698 56.4377 23.9472C56.4377 24.7779 56.708 25.4633 57.2476 26.0033ZM71.546 19.1186C71.546 17.7271 72.6257 17.0314 74.7858 17.0314C75.3254 17.0314 75.6581 17.2079 75.7827 17.561C75.9279 17.9141 76.0008 18.454 76.0008 19.1809C76.0008 20.1985 75.7721 21.7769 75.3154 23.916C74.8581 26.0552 74.6401 27.4986 74.6612 28.2462C74.6612 28.5993 74.7753 28.7758 75.0039 28.7758C75.3154 28.7758 75.6992 28.5785 76.1565 28.1839C76.6132 27.7893 77.07 27.3636 77.5272 26.9067C77.9839 26.429 78.3995 25.9928 78.7733 25.5983C79.1677 25.2037 79.4375 25.0064 79.5833 25.0064C79.8737 25.0064 80.0194 25.3595 80.0194 26.0656C80.0194 27.5193 79.3029 28.9212 77.8699 30.2711C75.4606 31.6834 73.9341 32.3895 73.2905 32.3895C73.2282 32.3895 73.1759 32.3791 73.1348 32.3583C72.3454 32.3583 71.7846 32.0987 71.4525 31.5795C71.141 31.0603 70.9435 30.4061 70.8606 29.6169C70.4451 30.3853 69.8738 31.0499 69.1473 31.6107C68.4202 32.1507 67.5896 32.4206 66.6551 32.4206C65.014 32.4206 63.7473 32.1091 62.8545 31.4861C61.9822 30.863 61.5461 29.9388 61.5461 28.7135C61.5461 28.1735 61.6184 27.6751 61.7642 27.2182C61.9299 26.7613 62.1897 26.2006 62.543 25.536L63.4464 17.8725C64.09 17.3741 65.014 17.1248 66.2189 17.1248C67.1741 17.1248 67.7142 17.7479 67.8389 18.994C67.9423 20.0116 67.8906 20.9254 67.6831 21.7354C67.4962 22.5246 67.2364 23.5318 66.9043 24.7572C66.5716 25.9617 66.4058 27.0313 66.4058 27.9658C66.4058 28.7135 66.8731 29.0873 67.8077 29.0873C68.8252 29.0873 69.708 28.1943 70.4557 26.4082C71.037 25.0375 71.4314 23.5111 71.6394 21.8288C71.6183 21.6627 71.5977 21.455 71.5771 21.2058C71.5771 20.9358 71.5666 20.6762 71.546 20.427C71.546 20.1778 71.546 19.9285 71.546 19.6793V19.1186ZM83.0162 27.0313L83.2031 30.8319C83.2031 31.3303 82.9433 31.7768 82.4243 32.1714C81.9052 32.566 81.1987 32.7633 80.3059 32.7633C79.7869 32.7633 79.4231 32.4933 79.2156 31.9533C79.0287 31.4134 78.9352 30.6242 78.9352 29.5858C78.9352 27.4051 79.0392 25.7021 79.2467 24.4768C79.4754 23.2307 79.9115 21.9742 80.5551 20.7074C79.6 19.7935 79.1221 19.0044 79.1221 18.3398C79.1221 16.9483 79.8698 16.2526 81.3651 16.2526C82.1333 16.2526 82.8087 16.6576 83.39 17.4675C83.8055 18.0283 84.1065 18.6825 84.2934 19.4301C84.5843 19.534 84.9476 19.5859 85.3837 19.5859C85.9862 19.5859 86.6816 19.3886 87.4709 18.994L88.2809 18.589C88.5301 18.4644 88.7482 18.4021 88.9351 18.4021C89.5376 18.4021 90.1395 19.2848 90.7419 21.05C90.555 21.86 90.3475 22.6388 90.1189 23.3865C89.9114 24.1341 89.6622 25.0375 89.3712 26.0967C89.0803 27.1559 88.9245 27.8724 88.9039 28.2462C88.9039 28.5993 89.018 28.7758 89.2466 28.7758C89.5581 28.7758 89.9425 28.5785 90.3993 28.1839C90.856 27.7893 91.3132 27.3636 91.77 26.9067C92.2267 26.429 92.6422 25.9928 93.016 25.5983C93.4105 25.2037 93.6808 25.0064 93.826 25.0064C94.1169 25.0064 94.2621 25.3595 94.2621 26.0656C94.2621 27.4986 93.6285 28.9108 92.3619 30.3023C91.1158 31.6937 89.6827 32.3791 88.0628 32.3583C87.1077 32.3583 86.3912 31.9741 85.9133 31.2057C85.4355 30.4373 85.1862 29.5027 85.1657 28.402C85.1657 26.2213 85.6535 24.1549 86.6298 22.2027C86.1731 22.3896 85.6535 22.483 85.0722 22.483C84.5115 22.483 84.1065 22.4623 83.8573 22.4207C83.6704 23.2099 83.4834 24.0095 83.2965 24.8195C83.1096 25.6087 83.0162 26.3459 83.0162 27.0313ZM98.905 30.8942C98.905 32.1195 97.7106 32.7322 95.3224 32.7322C94.8029 32.7322 94.4913 32.4725 94.3879 31.9533C94.3044 31.4134 94.2633 30.6657 94.2633 29.7104C94.2633 27.6959 94.6682 25.2037 95.4782 22.2338C96.8278 17.3325 98.2713 14.4457 99.8084 13.5735C100.016 13.4489 100.244 13.3866 100.494 13.3866C100.743 13.3866 100.868 13.7915 100.868 14.6015C100.868 15.4115 100.826 16.128 100.743 16.751C100.577 17.9971 100.276 19.6066 99.8395 21.5796C99.424 23.5526 99.2165 24.7156 99.2165 25.0687L98.905 30.8942ZM101.023 22.5142C101.023 22.2442 101.168 22.0677 101.459 21.9846C101.771 21.9015 102.155 21.8288 102.612 21.7665C103.069 21.6835 103.567 21.5692 104.107 21.4239C104.647 21.2785 105.145 21.0085 105.603 20.6139C106.662 19.7001 107.191 18.1736 107.191 16.0345C107.191 14.6638 106.724 13.615 105.79 12.8881C104.876 12.1612 103.547 11.7978 101.802 11.7978C100.078 11.7978 98.4582 12.1612 96.9424 12.8881C96.3816 13.1581 95.8726 13.4073 95.4159 13.6358C94.9798 13.8642 94.5748 13.9785 94.201 13.9785C93.8271 13.9785 93.6402 13.8642 93.6402 13.6358C93.6402 13.2827 93.9829 12.7012 94.6682 11.8912C95.3536 11.1436 96.4333 10.4478 97.9081 9.80404C99.4034 9.16025 100.971 8.83832 102.612 8.83832C105.706 8.81757 108.115 9.54442 109.839 11.019C111.335 12.3066 112.082 13.9785 112.082 16.0345C112.082 18.0698 111.345 19.8974 109.871 21.5173C108.396 23.1165 106.547 23.916 104.325 23.916C102.124 23.916 101.023 23.4488 101.023 22.5142ZM118.727 32.3583C115.757 32.3791 113.732 31.268 112.653 29.025C112.279 28.2358 112.092 27.2493 112.092 26.0656C112.092 24.861 112.195 23.5838 112.403 22.2338C112.818 19.534 113.618 17.0418 114.802 14.7573C115.404 13.5942 116.079 12.5974 116.827 11.7666C118.467 9.93906 120.295 9.03564 122.31 9.05639C123.203 9.05639 123.899 9.30561 124.397 9.80404C124.916 10.2817 125.176 10.9774 125.176 11.8912C125.176 12.8051 124.905 13.7292 124.366 14.6638C123.826 15.5776 123.13 16.5329 122.279 17.5298C121.448 18.5059 120.524 19.534 119.506 20.6139C118.488 21.6938 117.491 22.8673 116.515 24.1341V25.3802C116.515 26.5432 116.765 27.3947 117.263 27.9347C117.762 28.4747 118.343 28.7447 119.008 28.7447C120.793 28.7447 122.372 27.862 123.743 26.0967C124.304 25.3698 124.729 25.0064 125.02 25.0064C125.31 25.0064 125.456 25.3595 125.456 26.0656C125.456 26.7717 125.259 27.4986 124.864 28.2462C124.49 28.9731 123.992 29.6481 123.369 30.2711C122.746 30.8734 122.029 31.3719 121.219 31.7664C120.41 32.161 119.578 32.3583 118.727 32.3583ZM120.41 15.6295C120.846 15.0895 121.188 14.6015 121.438 14.1654C121.687 13.7292 121.811 13.2827 121.811 12.8258C121.811 12.3481 121.645 12.1093 121.313 12.1093C120.586 12.1093 119.776 12.857 118.883 14.3523C118.011 15.8476 117.357 17.8102 116.92 20.2401C117.626 19.1601 118.27 18.2567 118.852 17.5298C119.454 16.8029 119.973 16.1695 120.41 15.6295ZM142.742 24.9129C143.116 24.9129 143.303 25.3906 143.303 26.3459C143.303 26.8651 143.085 27.4986 142.648 28.2462C142.212 28.9731 141.641 29.6481 140.935 30.2711C140.25 30.8734 139.481 31.3719 138.63 31.7664C137.779 32.161 136.947 32.3583 136.138 32.3583C135.037 32.3583 134.3 31.3926 133.926 29.4612C133.386 30.3542 132.68 31.0915 131.807 31.673C130.935 32.2337 129.762 32.5141 128.287 32.5141C126.834 32.5141 125.66 32.0572 124.767 31.1434C123.874 30.2296 123.438 29.1185 123.459 27.8101C123.459 24.2795 124.632 21.4966 126.979 19.4613C127.976 18.6097 128.9 18.049 129.751 17.779C130.624 17.5091 131.538 17.3741 132.493 17.3741C133.448 17.3741 134.227 17.5402 134.829 17.8725C135.12 17.2702 135.452 16.9691 135.826 16.9691C136.553 16.9691 137.238 17.291 137.882 17.9348C138.547 18.5578 138.879 19.1497 138.879 19.7105C138.589 20.3958 138.162 21.2162 137.602 22.1715C137.436 23.1268 137.352 24.4664 137.352 26.1902C137.352 27.9139 137.571 28.7758 138.007 28.7758C138.547 28.7758 139.855 27.6959 141.932 25.536C142.306 25.1206 142.576 24.9129 142.742 24.9129ZM128.038 26.7821C128.038 28.3812 128.63 29.1808 129.814 29.1808C131.081 29.16 132.129 28.485 132.96 27.1559C133.251 26.699 133.49 26.1383 133.676 25.4737C133.676 23.1476 133.885 21.1539 134.3 19.4924C132.617 19.8247 131.153 20.6347 129.907 21.9223C128.661 23.2099 128.038 24.8299 128.038 26.7821ZM154.114 24.9129C154.487 24.9129 154.674 25.2348 154.674 25.8786C154.674 26.5017 154.508 27.1766 154.176 27.9035C153.864 28.6304 153.376 29.3365 152.712 30.0219C152.068 30.6865 151.237 31.2576 150.219 31.7353C149.202 32.213 147.997 32.4518 146.606 32.4518C145.235 32.4518 144.031 32.0468 142.992 31.2368C141.954 30.4061 141.435 29.2223 141.435 27.6855C141.435 26.1279 141.673 24.726 142.151 23.4799C142.649 22.2131 143.293 21.1227 144.082 20.2089C144.892 19.2951 145.806 18.589 146.824 18.0906C147.841 17.5714 148.807 17.3118 149.721 17.3118C151.32 17.3118 152.12 17.9452 152.12 19.212C152.12 19.939 151.964 20.5204 151.653 20.9566C151.362 21.3927 151.061 21.6108 150.749 21.6108C150.334 21.6108 149.97 21.4654 149.659 21.1746C149.347 20.8839 149.005 20.7385 148.631 20.7385C148.257 20.7178 147.894 20.8943 147.54 21.2681C147.208 21.6419 146.928 22.1196 146.699 22.7011C146.243 23.8641 146.014 25.2244 146.014 26.7821C146.035 27.5297 146.377 28.0905 147.042 28.4643C147.499 28.7135 148.039 28.8485 148.662 28.8693C149.285 28.8693 149.877 28.6616 150.438 28.2462C151.019 27.8308 151.548 27.3844 152.026 26.9067C152.504 26.4082 152.919 25.9513 153.272 25.536C153.646 25.1206 153.927 24.9129 154.114 24.9129ZM160.382 28.8693C162.002 28.8693 163.57 28.2255 165.086 26.9378C165.647 26.4601 166.104 26.024 166.457 25.6294C166.81 25.214 167.08 25.0064 167.267 25.0064C167.558 25.0064 167.703 25.2971 167.703 25.8786C167.703 26.4601 167.547 27.1143 167.236 27.8412C166.924 28.5473 166.405 29.2431 165.678 29.9284C163.892 31.6107 161.442 32.4518 158.326 32.4518C155.855 32.4518 154.173 31.5588 153.28 29.7727C152.968 29.1496 152.812 28.2566 152.812 27.0936C152.812 25.9305 153.041 24.726 153.498 23.4799C153.954 22.2131 154.557 21.1227 155.305 20.2089C156.073 19.2951 156.956 18.589 157.952 18.0906C158.949 17.5714 160.009 17.3118 161.13 17.3118C162.272 17.3118 163.144 17.5921 163.747 18.1529C164.37 18.7136 164.681 19.4405 164.681 20.3335C164.681 21.2265 164.453 21.9639 163.996 22.5453C163.56 23.1061 162.989 23.5838 162.283 23.9783C161.577 24.3522 160.787 24.6949 159.915 25.0064C159.063 25.2971 158.222 25.6294 157.392 26.0033V26.7821C157.412 27.5297 157.724 28.0593 158.326 28.3708C158.929 28.6824 159.614 28.8485 160.382 28.8693ZM159.853 20.0843C158.773 20.0843 158.025 21.3408 157.61 23.8537C158.046 23.563 158.451 23.3034 158.825 23.0749C159.219 22.8465 159.562 22.6284 159.853 22.4207C160.476 21.9639 160.798 21.4446 160.819 20.8631C160.819 20.3439 160.496 20.0843 159.853 20.0843Z" fill="white"/>
<path fill-rule="evenodd" clip-rule="evenodd" d="M10.4122 36.8296C10.4122 36.8296 20.8243 21.9601 20.8243 16.3245C20.8243 10.6879 16.163 6.11914 10.4122 6.11914C4.66138 6.11914 0 10.6898 0 16.3245C0 21.9591 10.4122 36.8296 10.4122 36.8296ZM13.8725 12.4821C15.7836 14.3553 15.7836 17.3922 13.8725 19.2654C11.9613 21.1385 8.86283 21.1385 6.9517 19.2654C5.04058 17.3922 5.04058 14.3553 6.9517 12.4821C8.86283 10.6089 11.9613 10.6089 13.8725 12.4821Z" fill="white"/>
<path fill-rule="evenodd" clip-rule="evenodd" d="M10.1127 40.0531C12.9338 40.0531 15.2208 39.0569 15.2208 37.8279C15.2208 37.2155 14.6529 36.6609 13.734 36.2585C15.4822 36.7343 16.6396 37.5633 16.6396 38.5063C16.6396 39.9824 13.8042 41.179 10.3064 41.179C6.80863 41.179 3.97314 39.9824 3.97314 38.5063C3.97314 37.7688 4.68109 37.101 5.82588 36.6174C5.30638 36.9658 5.00463 37.3815 5.00463 37.8279C5.00463 39.0569 7.2916 40.0531 10.1127 40.0531Z" fill="white"/>
<path fill-rule="evenodd" clip-rule="evenodd" d="M10.216 44.5034C14.9179 44.5034 18.7295 43.009 18.7295 41.1656C18.7295 40.7032 18.4897 40.2627 18.056 39.8623C19.429 40.5763 20.2517 41.4864 20.2517 42.4776C20.2517 44.7714 15.8452 46.631 10.4095 46.631C4.97387 46.631 0.567383 44.7714 0.567383 42.4776C0.567383 41.698 1.07628 40.9687 1.96152 40.3454C1.79238 40.6078 1.70252 40.8826 1.70252 41.1656C1.70252 43.009 5.51414 44.5034 10.216 44.5034Z" fill="white"/>
<path d="M31.2183 45.0596V39.3956H34.7693V40.1312H32.0728V41.857H34.584V42.5899H32.0728V44.324H34.8026V45.0596H31.2183ZM39.8544 39.3956L41.2095 41.6108H41.2538L42.609 39.3956H43.5991L41.8346 42.2276L43.6102 45.0596H42.6145L41.2538 42.8747H41.2095L39.8488 45.0596H38.8532L40.6592 42.2276L38.8643 39.3956H39.8544ZM47.7956 45.0596V39.3956H49.8145C50.2552 39.3956 50.6203 39.4758 50.9098 39.6361C51.1992 39.7966 51.4159 40.016 51.5597 40.2943C51.7035 40.5709 51.7754 40.8825 51.7754 41.2291C51.7754 41.5777 51.7026 41.8911 51.5569 42.1695C51.4131 42.446 51.1955 42.6655 50.9042 42.8277C50.6148 42.9881 50.2506 43.0684 49.8118 43.0684H48.4234V42.3437H49.7344C50.0127 42.3437 50.2386 42.2958 50.4119 42.1999C50.5853 42.1022 50.7124 41.9695 50.7936 41.8017C50.8747 41.6339 50.9153 41.443 50.9153 41.2291C50.9153 41.0153 50.8747 40.8254 50.7936 40.6594C50.7124 40.4935 50.5843 40.3635 50.4091 40.2695C50.2359 40.1755 50.0072 40.1285 49.7233 40.1285H48.6502V45.0596H47.7956ZM56.1259 45.0596V39.3956H56.9809V44.324H59.5471V45.0596H56.1259ZM68.5707 42.2276C68.5707 42.8323 68.46 43.3523 68.2386 43.7874C68.0172 44.2207 67.714 44.5544 67.329 44.7886C66.9452 45.0209 66.5091 45.137 66.0206 45.137C65.53 45.137 65.0922 45.0209 64.7067 44.7886C64.3234 44.5544 64.0213 44.2198 63.7999 43.7846C63.5785 43.3495 63.4678 42.8305 63.4678 42.2276C63.4678 41.6228 63.5785 41.1038 63.7999 40.6705C64.0213 40.2354 64.3234 39.9017 64.7067 39.6694C65.0922 39.4352 65.53 39.3181 66.0206 39.3181C66.5091 39.3181 66.9452 39.4352 67.329 39.6694C67.714 39.9017 68.0172 40.2354 68.2386 40.6705C68.46 41.1038 68.5707 41.6228 68.5707 42.2276ZM67.724 42.2276C67.724 41.7666 67.6495 41.3785 67.5004 41.0633C67.3529 40.7461 67.1499 40.5064 66.8918 40.3441C66.6353 40.1801 66.3449 40.098 66.0206 40.098C65.6941 40.098 65.4031 40.1801 65.1467 40.3441C64.8902 40.5064 64.6878 40.7461 64.5381 41.0633C64.3907 41.3785 64.3167 41.7666 64.3167 42.2276C64.3167 42.6885 64.3907 43.0775 64.5381 43.3947C64.6878 43.71 64.8902 43.9496 65.1467 44.1137C65.4031 44.276 65.6941 44.3571 66.0206 44.3571C66.3449 44.3571 66.6353 44.276 66.8918 44.1137C67.1499 43.9496 67.3529 43.71 67.5004 43.3947C67.6495 43.0775 67.724 42.6885 67.724 42.2276ZM72.9848 45.0596V39.3956H75.0036C75.4425 39.3956 75.8069 39.4711 76.0962 39.6223C76.3877 39.7735 76.6052 39.9828 76.7487 40.2501C76.8928 40.5156 76.9646 40.8226 76.9646 41.1711C76.9646 41.5177 76.8917 41.8229 76.7459 42.0865C76.6024 42.3483 76.3849 42.5521 76.0934 42.6978C75.8041 42.8434 75.4398 42.9162 75.0008 42.9162H73.4716V42.1806H74.9235C75.2 42.1806 75.4253 42.1409 75.5983 42.0616C75.7735 41.9824 75.9015 41.8671 75.9827 41.7159C76.0639 41.5648 76.1045 41.3831 76.1045 41.1711C76.1045 40.9572 76.0628 40.7719 75.9799 40.6152C75.8987 40.4585 75.7707 40.3386 75.5955 40.2556C75.4225 40.1709 75.1944 40.1285 74.9124 40.1285H73.8393V45.0596H72.9848ZM75.7808 42.5041L77.1804 45.0596H76.2069L74.8351 42.5041H75.7808ZM81.3537 45.0596V39.3956H84.9045V40.1312H82.2082V41.857H84.7193V42.5899H82.2082V44.324H84.9379V45.0596H81.3537ZM94.5256 40.1312V39.3956H98.9091V40.1312H97.1418V45.0596H96.2901V40.1312H94.5256ZM103.227 45.0596V39.3956H104.081V41.857H106.905V39.3956H107.763V45.0596H106.905V42.5899H104.081V45.0596H103.227ZM112.356 45.0596V39.3956H115.907V40.1312H113.21V41.857H115.721V42.5899H113.21V44.324H115.94V45.0596H112.356ZM126.916 45.0596L125.345 39.3956H126.244L127.348 43.7819H127.4L128.548 39.3956H129.438L130.586 43.7846H130.639L131.74 39.3956H132.641L131.068 45.0596H130.207L129.016 40.8171H128.971L127.779 45.0596H126.916ZM141.408 42.2276C141.408 42.8323 141.297 43.3523 141.076 43.7874C140.855 44.2207 140.551 44.5544 140.166 44.7886C139.783 45.0209 139.347 45.137 138.858 45.137C138.367 45.137 137.93 45.0209 137.544 44.7886C137.161 44.5544 136.858 44.2198 136.637 43.7846C136.416 43.3495 136.305 42.8305 136.305 42.2276C136.305 41.6228 136.416 41.1038 136.637 40.6705C136.858 40.2354 137.161 39.9017 137.544 39.6694C137.93 39.4352 138.367 39.3181 138.858 39.3181C139.347 39.3181 139.783 39.4352 140.166 39.6694C140.551 39.9017 140.855 40.2354 141.076 40.6705C141.297 41.1038 141.408 41.6228 141.408 42.2276ZM140.561 42.2276C140.561 41.7666 140.487 41.3785 140.338 41.0633C140.19 40.7461 139.987 40.5064 139.729 40.3441C139.473 40.1801 139.182 40.098 138.858 40.098C138.532 40.098 138.241 40.1801 137.984 40.3441C137.728 40.5064 137.525 40.7461 137.376 41.0633C137.228 41.3785 137.154 41.7666 137.154 42.2276C137.154 42.6885 137.228 43.0775 137.376 43.3947C137.525 43.71 137.728 43.9496 137.984 44.1137C138.241 44.276 138.532 44.3571 138.858 44.3571C139.182 44.3571 139.473 44.276 139.729 44.1137C139.987 43.9496 140.19 43.71 140.338 43.3947C140.487 43.0775 140.561 42.6885 140.561 42.2276ZM145.822 45.0596V39.3956H147.841C148.28 39.3956 148.644 39.4711 148.934 39.6223C149.225 39.7735 149.443 39.9828 149.586 40.2501C149.73 40.5156 149.802 40.8226 149.802 41.1711C149.802 41.5177 149.729 41.8229 149.583 42.0865C149.44 42.3483 149.222 42.5521 148.931 42.6978C148.642 42.8434 148.277 42.9162 147.838 42.9162H146.309V42.1806H147.761C148.037 42.1806 148.263 42.1409 148.436 42.0616C148.611 41.9824 148.739 41.8671 148.82 41.7159C148.901 41.5648 148.942 41.3831 148.942 41.1711C148.942 40.9572 148.9 40.7719 148.817 40.6152C148.736 40.4585 148.608 40.3386 148.433 40.2556C148.26 40.1709 148.032 40.1285 147.75 40.1285H146.677V45.0596H145.822ZM148.618 42.5041L150.018 45.0596H149.044L147.673 42.5041H148.618ZM154.191 45.0596V39.3956H155.046V44.324H157.612V45.0596H154.191ZM163.769 45.0596H161.936V39.3956H163.827C164.382 39.3956 164.859 39.5089 165.257 39.7357C165.656 39.9606 165.961 40.2842 166.173 40.7064C166.387 41.1268 166.494 41.6311 166.494 42.2193C166.494 42.8093 166.386 43.3163 166.17 43.7404C165.956 44.1645 165.646 44.4908 165.241 44.7194C164.835 44.9462 164.345 45.0596 163.769 45.0596ZM162.79 44.3129H163.722C164.154 44.3129 164.513 44.2317 164.798 44.0695C165.084 43.9054 165.298 43.6685 165.44 43.3587C165.582 43.0471 165.653 42.6673 165.653 42.2193C165.653 41.7749 165.582 41.3979 165.44 41.0881C165.3 40.7784 165.091 40.5433 164.812 40.3829C164.534 40.2225 164.188 40.1423 163.775 40.1423H162.79V44.3129Z" fill="white"/>
</g>
<defs>
<clipPath id="clip0_2_151">
<rect width="168" height="46.7285" fill="white"/>
</clipPath>
</defs>
</svg>
