<svg width="24" height="24" viewBox="0 0 24 24" fill="none" xmlns="http://www.w3.org/2000/svg">
<g clip-path="url(#clip0_2_1582)">
<path d="M20.2374 17.6136H19.017C18.8035 17.6136 18.6204 17.5221 18.4679 17.4L15.417 14.3492C15.1119 14.0441 15.1119 13.556 15.417 13.2814C15.5696 13.1288 15.7526 13.0678 15.9662 13.0678H20.2374C20.6645 13.0678 21.0001 13.4034 21.0001 13.8305V16.8814C21.0001 17.278 20.6645 17.6136 20.2374 17.6136ZM18.6204 19.6882L15.234 16.3017L12.1831 13.2509L4.31193 5.37969C4.00685 5.07461 3.51871 5.07461 3.24413 5.37969C2.96956 5.68478 2.93905 6.17291 3.24413 6.44749L9.80346 13.0068H8.33905V17.5831H14.3797L17.5526 20.756C17.8577 21.061 18.3458 21.061 18.6204 20.756C18.9255 20.4814 18.9255 19.9933 18.6204 19.6882Z" fill="#F75D37"/>
<path d="M6.81356 13.0374H3.76271C3.33559 13.0374 3 13.3729 3 13.8001V16.8509C3 17.278 3.33559 17.6136 3.76271 17.6136H6.81356V13.0374ZM16.3322 11.5424C16.1186 11.5424 15.9356 11.4509 15.7831 11.3289C14.5322 10.0475 14.5322 8.03396 15.7831 6.75261C16.4542 6.08142 16.4542 4.98312 15.7831 4.31193C15.478 4.00685 15.478 3.51871 15.7831 3.24413C16.0881 2.96956 16.5763 2.93905 16.8508 3.24413C18.1017 4.52549 18.1017 6.53905 16.8508 7.82041C16.1797 8.49159 16.1797 9.5899 16.8508 10.2611C17.1559 10.5662 17.1559 11.0543 16.8508 11.3289C16.7288 11.4509 16.5458 11.5424 16.3322 11.5424ZM19.5051 11.5424C19.2915 11.5424 19.1085 11.4509 18.9559 11.3289C17.7051 10.0475 17.7051 8.03396 18.9559 6.75261C19.6271 6.08142 19.6271 4.98312 18.9559 4.31193C18.6508 4.00685 18.6508 3.51871 18.9559 3.24413C19.261 2.96956 19.7492 2.93905 20.0237 3.24413C21.2746 4.52549 21.2746 6.53905 20.0237 7.82041C19.3525 8.49159 19.3525 9.5899 20.0237 10.2611C20.3288 10.5662 20.3288 11.0543 20.0237 11.3289C19.9017 11.4509 19.7186 11.5424 19.5051 11.5424Z" fill="#F75D37"/>
</g>
<defs>
<clipPath id="clip0_2_1582">
<rect width="18" height="18" fill="white" transform="translate(3 3)"/>
</clipPath>
</defs>
</svg>
