<svg width="24" height="24" viewBox="0 0 24 24" fill="none" xmlns="http://www.w3.org/2000/svg">
<path d="M20 12V5.33333C20 4.97971 19.8595 4.64057 19.6095 4.39052C19.3594 4.14048 19.0203 4 18.6667 4H5.33333C4.97971 4 4.64057 4.14048 4.39052 4.39052C4.14048 4.64057 4 4.97971 4 5.33333V18.6667C4 19.0203 4.14048 19.3594 4.39052 19.6095C4.64057 19.8595 4.97971 20 5.33333 20H12" stroke="#F75D37" stroke-width="1.5" stroke-linecap="round" stroke-linejoin="round"/>
<path d="M15.5553 18.222C16.2626 18.222 16.9409 17.9411 17.441 17.441C17.9411 16.9409 18.222 16.2626 18.222 15.5553C18.222 14.8481 17.9411 14.1698 17.441 13.6697C16.9409 13.1696 16.2626 12.8887 15.5553 12.8887C14.8481 12.8887 14.1698 13.1696 13.6697 13.6697C13.1696 14.1698 12.8887 14.8481 12.8887 15.5553C12.8887 16.2626 13.1696 16.9409 13.6697 17.441C14.1698 17.9411 14.8481 18.222 15.5553 18.222Z" stroke="#F75D37" stroke-width="1.5"/>
<path d="M17.7779 17.3332L20.0001 19.111M7.55566 8.44434H16.4446M7.55566 11.9999H11.1112" stroke="#F75D37" stroke-width="1.5" stroke-linecap="round" stroke-linejoin="round"/>
</svg>
