<svg width="24" height="24" viewBox="0 0 24 24" fill="none" xmlns="http://www.w3.org/2000/svg">
<circle cx="12" cy="12" r="12" fill="white"/>
<path d="M7 10.8004C7 9.00886 7 8.1131 7.54917 7.55655C8.09835 7 8.98223 7 10.75 7H13.25C15.0178 7 15.9017 7 16.4508 7.55655C17 8.1131 17 9.00886 17 10.8004V15.1249C17 16.8245 17 17.6743 16.4723 17.9342C15.9446 18.1941 15.2853 17.6691 13.9666 16.6191L13.5446 16.283C12.8031 15.6926 12.4323 15.3974 12 15.3974C11.5677 15.3974 11.1969 15.6926 10.4554 16.283L10.0334 16.6191C8.71472 17.6691 8.05537 18.1941 7.52768 17.9342C7 17.6743 7 16.8245 7 15.1249V10.8004Z" fill="#9D9D9D"/>
</svg>
