<svg width="24" height="24" viewBox="0 0 24 24" fill="none" xmlns="http://www.w3.org/2000/svg">
<path d="M19.1053 21C19.6575 21 20.1142 20.5487 20.0142 20.0055C19.9168 19.4768 19.7419 18.9585 19.4923 18.4622C19.0876 17.6576 18.4945 16.9266 17.7467 16.3108C16.9989 15.695 16.1112 15.2065 15.1342 14.8732C14.1572 14.5399 13.1101 14.3684 12.0526 14.3684C10.9951 14.3684 9.94801 14.5399 8.97102 14.8732C7.99403 15.2065 7.10632 15.695 6.35856 16.3108C5.6108 16.9266 5.01765 17.6576 4.61297 18.4622C4.36334 18.9585 4.18843 19.4768 4.09106 20.0055C3.99102 20.5487 4.44772 21 5 21L12.0526 21H19.1053Z" fill="#F75D37"/>
<circle cx="12.0522" cy="7.26316" r="4.26316" fill="#F75D37"/>
</svg>
