<svg width="24" height="24" viewBox="0 0 24 24" fill="none" xmlns="http://www.w3.org/2000/svg">
<path fill-rule="evenodd" clip-rule="evenodd" d="M3 12C3 7.02944 7.02944 3 12 3C16.9706 3 21 7.02944 21 12V17.7273C21 18.9161 21 19.5105 20.7554 19.9585C20.5716 20.295 20.295 20.5716 19.9585 20.7554C19.5105 21 18.9161 21 17.7273 21H12C7.02944 21 3 16.9706 3 12ZM8 10.8C8 10.3582 8.35817 10 8.8 10H15.2C15.6418 10 16 10.3582 16 10.8C16 11.2418 15.6418 11.6 15.2 11.6H8.8C8.35817 11.6 8 11.2418 8 10.8ZM11.8 14C11.3582 14 11 14.3582 11 14.8C11 15.2418 11.3582 15.6 11.8 15.6H15.2C15.6418 15.6 16 15.2418 16 14.8C16 14.3582 15.6418 14 15.2 14H11.8Z" fill="#F75D37"/>
</svg>
