<svg width="24" height="24" viewBox="0 0 24 24" fill="none" xmlns="http://www.w3.org/2000/svg">
<path fill-rule="evenodd" clip-rule="evenodd" d="M4.31367 8.81641C4 9.48712 4 10.2501 4 11.7762V16.5421C4 18.6615 4 19.7211 4.66947 20.3795C5.33894 21.0379 6.41644 21.0379 8.57143 21.0379H15.4286C17.5836 21.0379 18.6611 21.0379 19.3305 20.3795C20 19.7211 20 18.6615 20 16.5421V11.7762C20 10.2501 20 9.48712 19.6863 8.81641C19.3727 8.14571 18.7836 7.64914 17.6054 6.65601L16.4626 5.69263L16.4626 5.69262C14.3331 3.89754 13.2683 3 12 3C10.7317 3 9.66694 3.89754 7.53743 5.69263L6.39457 6.65601C5.21642 7.64914 4.62734 8.14571 4.31367 8.81641ZM10 15C9.44772 15 9 15.4477 9 16V21H15V16C15 15.4477 14.5523 15 14 15H10Z" fill="#F75D37"/>
</svg>
