<svg width="24" height="24" viewBox="0 0 24 24" fill="none" xmlns="http://www.w3.org/2000/svg">
<path d="M4 11.7776C4 10.2259 4 9.45003 4.31367 8.76805C4.62734 8.08606 5.21642 7.58113 6.39457 6.57129L7.53743 5.5917C9.66694 3.7664 10.7317 2.85376 12 2.85376C13.2683 2.85376 14.3331 3.7664 16.4626 5.5917L17.6054 6.57129C18.7836 7.58113 19.3727 8.08606 19.6863 8.76805C20 9.45003 20 10.2259 20 11.7776V16.6238C20 18.7788 20 19.8563 19.3305 20.5257C18.6611 21.1952 17.5836 21.1952 15.4286 21.1952H8.57143C6.41644 21.1952 5.33894 21.1952 4.66947 20.5257C4 19.8563 4 18.7788 4 16.6238V11.7776Z" stroke="#8C8C8C" stroke-width="1.5"/>
<path d="M14.8571 21.1953V15.3381C14.8571 14.7858 14.4094 14.3381 13.8571 14.3381H10.1428C9.59054 14.3381 9.14282 14.7858 9.14282 15.3381V21.1953" stroke="#8C8C8C" stroke-width="1.56" stroke-linecap="round" stroke-linejoin="round"/>
</svg>
