<svg width="24" height="24" viewBox="0 0 24 24" fill="none" xmlns="http://www.w3.org/2000/svg">
<path d="M18.1792 9C18.1792 7.4087 17.5282 5.88258 16.3693 4.75736C15.2105 3.63214 13.6388 3 12 3C10.3612 3 8.78948 3.63214 7.63066 4.75736C6.47184 5.88258 5.82083 7.4087 5.82083 9C5.82083 12.0902 5.01802 14.206 4.12121 15.6054C3.36474 16.7859 2.9865 17.3761 3.00037 17.5408C3.01572 17.7231 3.0555 17.7926 3.2068 17.9016C3.34345 18 3.95944 18 5.19143 18H18.8086C20.0406 18 20.6565 18 20.7932 17.9016C20.9445 17.7926 20.9843 17.7231 20.9996 17.5408C21.0135 17.3761 20.6353 16.7859 19.8788 15.6054C18.982 14.206 18.1792 12.0902 18.1792 9Z" fill="#F75D37"/>
<path d="M9.27516 22C10.0014 22.6224 10.9553 23 12 23C13.0447 23 13.9986 22.6224 14.7248 22M18.1792 9C18.1792 7.4087 17.5282 5.88258 16.3693 4.75736C15.2105 3.63214 13.6388 3 12 3C10.3612 3 8.78948 3.63214 7.63066 4.75736C6.47184 5.88258 5.82083 7.4087 5.82083 9C5.82083 12.0902 5.01802 14.206 4.12121 15.6054C3.36474 16.7859 2.9865 17.3761 3.00037 17.5408C3.01572 17.7231 3.0555 17.7926 3.2068 17.9016C3.34345 18 3.95944 18 5.19143 18H18.8086C20.0406 18 20.6565 18 20.7932 17.9016C20.9445 17.7926 20.9843 17.7231 20.9996 17.5408C21.0135 17.3761 20.6353 16.7859 19.8788 15.6054C18.982 14.206 18.1792 12.0902 18.1792 9Z" stroke="#F75D37" stroke-width="1.5" stroke-linecap="round" stroke-linejoin="round"/>
</svg>
