<svg width="24" height="24" viewBox="0 0 24 24" fill="none" xmlns="http://www.w3.org/2000/svg">
<path d="M4 9.21878C4 6.28722 4 4.82144 4.87868 3.91072C5.75736 3 7.17157 3 10 3H14C16.8284 3 18.2426 3 19.1213 3.91072C20 4.82144 20 6.28722 20 9.21878V16.2953C20 19.0765 20 20.467 19.1557 20.8924C18.3114 21.3177 17.2565 20.4586 15.1465 18.7403L14.4713 18.1904C13.2849 17.2243 12.6917 16.7412 12 16.7412C11.3083 16.7412 10.7151 17.2243 9.52871 18.1904L8.85346 18.7403C6.74355 20.4586 5.68859 21.3177 4.84429 20.8924C4 20.467 4 19.0765 4 16.2953V9.21878Z" fill="#F75D37"/>
</svg>
