<svg width="28" height="28" viewBox="0 0 28 28" fill="none" xmlns="http://www.w3.org/2000/svg">
<g clip-path="url(#clip0_2_594)">
<path d="M7.63818 23.2573L9.05876 24.2043H28V23.2573H7.63818ZM17.5825 27.0457H23.2648V27.9928H17.5825V27.0457ZM15.6882 25.1515H25.1587V26.0987H15.6882V25.1515ZM23.4201 14.59C25.0844 16.2544 25.0844 18.9528 23.4201 20.6172C21.7557 22.2812 19.0573 22.2812 17.3929 20.6172C15.7287 18.9528 15.7287 16.2544 17.3929 14.59C19.0573 12.9257 21.7557 12.9257 23.4201 14.59Z" fill="#F75D37"/>
<path d="M4.61416 22.6488C7.40719 18.0105 9.08237 12.7857 9.50712 7.38804L14.6179 12.5154C15.4246 10.9191 15.1196 8.98541 13.8603 7.71505L13.41 7.26103C13.1101 6.95953 12.7647 6.7071 12.3864 6.51301L17.1404 6.53427C16.5823 4.83466 14.9989 3.68293 13.21 3.67552L12.5702 3.67268C12.1132 3.67141 11.6593 3.74604 11.2268 3.89352L14.6364 0.495839C13.0401 -0.310731 11.1069 -0.00570765 9.83656 1.25316L9.38249 1.70376C9.08084 2.00346 8.82842 2.34892 8.63457 2.72738C8.44347 2.34743 8.19401 1.99976 7.89527 1.69703L7.44479 1.24291C6.18641 -0.0274517 4.2561 -0.349919 2.6527 0.442244L6.03051 3.86981C5.59908 3.71879 5.14565 3.64017 4.68857 3.63711L4.04932 3.63444C2.26087 3.62632 0.667724 4.76335 0.0942403 6.45745L4.84865 6.4788C4.4685 6.66955 4.12076 6.91897 3.8182 7.2179L3.36389 7.6685C2.09365 8.92708 1.77125 10.8575 2.56368 12.461L7.60405 7.49492C7.25677 12.6834 5.37568 17.6517 2.19955 21.7691C1.48654 21.5663 0.761179 21.4098 0.0279879 21.3005L0 27.4563L10.8911 27.5034L10.8703 27.4774C9.18831 25.4038 7.04631 23.7505 4.61416 22.6488ZM3.31731 26.9984L2.3702 26.9941L2.37435 26.047L3.3213 26.0513L3.31731 26.9984ZM6.16202 26.064L5.215 26.0597L5.21961 25.1127L6.16675 25.1168L6.16202 26.064Z" fill="#F75D37"/>
</g>
<defs>
<clipPath id="clip0_2_594">
<rect width="28" height="28" fill="white"/>
</clipPath>
</defs>
</svg>
