<svg width="28" height="28" viewBox="0 0 28 28" fill="none" xmlns="http://www.w3.org/2000/svg">
<g clip-path="url(#clip0_2_611)">
<path d="M8.09253 21.618C7.8309 21.0904 7.63818 20.5291 7.52481 19.9547C7.32307 18.9322 7.3648 17.9003 7.64885 16.8878L8.31893 14.4991L9.09533 11.7315L10.8735 13.5883L12.6103 10.8198L14.0001 8.60437L15.3899 10.8198L17.1266 13.5882L18.9048 11.7314L19.6812 14.499L20.3513 16.8877C20.6353 17.9003 20.677 18.9321 20.4753 19.9546C20.362 20.529 20.1692 21.0904 19.9076 21.6179C22.8186 19.3213 24.3186 15.3797 23.2173 11.4539L21.9229 6.8396L19.5158 9.35304L14.0001 0.560547L8.48431 9.35304L6.07724 6.8396L4.78278 11.4539C3.68149 15.3798 5.18151 19.3214 8.09253 21.618Z" fill="#F75D37"/>
<path d="M18.7716 17.3307L18.1015 14.942L16.8555 16.2431L14 11.6914L11.1446 16.2431L9.89855 14.942L9.22846 17.3307C8.35477 20.4451 10.6431 23.5794 13.8773 23.6373C13.9591 23.6388 14.041 23.6388 14.1228 23.6373C17.3569 23.5794 19.6453 20.4451 18.7716 17.3307ZM4.48219 22.9545C3.35442 23.3876 2.7913 24.6531 3.22454 25.7809L3.32216 26.0351C3.75534 27.1628 5.02075 27.7259 6.14857 27.2927L11.8843 25.0896C9.78955 24.7005 7.86581 23.7196 6.31537 22.2503L4.48219 22.9545ZM23.5178 22.9545L21.6846 22.2503C20.1342 23.7196 18.2104 24.7005 16.1157 25.0896L21.8514 27.2927C22.9792 27.7259 24.2447 27.1628 24.6778 26.0351L24.7755 25.7809C25.2087 24.6531 24.6456 23.3876 23.5178 22.9545ZM25.8125 19.2066H23.9673C23.6836 19.7589 23.3549 20.2869 22.9846 20.7852C22.9139 20.88 22.8418 20.9736 22.7683 21.0661L24.1061 21.4229C25.0607 21.7895 25.8153 22.506 26.231 23.4401C26.2809 23.5524 26.3255 23.667 26.3645 23.7835C27.3054 23.539 28 22.6839 28 21.6665V21.3942C28 20.186 27.0206 19.2066 25.8125 19.2066ZM5.28992 21.1378C5.19615 21.0221 5.10466 20.9046 5.0155 20.7853C4.64519 20.2869 4.3165 19.7589 4.03277 19.2067H2.1875C0.979398 19.2067 0 20.1861 0 21.3942V21.6665C0 22.6839 0.694641 23.539 1.63554 23.7836C1.67461 23.6671 1.71916 23.5525 1.76903 23.4402C2.18471 22.506 2.93934 21.7896 3.89391 21.4229L5.28992 21.1378Z" fill="#F75D37"/>
</g>
<defs>
<clipPath id="clip0_2_611">
<rect width="28" height="28" fill="white"/>
</clipPath>
</defs>
</svg>
