<svg width="28" height="28" viewBox="0 0 28 28" fill="none" xmlns="http://www.w3.org/2000/svg">
<g clip-path="url(#clip0_2_602)">
<path d="M5.42562 5.28058L3.51692 7.78869H4.76678L2.89038 10.2961H11.3804L9.50331 7.78869H10.7538L8.84447 5.28058H9.9012L7.13537 1.54199L4.36954 5.28058H5.42562Z" fill="#F75D37"/>
<path d="M6.40479 9.79619V13.2583C6.87621 13.0541 7.36525 12.8933 7.86586 12.7778V9.79683H7.13532L6.40479 9.79619ZM22.0457 8.06964L20.1364 10.5771H21.3869L19.5105 13.0852H27.9998L26.1234 10.5771H27.3733L25.464 8.06964H26.5207L23.7549 4.33105L20.989 8.06964H22.0457Z" fill="#F75D37"/>
<path d="M23.0244 12.5855V15.3345C23.2091 15.3584 23.3932 15.3855 23.576 15.4165C23.8847 15.4682 24.1896 15.5328 24.4861 15.6097V12.5855H23.7549H23.0244ZM14.4717 24.7714C12.3531 25.7493 5.56901 28.3466 0.745922 24.1126C-0.962538 22.6127 0.583796 20.5833 2.17405 19.7313C4.99672 18.2231 2.77024 16.5463 5.01804 14.686C6.24012 13.6738 8.66943 12.4821 12.9809 13.2379C15.7894 13.73 17.4933 15.7944 20.6345 15.7182C23.7749 15.6407 28.8512 16.4513 27.8778 20.7919C27.8778 20.7919 27.3591 23.4531 22.6769 23.7954C18.1748 24.1235 19.6133 22.397 14.4717 24.7714ZM12.3912 16.7258C10.9469 16.4726 9.01499 16.273 7.88722 17.3976C6.48234 18.7966 4.11181 22.49 7.0191 22.8453C8.94136 23.0804 11.0419 22.5436 12.7549 21.7937C14.5324 21.0147 16.4599 21.0005 18.0379 19.8482C19.9239 18.4711 13.6973 16.9545 12.3912 16.7258ZM13.1941 4.28281C13.3808 4.28281 13.5584 4.32157 13.7192 4.39068C13.6456 4.11858 13.6602 3.83011 13.7609 3.56684C13.8617 3.30357 14.0435 3.07908 14.28 2.92572C14.5165 2.77236 14.7956 2.69805 15.0771 2.71349C15.3586 2.72893 15.6279 2.83333 15.8462 3.01164C15.8929 2.71309 16.0397 2.43927 16.2625 2.2352C16.4854 2.03113 16.771 1.90894 17.0725 1.88873C17.374 1.86851 17.6734 1.95147 17.9215 2.12396C18.1696 2.29646 18.3516 2.54823 18.4377 2.83789C18.6868 2.69324 18.9762 2.63333 19.2623 2.66715C19.5484 2.70096 19.8158 2.82668 20.0244 3.02542C20.233 3.22417 20.3714 3.48521 20.419 3.76935C20.4666 4.0535 20.4207 4.34541 20.2882 4.60125C20.4956 4.77788 20.6438 5.01386 20.7128 5.27736C20.7819 5.54087 20.7684 5.8192 20.6742 6.07481C20.5801 6.33041 20.4098 6.55099 20.1864 6.70676C19.9629 6.86254 19.697 6.94602 19.4246 6.94594C18.2329 6.9453 14.9704 6.94594 13.1941 6.94594C12.8409 6.94594 12.5023 6.80565 12.2525 6.55593C12.0028 6.30622 11.8625 5.96753 11.8625 5.61438C11.8625 5.26122 12.0028 4.92254 12.2525 4.67282C12.5023 4.4231 12.8409 4.28281 13.1941 4.28281Z" fill="#F75D37"/>
</g>
<defs>
<clipPath id="clip0_2_602">
<rect width="28" height="28" fill="white"/>
</clipPath>
</defs>
</svg>
