<svg width="28" height="28" viewBox="0 0 28 28" fill="none" xmlns="http://www.w3.org/2000/svg">
<g clip-path="url(#clip0_2_585)">
<path d="M4.15625 11.5391H0.820312C0.366898 11.5391 0 11.906 0 12.3594C0 12.8128 0.366898 13.1797 0.820312 13.1797H4.15625C4.60966 13.1797 4.97656 12.8128 4.97656 12.3594C4.97656 11.906 4.60966 11.5391 4.15625 11.5391ZM25.4844 11.5391H22.2031C21.7497 11.5391 21.3828 11.906 21.3828 12.3594C21.3828 12.8128 21.7497 13.1797 22.2031 13.1797H25.4844C25.9378 13.1797 26.3047 12.8128 26.3047 12.3594C26.3047 11.906 25.9378 11.5391 25.4844 11.5391ZM22.4603 3.0788C22.1399 2.75838 21.6207 2.75838 21.3003 3.0788L18.9803 5.39875C18.6599 5.71916 18.6599 6.23831 18.9803 6.55873C19.3008 6.87914 19.8199 6.87914 20.1403 6.55873L22.4603 4.23877C22.7807 3.91836 22.7807 3.39921 22.4603 3.0788ZM7.37904 5.39875L5.05909 3.0788C4.73867 2.75838 4.21952 2.75838 3.89911 3.0788C3.5787 3.39921 3.5787 3.91836 3.89911 4.23877L6.21906 6.55873C6.53948 6.87914 7.05862 6.87914 7.37904 6.55873C7.69945 6.23831 7.69945 5.71916 7.37904 5.39875ZM13.1797 0C12.7263 0 12.3594 0.366898 12.3594 0.820312V4.15625C12.3594 4.60966 12.7263 4.97656 13.1797 4.97656C13.6331 4.97656 14 4.60966 14 4.15625V0.820312C14 0.366898 13.6331 0 13.1797 0ZM13.046 16.8187C13.0467 16.8198 13.0477 16.8207 13.0484 16.8218C13.0187 16.7772 13.0193 16.7782 13.046 16.8187ZM13.046 16.8187C12.7167 16.3463 11.9977 16.3472 11.6704 16.8218L8.0774 22.2359L6.45318 20.0703C6.12505 19.6273 5.46875 19.6273 5.14062 20.0703L0.164062 26.6875C0.0750623 26.8092 0.0204795 26.9527 0.00604551 27.1028C-0.0083885 27.2529 0.0178587 27.4041 0.0820312 27.5406C0.229687 27.8195 0.508594 28 0.820312 28H20.4477C20.3446 27.8451 13.4633 17.4519 13.046 16.8187Z" fill="#F75D37"/>
<path d="M13.1797 6.61719C9.56118 6.61719 6.61719 9.56118 6.61719 13.1797C6.61719 15.1196 7.46834 16.8815 8.85462 18.098L10.3038 15.9146C10.7812 15.2225 11.5439 14.8243 12.3594 14.8243C12.5277 14.8243 12.6914 14.8514 12.853 14.8843L15.2265 11.3188C15.6871 10.6403 16.4521 10.2429 17.2812 10.2429C18.1104 10.2429 18.8754 10.6403 19.3272 11.3067L19.533 11.6157C18.8267 8.75366 16.2566 6.61719 13.1797 6.61719Z" fill="#F75D37"/>
<path d="M27.851 26.7204L17.9702 12.2283C17.6585 11.769 16.9038 11.769 16.5921 12.2283L14.2595 15.7329C14.5982 16.1426 16.6313 19.3293 22.4169 28.0002H27.1783C27.4736 28.0002 27.7525 27.836 27.9002 27.5736C28.0479 27.2947 28.0315 26.983 27.851 26.7204Z" fill="#F75D37"/>
</g>
<defs>
<clipPath id="clip0_2_585">
<rect width="28" height="28" fill="white"/>
</clipPath>
</defs>
</svg>
